<svg width="276" height="662" viewBox="0 0 276 662" fill="none" xmlns="http://www.w3.org/2000/svg">
<path d="M621 29.2666C621 29.2666 616.528 241.847 461.3 208.22C356.294 185.477 288.849 139.931 227.172 155.767C175.336 169.075 142.831 245.911 137.493 289.806C130.047 351.008 170.821 436.352 158.19 496.781C131.796 623.101 -123.133 623.041 -197 462.26" stroke="url(#paint0_linear_1927_49691)" stroke-width="0.25" stroke-miterlimit="10"/>
<path d="M619.252 28.3516C619.252 28.3516 614.475 237.832 462.476 207.909C359.818 187.7 293.163 144.85 231.453 160.844C219.753 163.867 209.013 170.061 199.318 178.325C193.212 183.521 187.526 189.519 182.281 196.045C159.187 224.753 144.655 264.116 140.581 290.896C131.475 350.229 169.258 433.111 155.685 492.314C127.689 615.861 -120.459 618.493 -191.984 468.389" stroke="url(#paint1_linear_1927_49691)" stroke-width="0.25" stroke-miterlimit="10"/>
<path d="M617.503 27.4419C617.503 27.4419 612.443 233.817 463.647 207.599C363.342 189.922 297.476 149.769 235.723 165.915C224.127 168.933 213.441 175.002 203.757 183.053C197.651 188.119 191.943 193.931 186.66 200.24C163.397 227.983 148.452 266.044 143.653 291.974C132.88 349.439 167.531 429.827 153.157 487.831C123.25 608.524 -117.806 613.933 -186.984 474.501" stroke="url(#paint2_linear_1927_49691)" stroke-width="0.25" stroke-miterlimit="10"/>
<path d="M615.76 26.5322C615.76 26.5322 610.428 229.803 464.829 207.289C366.888 192.139 301.796 154.683 240.009 170.992C228.511 174.005 217.885 179.948 208.206 187.787C202.101 192.717 196.371 198.349 191.055 204.44C167.618 231.219 152.259 267.978 146.747 293.064C134.307 348.655 165.908 426.564 150.652 483.364C118.996 601.235 -115.137 609.385 -181.967 480.624" stroke="url(#paint3_linear_1927_49691)" stroke-width="0.25" stroke-miterlimit="10"/>
<path d="M614.012 25.6172C614.012 25.6172 608.424 225.783 466.006 206.973C370.434 194.351 306.104 159.597 244.285 176.059C232.885 179.066 222.313 184.883 212.651 192.51C206.54 197.309 200.794 202.756 195.439 208.629C171.834 234.45 156.12 269.923 149.83 294.142C135.864 347.903 164.279 423.284 148.141 478.886C114.748 593.936 -112.469 604.825 -176.957 486.741" stroke="url(#paint4_linear_1927_49691)" stroke-width="0.25" stroke-miterlimit="10"/>
<path d="M612.263 24.7075C612.263 24.7075 606.441 221.757 467.176 206.662C373.996 196.563 310.417 164.516 248.56 181.136C237.264 184.137 226.746 189.83 217.09 197.244C210.979 201.912 205.211 207.174 199.824 212.829C176.049 237.685 159.933 271.863 152.912 295.232C137.313 347.14 162.651 420.022 145.625 474.414C110.499 586.636 -109.805 600.277 -171.946 492.859" stroke="url(#paint5_linear_1927_49691)" stroke-width="0.25" stroke-miterlimit="10"/>
<path d="M610.515 23.7979C610.515 23.7979 604.47 217.726 468.353 206.352C377.569 198.764 314.732 169.429 252.836 186.207C241.638 189.203 231.18 194.771 221.529 201.967C215.418 206.504 209.628 211.581 204.203 217.018C180.255 240.91 163.74 273.796 155.985 296.311C138.751 346.367 161.017 416.742 143.103 469.936C106.262 579.326 -107.152 595.717 -166.945 498.976" stroke="url(#paint6_linear_1927_49691)" stroke-width="0.25" stroke-miterlimit="10"/>
<path d="M608.767 22.8828C608.767 22.8828 602.519 213.679 469.524 206.036C381.147 200.959 319.039 174.343 257.111 191.279C246.011 194.27 235.614 199.706 225.973 206.695C219.857 211.102 214.051 215.994 208.593 221.213C184.475 244.141 167.553 275.73 159.072 297.395C140.194 345.599 159.405 413.463 140.592 465.464C102.041 572.021 -104.484 591.163 -161.935 505.1" stroke="url(#paint7_linear_1927_49691)" stroke-width="0.25" stroke-miterlimit="10"/>
<path d="M607.024 21.9727C607.024 21.9727 600.597 209.625 470.706 205.725C384.748 203.143 323.359 179.256 261.393 196.35C250.396 199.335 240.048 204.647 230.418 211.423C224.301 215.699 218.468 220.411 212.978 225.407C188.691 247.371 171.366 277.669 162.155 298.478C141.638 344.836 157.793 410.189 138.076 460.991C97.8255 564.71 -101.82 586.614 -156.924 511.217" stroke="url(#paint8_linear_1927_49691)" stroke-width="0.25" stroke-miterlimit="10"/>
<path d="M605.276 21.0576C605.276 21.0576 598.685 205.556 471.877 205.409C388.348 205.311 327.705 184.301 265.668 201.422C254.775 204.429 244.481 209.587 234.862 216.152C228.74 220.292 222.891 224.824 217.368 229.601C192.907 250.601 175.173 279.609 165.238 299.563C143.07 344.073 156.186 406.909 135.565 456.514C93.6315 557.394 -99.1569 582.055 -151.913 517.334" stroke="url(#paint9_linear_1927_49691)" stroke-width="0.25" stroke-miterlimit="10"/>
<path d="M603.527 20.1475C603.527 20.1475 596.795 201.47 473.054 205.098C391.97 207.473 332.024 189.23 269.944 206.493C259.154 209.494 248.925 214.55 239.301 220.88C233.185 224.9 227.308 229.236 221.747 233.79C197.117 253.831 178.974 281.547 168.315 300.641C144.503 343.31 154.579 403.63 133.049 452.041C89.443 550.084 -96.4936 577.501 -146.907 523.451" stroke="url(#paint10_linear_1927_49691)" stroke-width="0.25" stroke-miterlimit="10"/>
<path d="M601.779 19.2378C601.779 19.2378 594.922 197.368 474.225 204.788C395.597 209.62 336.333 194.155 274.22 211.57C263.528 214.566 253.359 219.496 243.74 225.613C237.624 229.503 231.725 233.654 226.131 237.99C201.333 257.067 182.776 283.492 171.398 301.73C145.925 342.548 152.978 400.35 130.527 447.569C85.2601 542.773 -93.8355 572.946 -141.902 529.574" stroke="url(#paint11_linear_1927_49691)" stroke-width="0.25" stroke-miterlimit="10"/>
<path d="M600.036 18.3232C600.036 18.3232 593.075 193.235 475.406 204.473C399.241 211.745 340.657 199.069 278.5 216.637C267.912 219.627 257.798 224.432 248.19 230.337C242.073 234.096 236.164 238.072 230.521 242.18C205.587 260.341 186.583 285.427 174.481 302.809C147.351 341.786 151.393 397.066 128.016 443.086C81.1042 535.452 -91.1722 568.388 -136.891 535.687" stroke="url(#paint12_linear_1927_49691)" stroke-width="0.25" stroke-miterlimit="10"/>
<path d="M598.287 17.4131C598.287 17.4131 591.24 189.083 476.577 204.162C402.89 213.853 344.965 203.993 282.776 221.713C272.286 224.704 262.226 229.378 252.629 235.07C246.507 238.698 240.581 242.495 234.906 246.379C209.802 263.582 190.38 287.371 177.564 303.898C148.767 341.028 149.808 393.792 125.499 438.619C76.9592 528.147 -88.5035 563.839 -131.88 541.809" stroke="url(#paint13_linear_1927_49691)" stroke-width="0.25" stroke-miterlimit="10"/>
<path d="M596.539 16.5039C596.539 16.5039 589.421 184.895 477.754 203.857C406.55 215.945 349.285 208.923 287.052 226.791C276.665 229.776 266.659 234.325 257.073 239.805C250.951 243.302 244.998 246.914 239.29 250.58C214.018 266.824 194.176 289.316 180.647 304.989C150.178 340.271 148.234 390.519 122.989 434.152C72.8253 520.848 -85.84 559.291 -126.869 547.938" stroke="url(#paint14_linear_1927_49691)" stroke-width="0.25" stroke-miterlimit="10"/>
<path d="M594.791 15.5884C594.791 15.5884 587.612 180.667 478.925 203.541C410.216 218.004 353.593 213.836 291.327 231.856C281.038 234.836 271.093 239.26 261.512 244.527C255.39 247.894 249.415 251.32 243.674 254.768C218.228 270.048 197.972 291.25 183.729 306.067C151.589 339.498 146.665 387.239 120.472 429.669C68.7074 513.537 -83.1769 554.731 -121.864 554.044" stroke="url(#paint15_linear_1927_49691)" stroke-width="0.25" stroke-miterlimit="10"/>
<path d="M593.042 14.6782C593.042 14.6782 585.809 176.401 480.101 203.23C413.887 220.035 357.907 218.755 295.603 236.933C285.412 239.907 275.527 244.205 265.951 249.261C259.824 252.496 253.833 255.738 248.054 258.968C222.433 273.289 201.758 293.189 186.801 307.156C152.978 338.735 145.091 383.97 117.945 425.201C64.59 506.248 -80.5296 550.182 -116.869 560.172" stroke="url(#paint16_linear_1927_49691)" stroke-width="0.25" stroke-miterlimit="10"/>
<path d="M591.3 13.7686C591.3 13.7686 584.017 172.092 481.283 202.919C417.563 222.034 362.226 223.669 299.889 242.005C289.802 244.973 279.966 249.146 270.407 253.989C264.279 257.094 258.266 260.15 252.455 263.162C226.665 276.52 205.565 295.122 189.9 308.234C154.394 337.956 143.555 380.696 115.451 420.724C60.5215 498.954 -77.8443 545.622 -111.837 566.284" stroke="url(#paint17_linear_1927_49691)" stroke-width="0.25" stroke-miterlimit="10"/>
<path d="M589.551 12.8535C589.551 12.8535 582.215 167.735 482.455 202.604C421.229 224.007 366.534 228.582 304.16 247.076C294.17 250.04 284.394 254.087 274.84 258.717C268.708 261.692 262.678 264.568 256.829 267.357C230.864 279.755 209.345 297.056 192.972 309.319C155.783 337.177 141.997 377.433 112.923 416.246C56.4366 491.666 -75.1918 541.068 -106.842 572.402" stroke="url(#paint18_linear_1927_49691)" stroke-width="0.25" stroke-miterlimit="10"/>
<path d="M587.803 11.9438C587.803 11.9438 580.406 163.328 483.631 202.293C424.895 225.946 370.848 233.496 308.441 252.148C298.55 255.106 288.827 259.028 279.29 263.446C273.157 266.284 267.106 268.98 261.224 271.552C235.086 282.986 213.141 298.985 196.061 310.403C157.177 336.392 140.462 374.17 110.413 411.774C52.3844 484.399 -72.5283 536.514 -101.826 578.525" stroke="url(#paint19_linear_1927_49691)" stroke-width="0.25" stroke-miterlimit="10"/>
<path d="M586.054 11.0288C586.054 11.0288 578.571 158.861 484.802 201.977C428.538 227.847 375.156 238.404 312.71 257.22C302.923 260.167 293.255 263.963 283.724 268.174C277.585 270.882 271.512 273.393 265.603 275.746C239.29 286.216 216.926 300.913 199.138 311.487C158.566 335.603 138.92 370.918 107.896 407.302C48.3318 477.143 -69.8653 531.96 -96.8206 584.642" stroke="url(#paint20_linear_1927_49691)" stroke-width="0.25" stroke-miterlimit="10"/>
<path d="M584.311 10.1191C584.311 10.1191 576.719 154.351 485.984 201.667C432.176 229.727 379.475 243.312 316.997 262.291C307.307 265.233 297.699 268.904 288.173 272.903C282.035 275.479 275.94 277.806 269.993 279.941C243.511 289.447 220.717 302.842 202.226 312.571C159.965 334.813 137.4 367.672 105.385 402.824C44.3011 469.893 -67.1966 527.401 -91.8098 590.76" stroke="url(#paint21_linear_1927_49691)" stroke-width="0.25" stroke-miterlimit="10"/>
<path d="M582.563 9.20947C582.563 9.20947 574.824 149.791 487.155 201.356C435.788 231.573 383.784 248.221 321.267 267.368C311.676 270.304 302.123 273.851 292.613 277.637C286.469 280.083 280.358 282.223 274.377 284.141C247.722 292.677 224.503 304.77 205.303 313.66C161.349 334.017 135.875 364.441 102.869 398.357C40.2765 462.664 -64.5382 522.852 -86.804 596.883" stroke="url(#paint22_linear_1927_49691)" stroke-width="0.25" stroke-miterlimit="10"/>
<path d="M580.815 8.29443C580.815 8.29443 572.879 145.177 488.331 201.041C439.372 233.393 388.097 253.123 325.548 272.434C316.06 275.365 306.561 278.781 297.057 282.36C290.913 284.669 284.78 286.63 278.762 288.33C251.932 295.902 228.294 306.682 208.386 314.739C162.744 333.206 134.361 361.206 100.353 393.879C36.2622 455.451 -61.8749 518.298 -81.7932 603" stroke="url(#paint23_linear_1927_49691)" stroke-width="0.25" stroke-miterlimit="10"/>
<path d="M579.067 7.38379C579.067 7.38379 570.875 140.524 489.502 200.729C442.923 235.195 392.4 258.031 329.819 277.511C320.429 280.43 310.984 283.726 301.496 287.087C295.347 289.266 289.192 291.031 283.147 292.524C256.131 299.077 232.085 308.604 211.469 315.822C164.138 332.399 132.853 357.985 97.8363 389.401C32.2536 448.249 -59.2114 513.738 -76.7876 609.117" stroke="url(#paint24_linear_1927_49691)" stroke-width="0.25" stroke-miterlimit="10"/>
<path d="M577.318 6.4751C577.318 6.4751 568.81 135.84 490.679 200.42C446.441 236.983 396.676 262.82 334.099 282.583C324.802 285.481 315.417 288.646 305.94 291.817C299.786 293.848 293.615 295.445 287.531 296.719C260.341 302.308 235.87 310.523 214.552 316.907C165.538 331.588 131.344 354.778 95.3252 384.929C28.2556 441.076 -56.5482 509.19 -71.7715 615.235" stroke="url(#paint25_linear_1927_49691)" stroke-width="0.25" stroke-miterlimit="10"/>
<path d="M575.575 5.55908C575.575 5.55908 566.686 131.128 491.855 200.103C449.927 238.752 400.989 267.733 338.375 287.654C329.181 290.546 319.846 293.586 310.379 296.544C304.225 298.445 298.032 299.856 291.915 300.907C264.557 305.532 239.661 312.434 217.629 317.985C166.932 330.765 129.835 351.568 92.8035 380.451C24.2524 433.906 -53.8902 504.63 -66.7715 621.352" stroke="url(#paint26_linear_1927_49691)" stroke-width="0.25" stroke-miterlimit="10"/>
<path d="M573.827 4.65039C573.827 4.65039 564.481 126.411 493.032 199.799C453.37 240.535 405.303 272.658 342.656 292.732C333.56 295.619 324.285 298.533 314.83 301.279C308.669 303.049 302.46 304.275 296.306 305.108C268.778 308.769 243.457 314.353 220.718 319.076C168.337 329.949 128.337 348.388 90.2983 375.979C20.2712 426.771 -51.2157 500.077 -61.7549 627.471" stroke="url(#paint27_linear_1927_49691)" stroke-width="0.25" stroke-miterlimit="10"/>
<path d="M572.078 3.73438C572.078 3.73438 562.209 121.682 494.203 199.482C456.774 242.304 409.611 277.565 346.926 297.803C337.934 300.684 328.713 303.473 319.263 306.006C313.103 307.646 306.872 308.686 300.684 309.302C272.983 312.004 247.248 316.264 223.795 320.159C169.737 329.131 126.834 345.211 87.7762 371.506C16.2676 419.65 -48.558 495.528 -56.7498 633.593" stroke="url(#paint28_linear_1927_49691)" stroke-width="0.25" stroke-miterlimit="10"/>
<path d="M570.33 2.82471C570.33 2.82471 559.862 116.965 495.379 199.172C460.14 244.096 413.931 282.484 351.207 302.874C342.313 305.75 333.152 308.414 323.713 310.735C317.547 312.244 311.3 313.104 305.074 313.497C277.204 315.234 251.044 318.143 226.877 321.243C171.137 328.226 125.331 342.047 85.26 367.034C12.2753 412.547 -45.8946 490.974 -51.7388 639.71" stroke="url(#paint29_linear_1927_49691)" stroke-width="0.25" stroke-miterlimit="10"/>
<path d="M568.587 1.91504C568.587 1.91504 557.454 112.269 496.556 198.861C463.478 245.9 418.244 287.404 355.483 307.946C346.687 310.817 337.58 313.355 328.152 315.463C321.986 316.836 315.712 317.517 309.459 317.691C281.42 318.465 254.84 320.072 229.96 322.327C172.553 327.442 123.827 338.893 82.749 362.556C8.27196 405.466 -43.2312 486.414 -46.7334 645.828" stroke="url(#paint30_linear_1927_49691)" stroke-width="0.25" stroke-miterlimit="10"/>
<path d="M566.839 1C566.839 1 535.897 279.205 332.596 320.192C326.431 321.434 320.134 321.929 313.844 321.886C103.011 320.47 -39.6526 346.791 -41.7278 651.951" stroke="url(#paint31_linear_1927_49691)" stroke-width="0.25" stroke-miterlimit="10"/>
<path d="M563.353 1.80664C563.762 3.21208 558.457 52.3696 538.103 112.21C517.901 171.597 483.299 241.313 423.31 286.157C398.751 304.623 369.846 318.939 335.952 326.511C329.813 327.895 323.55 328.538 317.27 328.652C307.177 328.832 297.21 329.044 287.379 329.306C223.98 330.902 166.992 334.552 119.089 349.069C98.3865 355.421 79.3451 363.826 62.1229 374.955C19.9988 402.051 -11.4336 445.123 -29.4673 514.6C-39.293 552.449 -44.7179 598.185 -45.3987 652.251" stroke="url(#paint32_linear_1927_49691)" stroke-width="0.25" stroke-miterlimit="10"/>
<path d="M559.867 2.60693C560.69 5.42325 555.592 54.3465 536.43 113.772C517.057 173.863 484.012 244.113 425.521 290.378C401.442 309.428 372.95 324.555 339.301 332.819C333.195 334.339 326.954 335.134 320.69 335.406C310.63 335.831 300.657 336.262 290.794 336.697C227.395 339.318 169.879 342.058 121.513 355.485C100.685 361.265 81.54 369.18 64.0618 379.639C21.3004 405.237 -11.4718 446.196 -31.1777 514.659C-42.0383 552.388 -48.084 598.517 -49.0862 652.539" stroke="url(#paint33_linear_1927_49691)" stroke-width="0.25" stroke-miterlimit="10"/>
<path d="M556.387 3.40771C557.618 7.62947 552.748 56.3403 534.764 115.336C516.229 176.14 484.791 247.011 427.738 294.605C404.159 314.276 376.049 330.1 342.656 339.132C336.578 340.777 330.363 341.742 324.116 342.167C314.083 342.842 304.116 343.507 294.214 344.1C230.832 347.897 172.793 349.662 123.942 361.908C103.005 367.154 83.7186 374.524 66.0062 384.335C22.5694 408.391 -11.5373 447.285 -32.8825 514.735C-44.7889 552.355 -51.4501 598.86 -52.7627 652.844" stroke="url(#paint34_linear_1927_49691)" stroke-width="0.25" stroke-miterlimit="10"/>
<path d="M552.901 4.21387C554.546 9.84105 549.922 58.3503 533.092 116.905C515.407 178.433 485.57 249.92 429.949 298.832C406.872 319.124 379.149 335.706 346.006 345.446C339.96 347.222 333.767 348.344 327.531 348.927C317.526 349.847 307.558 350.735 297.624 351.498C234.247 356.362 175.707 357.267 126.366 368.325C105.32 373.043 85.8973 379.857 67.9452 389.02C23.8276 411.534 -11.6353 448.375 -34.5927 514.795C-47.5557 552.306 -54.816 599.192 -56.4446 653.133" stroke="url(#paint35_linear_1927_49691)" stroke-width="0.25" stroke-miterlimit="10"/>
<path d="M549.415 5.01465C551.468 12.0473 547.116 60.3659 531.419 118.468C514.6 180.738 486.349 252.834 432.155 303.059C409.584 323.978 382.242 341.306 349.35 351.759C343.331 353.671 337.171 354.946 330.946 355.692C320.973 356.858 311 357.969 301.033 358.901C237.667 364.833 178.62 364.882 128.784 374.748C107.634 378.937 88.0593 385.201 69.873 393.715C25.0746 414.683 -11.7717 449.47 -36.3088 514.866C-50.3447 552.274 -58.1878 599.535 -60.1377 653.438" stroke="url(#paint36_linear_1927_49691)" stroke-width="0.25" stroke-miterlimit="10"/>
<path d="M545.935 5.81543C548.402 14.2589 544.339 62.3978 529.753 120.032C513.805 183.053 487.138 255.754 434.372 307.287C412.307 328.837 385.347 346.911 352.705 358.073C346.719 360.121 340.581 361.548 334.372 362.453C324.426 363.869 314.453 365.198 304.453 366.299C241.098 373.288 181.551 372.498 131.218 381.17C109.96 384.831 90.2435 390.54 71.823 398.406C26.3383 417.826 -11.9187 450.57 -38.008 514.931C-53.1332 552.235 -61.5482 599.873 -63.8086 653.732" stroke="url(#paint37_linear_1927_49691)" stroke-width="0.25" stroke-miterlimit="10"/>
<path d="M542.449 6.62158C545.325 16.4705 541.572 64.446 528.08 121.6C513.026 185.384 487.923 258.69 436.583 311.514C415.02 333.696 388.451 352.522 356.055 364.386C350.096 366.571 343.985 368.151 337.792 369.213C327.874 370.874 317.901 372.421 307.863 373.702C244.524 381.747 184.475 380.119 133.637 387.592C112.28 390.73 92.4111 395.878 73.7565 403.096C27.5801 420.969 -12.1094 451.66 -39.7237 515.002C-55.9492 552.208 -64.9198 600.211 -67.5015 654.031" stroke="url(#paint38_linear_1927_49691)" stroke-width="0.25" stroke-miterlimit="10"/>
<path d="M538.963 7.42285C542.253 18.6772 538.832 66.4947 526.414 123.164C512.264 187.722 488.718 261.632 438.8 315.741C417.749 338.561 391.556 358.133 359.415 370.701C353.49 373.021 347.4 374.759 341.224 375.974C331.338 377.88 321.365 379.651 311.289 381.1C247.961 390.202 187.417 387.746 136.072 394.01C114.612 396.63 94.5902 401.212 75.7067 407.787C28.8386 424.102 -12.3051 452.755 -41.4227 515.068C-58.7593 552.176 -68.28 600.549 -71.1721 654.326" stroke="url(#paint39_linear_1927_49691)" stroke-width="0.25" stroke-miterlimit="10"/>
<path d="M535.483 8.22314C539.181 20.883 536.115 68.5533 524.748 124.727C511.523 190.064 489.519 264.579 441.017 319.968C420.472 343.43 394.661 363.744 362.771 377.014C356.872 379.47 350.815 381.361 344.644 382.733C334.786 384.891 324.813 386.879 314.704 388.497C251.387 398.645 190.353 395.377 138.501 400.427C116.943 402.529 96.7633 406.544 77.6511 412.471C30.0858 427.233 -12.5394 453.833 -43.1221 515.128C-61.5861 552.132 -71.6351 600.881 -74.8486 654.62" stroke="url(#paint40_linear_1927_49691)" stroke-width="0.25" stroke-miterlimit="10"/>
<path d="M531.997 9.02979C536.109 23.1005 533.419 70.6292 523.076 126.296C510.788 192.428 490.32 267.537 443.228 324.196C423.195 348.301 397.765 369.355 366.12 383.328C360.249 385.921 354.22 387.963 348.065 389.494C338.239 391.896 328.261 394.103 318.119 395.895C254.813 407.089 193.294 403.015 140.925 406.844C119.263 408.429 98.9258 411.872 79.5903 417.162C31.3224 430.361 -12.8061 454.918 -44.8377 515.193C-64.4455 552.094 -75.0119 601.219 -78.5359 654.914" stroke="url(#paint41_linear_1927_49691)" stroke-width="0.25" stroke-miterlimit="10"/>
<path d="M528.511 9.83008C533.032 25.3062 530.739 72.7042 521.403 127.859C510.074 194.786 491.12 270.495 445.439 328.423C425.918 353.176 400.864 374.971 369.47 389.641C363.631 392.37 357.629 394.582 351.485 396.254C341.692 398.923 331.714 401.325 321.534 403.297C258.244 415.532 196.229 410.662 143.353 413.272C121.594 414.345 101.099 417.21 81.5289 421.857C32.5584 433.492 -13.0951 455.996 -46.5428 515.269C-67.3052 552.067 -78.3728 601.562 -82.2126 655.219" stroke="url(#paint42_linear_1927_49691)" stroke-width="0.25" stroke-miterlimit="10"/>
<path d="M525.031 10.6313C529.965 27.5129 528.081 74.7856 519.737 129.423C509.388 197.162 491.937 273.464 447.651 332.645C428.647 358.046 403.969 380.588 372.82 395.949C367.008 398.815 361.033 401.179 354.906 403.009C345.145 405.929 335.162 408.549 324.949 410.69C261.67 423.965 199.171 418.311 145.777 419.684C123.92 420.245 103.261 422.527 83.4681 426.537C33.7949 436.598 -13.4109 457.048 -48.2529 515.324C-70.1864 552.007 -81.7387 601.889 -85.8999 655.508" stroke="url(#paint43_linear_1927_49691)" stroke-width="0.25" stroke-miterlimit="10"/>
<path d="M521.545 11.437C526.888 29.724 525.444 76.8823 518.064 130.992C508.718 199.542 492.754 276.438 449.862 336.877C431.376 362.927 407.068 386.209 376.169 402.268C370.39 405.269 364.437 407.786 358.326 409.774C348.593 412.939 338.609 415.777 328.364 418.093C265.096 432.397 202.112 425.97 148.206 426.106C126.251 426.16 105.429 427.86 85.4124 431.232C35.0312 439.724 -13.7378 458.109 -49.9524 515.394C-73.0678 551.957 -85.0994 602.232 -89.571 655.807" stroke="url(#paint44_linear_1927_49691)" stroke-width="0.25" stroke-miterlimit="10"/>
<path d="M518.059 12.2383C523.816 31.9362 522.824 78.9746 516.392 132.555C508.07 201.923 493.576 279.418 452.073 341.105C434.105 367.808 410.172 391.836 379.519 408.582C373.772 411.725 367.847 414.389 361.741 416.535C352.04 419.945 342.051 423.001 331.774 425.491C268.517 440.825 205.047 433.635 150.625 432.523C128.571 432.077 107.585 433.182 87.3458 435.917C36.2566 442.83 -14.1028 459.145 -51.6681 515.455C-75.9764 551.893 -88.4709 602.559 -93.2639 656.096" stroke="url(#paint45_linear_1927_49691)" stroke-width="0.25" stroke-miterlimit="10"/>
<path d="M514.579 13.0386C520.744 34.1419 520.227 81.066 514.726 134.118C507.449 204.308 494.41 282.397 454.29 345.326C436.845 372.688 413.283 397.452 382.874 414.889C377.155 418.169 371.257 420.991 365.167 423.289C355.494 426.95 345.51 430.219 335.195 432.888C271.943 449.252 207.989 441.304 153.054 438.945C130.903 437.992 109.759 438.504 89.2907 440.612C37.4934 445.94 -14.4727 460.179 -53.3725 515.531C-78.8899 551.838 -91.8365 602.907 -96.9399 656.401" stroke="url(#paint46_linear_1927_49691)" stroke-width="0.25" stroke-miterlimit="10"/>
<path d="M511.093 13.8452C517.672 36.354 517.645 83.1691 513.054 135.682C506.844 206.7 495.249 285.383 456.501 349.553C439.584 377.57 416.387 403.08 386.224 421.203C380.537 424.619 374.661 427.593 368.588 430.056C358.942 433.961 348.958 437.448 338.609 440.291C275.369 457.679 210.93 448.985 155.483 445.368C133.234 443.919 111.927 443.827 91.2296 445.303C38.7297 449.045 -14.8651 461.198 -55.0829 515.596C-81.8203 551.762 -95.2026 603.245 -100.627 656.701" stroke="url(#paint47_linear_1927_49691)" stroke-width="0.25" stroke-miterlimit="10"/>
<path d="M507.607 14.646C514.595 38.5602 515.085 85.2718 511.382 137.246C506.267 209.086 496.087 288.374 458.713 353.781C442.324 382.456 419.497 408.707 389.579 427.517C383.92 431.074 378.076 434.196 372.014 436.816C362.4 440.967 352.411 444.666 342.024 447.689C278.795 466.096 213.871 456.666 157.907 451.785C135.56 449.835 114.089 449.143 93.1686 449.993C39.9606 452.139 -15.2735 462.201 -56.793 515.662C-84.7614 551.675 -98.574 603.583 -104.309 656.995" stroke="url(#paint48_linear_1927_49691)" stroke-width="0.25" stroke-miterlimit="10"/>
<path d="M504.126 15.4463C511.528 40.7714 512.541 87.3686 509.72 138.809C505.728 211.483 496.948 291.364 460.935 358.002C445.079 387.336 422.612 414.328 392.939 433.825C387.313 437.518 381.485 440.781 375.445 443.57C365.853 447.95 355.869 451.883 345.45 455.081C282.226 474.506 216.817 464.347 160.347 458.196C137.901 455.751 116.267 454.454 95.1235 454.672C41.2075 455.222 -15.677 463.175 -58.4819 515.716C-87.6921 551.565 -101.919 603.904 -107.975 657.278" stroke="url(#paint49_linear_1927_49691)" stroke-width="0.25" stroke-miterlimit="10"/>
<path d="M500.641 16.2476C508.451 42.9781 510.014 89.4664 508.048 140.373C505.205 213.875 497.803 294.36 463.146 362.23C447.825 392.229 425.723 419.956 396.289 440.139C390.695 443.974 384.889 447.384 378.86 450.331C369.296 454.956 359.312 459.101 348.86 462.484C285.641 482.923 219.748 472.044 162.765 464.625C140.216 461.689 118.424 459.782 97.0574 459.368C42.4388 458.322 -16.1178 464.156 -60.1973 515.793C-90.6548 551.468 -105.295 604.253 -111.662 657.583" stroke="url(#paint50_linear_1927_49691)" stroke-width="0.25" stroke-miterlimit="10"/>
<path d="M497.155 17.0542C505.379 45.1901 507.503 91.5695 506.376 141.942C504.709 216.266 498.669 297.362 465.352 366.457C450.57 397.115 428.827 425.589 399.633 446.453C394.072 450.429 388.288 453.987 382.275 457.092C372.743 461.967 362.754 466.325 352.269 469.882C289.05 491.334 222.678 479.742 165.189 471.042C142.542 467.616 120.592 465.094 98.9962 464.059C43.6695 461.406 -16.5592 465.116 -61.9077 515.858C-93.6234 551.348 -108.661 604.591 -115.344 657.884" stroke="url(#paint51_linear_1927_49691)" stroke-width="0.25" stroke-miterlimit="10"/>
<path d="M493.674 17.8545C502.307 47.3959 505.014 93.6663 504.709 143.505C504.246 218.652 499.546 300.358 467.569 370.684C453.331 402.001 431.948 431.221 402.988 452.766C397.46 456.879 391.703 460.594 385.701 463.851C376.196 468.972 366.207 473.542 355.69 477.279C292.476 499.739 225.614 487.444 167.618 477.459C144.868 473.542 122.76 470.405 100.935 468.743C44.9059 464.483 -17.0112 466.052 -63.6179 515.918C-96.6026 551.212 -112.027 604.923 -119.032 658.172" stroke="url(#paint52_linear_1927_49691)" stroke-width="0.25" stroke-miterlimit="10"/>
<path d="M490.188 18.6548C499.235 49.607 502.536 95.7576 503.037 145.068C503.81 221.037 500.417 303.353 469.78 374.911C456.087 406.893 435.058 436.853 406.338 459.079C400.837 463.333 395.107 467.196 389.121 470.611C379.644 475.977 369.655 480.765 359.105 484.676C295.891 508.138 228.544 495.152 170.042 483.876C147.193 479.474 124.928 475.71 102.874 473.433C46.1477 467.566 -17.4742 466.978 -65.3227 515.983C-99.5819 551.07 -115.393 605.255 -122.708 658.465" stroke="url(#paint53_linear_1927_49691)" stroke-width="0.25" stroke-miterlimit="10"/>
<path d="M486.703 19.4614C496.158 51.8191 500.069 97.8498 501.365 146.637C503.402 223.418 501.305 306.355 471.991 379.138C458.843 411.785 438.173 442.486 409.688 465.393C404.219 469.789 398.511 473.798 392.542 477.372C383.097 482.988 373.103 487.983 362.52 492.08C299.306 516.55 231.469 502.871 172.471 490.304C149.519 485.412 127.101 481.032 104.819 478.129C47.3896 470.65 -17.9371 467.893 -67.0275 516.059C-102.567 550.923 -118.754 605.604 -126.39 658.771" stroke="url(#paint54_linear_1927_49691)" stroke-width="0.25" stroke-miterlimit="10"/>
<path d="M483.222 20.2622C493.092 54.0253 497.629 99.9362 499.698 148.2C503.032 225.788 502.198 309.351 474.208 383.366C461.61 416.671 441.294 448.125 413.043 471.706C407.607 476.244 401.921 480.401 395.962 484.132C386.545 489.993 376.55 495.201 365.935 499.477C302.716 524.944 234.394 510.585 174.895 496.721C151.834 491.35 129.269 486.338 106.758 482.814C48.6369 473.717 -18.4055 468.787 -68.7377 516.119C-105.562 550.749 -122.125 605.936 -130.072 659.065" stroke="url(#paint55_linear_1927_49691)" stroke-width="0.25" stroke-miterlimit="10"/>
<path d="M479.736 21.063C490.014 56.2315 495.188 102.012 498.026 149.764C502.683 228.152 503.092 312.348 476.419 387.593C464.377 421.563 444.415 453.757 416.398 478.02C410.995 482.694 405.336 487.008 399.388 490.892C389.998 497.004 379.998 502.419 369.355 506.875C306.136 533.344 237.318 518.304 177.329 503.138C154.165 497.282 131.447 491.644 108.708 487.504C49.8896 476.789 -18.874 469.669 -70.4371 516.185C-108.552 550.569 -125.481 606.274 -133.749 659.359" stroke="url(#paint56_linear_1927_49691)" stroke-width="0.25" stroke-miterlimit="10"/>
<path d="M476.251 21.8691C486.943 58.4486 492.765 104.087 496.354 151.333C502.373 230.511 503.991 315.349 478.631 391.82C467.144 426.449 447.531 459.395 419.748 484.334C414.383 489.149 408.74 493.61 402.809 497.652C393.452 504.01 383.446 509.637 372.771 514.273C309.546 541.738 240.238 526.028 179.754 509.555C156.48 503.214 133.615 496.95 110.641 492.189C51.1317 479.856 -19.353 470.53 -72.147 516.244C-111.553 550.373 -128.852 606.601 -137.43 659.648" stroke="url(#paint57_linear_1927_49691)" stroke-width="0.25" stroke-miterlimit="10"/>
<path d="M472.765 22.6699C483.865 60.6548 490.352 106.152 494.682 152.896C502.089 232.853 504.9 318.345 480.837 396.047C469.911 431.341 450.646 465.033 423.091 490.647C417.759 495.604 412.138 500.213 406.223 504.418C396.893 511.02 386.888 516.86 376.18 521.681C312.945 550.144 243.146 533.769 182.171 515.983C158.794 509.163 135.777 502.266 112.574 496.89C52.3785 482.928 -19.8327 471.39 -73.8577 516.321C-114.566 550.177 -132.218 606.95 -141.113 659.953" stroke="url(#paint58_linear_1927_49691)" stroke-width="0.25" stroke-miterlimit="10"/>
<path d="M469.285 23.4707C480.799 62.861 487.956 108.211 493.021 154.459C501.85 235.179 505.821 321.336 483.059 400.269C472.694 436.222 453.827 470.715 426.453 496.955C421.164 502.065 415.554 506.81 409.655 511.173C400.358 518.026 390.336 524.051 379.601 529.073C316.306 558.413 246.066 541.493 184.607 522.4C161.121 515.101 137.962 507.572 114.525 501.575C53.6372 485.995 -20.3061 472.224 -75.562 516.386C-117.566 549.959 -135.578 607.287 -144.794 660.253" stroke="url(#paint59_linear_1927_49691)" stroke-width="0.25" stroke-miterlimit="10"/>
<path d="M465.799 24.2773C477.721 65.0731 485.57 110.265 491.349 156.029C501.638 237.5 506.736 324.332 485.27 404.502C475.466 441.114 456.932 476.343 429.802 503.275C424.541 508.52 418.963 513.423 413.07 517.939C403.8 525.037 393.778 531.28 383.01 536.477C319.721 566.846 248.969 549.235 187.025 528.823C163.424 521.044 140.135 512.851 116.458 506.271C54.9061 488.981 -20.791 473.058 -77.2778 516.457C-120.589 549.736 -138.955 607.631 -148.481 660.553" stroke="url(#paint60_linear_1927_49691)" stroke-width="0.25" stroke-miterlimit="10"/>
<path d="M462.313 25.0776C474.65 67.2843 483.19 112.302 489.677 157.592C501.452 239.804 507.738 327.339 487.482 408.729C478.282 446.011 460.042 481.964 433.152 509.588C427.923 514.97 422.367 520.025 416.491 524.699C407.248 532.042 397.226 538.503 386.425 543.874C323.136 575.273 251.85 557.035 189.454 535.24C165.734 527.014 142.308 518.167 118.403 510.955C56.1588 492.08 -21.2594 473.864 -78.9772 516.522C-123.59 549.496 -142.31 607.963 -152.158 660.846" stroke="url(#paint61_linear_1927_49691)" stroke-width="0.25" stroke-miterlimit="10"/>
<path d="M458.832 25.8779C471.577 69.49 480.82 114.328 488.01 159.155C501.305 242.086 508.587 330.302 489.698 412.95C476.681 469.903 442.917 524.077 389.845 551.265C326.561 583.689 254.78 564.704 191.883 541.651C168.059 532.919 144.481 523.484 120.341 515.634C57.4058 495.173 -21.7335 474.653 -80.6877 516.576C-126.608 549.228 -145.682 608.289 -155.84 661.134" stroke="url(#paint62_linear_1927_49691)" stroke-width="0.25" stroke-miterlimit="10"/>
<defs>
<linearGradient id="paint0_linear_1927_49691" x1="212" y1="29.2666" x2="212" y2="587.575" gradientUnits="userSpaceOnUse">
<stop stop-color="#FDFCFB" stop-opacity="0.5"/>
<stop offset="1" stop-color="#68ACFD" stop-opacity="0.36"/>
</linearGradient>
<linearGradient id="paint1_linear_1927_49691" x1="213.634" y1="28.3516" x2="213.634" y2="583.126" gradientUnits="userSpaceOnUse">
<stop stop-color="#FDFCFB" stop-opacity="0.5"/>
<stop offset="1" stop-color="#68ACFD" stop-opacity="0.36"/>
</linearGradient>
<linearGradient id="paint2_linear_1927_49691" x1="215.26" y1="27.4419" x2="215.26" y2="578.735" gradientUnits="userSpaceOnUse">
<stop stop-color="#FDFCFB" stop-opacity="0.5"/>
<stop offset="1" stop-color="#68ACFD" stop-opacity="0.36"/>
</linearGradient>
<linearGradient id="paint3_linear_1927_49691" x1="216.897" y1="26.5322" x2="216.897" y2="574.492" gradientUnits="userSpaceOnUse">
<stop stop-color="#FDFCFB" stop-opacity="0.5"/>
<stop offset="1" stop-color="#68ACFD" stop-opacity="0.36"/>
</linearGradient>
<linearGradient id="paint4_linear_1927_49691" x1="218.528" y1="25.6172" x2="218.528" y2="570.38" gradientUnits="userSpaceOnUse">
<stop stop-color="#FDFCFB" stop-opacity="0.5"/>
<stop offset="1" stop-color="#68ACFD" stop-opacity="0.36"/>
</linearGradient>
<linearGradient id="paint5_linear_1927_49691" x1="220.159" y1="24.7075" x2="220.159" y2="566.44" gradientUnits="userSpaceOnUse">
<stop stop-color="#FDFCFB" stop-opacity="0.5"/>
<stop offset="1" stop-color="#68ACFD" stop-opacity="0.36"/>
</linearGradient>
<linearGradient id="paint6_linear_1927_49691" x1="221.785" y1="23.7979" x2="221.785" y2="562.691" gradientUnits="userSpaceOnUse">
<stop stop-color="#FDFCFB" stop-opacity="0.5"/>
<stop offset="1" stop-color="#68ACFD" stop-opacity="0.36"/>
</linearGradient>
<linearGradient id="paint7_linear_1927_49691" x1="223.416" y1="22.8828" x2="223.416" y2="559.188" gradientUnits="userSpaceOnUse">
<stop stop-color="#FDFCFB" stop-opacity="0.5"/>
<stop offset="1" stop-color="#68ACFD" stop-opacity="0.36"/>
</linearGradient>
<linearGradient id="paint8_linear_1927_49691" x1="225.05" y1="21.9727" x2="225.05" y2="555.98" gradientUnits="userSpaceOnUse">
<stop stop-color="#FDFCFB" stop-opacity="0.5"/>
<stop offset="1" stop-color="#68ACFD" stop-opacity="0.36"/>
</linearGradient>
<linearGradient id="paint9_linear_1927_49691" x1="226.681" y1="21.0576" x2="226.681" y2="553.133" gradientUnits="userSpaceOnUse">
<stop stop-color="#FDFCFB" stop-opacity="0.5"/>
<stop offset="1" stop-color="#68ACFD" stop-opacity="0.36"/>
</linearGradient>
<linearGradient id="paint10_linear_1927_49691" x1="228.31" y1="20.1475" x2="228.31" y2="550.755" gradientUnits="userSpaceOnUse">
<stop stop-color="#FDFCFB" stop-opacity="0.5"/>
<stop offset="1" stop-color="#68ACFD" stop-opacity="0.36"/>
</linearGradient>
<linearGradient id="paint11_linear_1927_49691" x1="229.939" y1="19.2378" x2="229.939" y2="548.982" gradientUnits="userSpaceOnUse">
<stop stop-color="#FDFCFB" stop-opacity="0.5"/>
<stop offset="1" stop-color="#68ACFD" stop-opacity="0.36"/>
</linearGradient>
<linearGradient id="paint12_linear_1927_49691" x1="231.572" y1="18.3232" x2="231.572" y2="548.003" gradientUnits="userSpaceOnUse">
<stop stop-color="#FDFCFB" stop-opacity="0.5"/>
<stop offset="1" stop-color="#68ACFD" stop-opacity="0.36"/>
</linearGradient>
<linearGradient id="paint13_linear_1927_49691" x1="233.204" y1="17.4131" x2="233.204" y2="548.142" gradientUnits="userSpaceOnUse">
<stop stop-color="#FDFCFB" stop-opacity="0.5"/>
<stop offset="1" stop-color="#68ACFD" stop-opacity="0.36"/>
</linearGradient>
<linearGradient id="paint14_linear_1927_49691" x1="234.835" y1="16.5039" x2="234.835" y2="549.882" gradientUnits="userSpaceOnUse">
<stop stop-color="#FDFCFB" stop-opacity="0.5"/>
<stop offset="1" stop-color="#68ACFD" stop-opacity="0.36"/>
</linearGradient>
<linearGradient id="paint15_linear_1927_49691" x1="236.463" y1="15.5884" x2="236.463" y2="554.053" gradientUnits="userSpaceOnUse">
<stop stop-color="#FDFCFB" stop-opacity="0.5"/>
<stop offset="1" stop-color="#68ACFD" stop-opacity="0.36"/>
</linearGradient>
<linearGradient id="paint16_linear_1927_49691" x1="238.087" y1="14.6782" x2="238.087" y2="560.172" gradientUnits="userSpaceOnUse">
<stop stop-color="#FDFCFB" stop-opacity="0.5"/>
<stop offset="1" stop-color="#68ACFD" stop-opacity="0.36"/>
</linearGradient>
<linearGradient id="paint17_linear_1927_49691" x1="239.731" y1="13.7686" x2="239.731" y2="566.284" gradientUnits="userSpaceOnUse">
<stop stop-color="#FDFCFB" stop-opacity="0.5"/>
<stop offset="1" stop-color="#68ACFD" stop-opacity="0.36"/>
</linearGradient>
<linearGradient id="paint18_linear_1927_49691" x1="241.355" y1="12.8535" x2="241.355" y2="572.402" gradientUnits="userSpaceOnUse">
<stop stop-color="#FDFCFB" stop-opacity="0.5"/>
<stop offset="1" stop-color="#68ACFD" stop-opacity="0.36"/>
</linearGradient>
<linearGradient id="paint19_linear_1927_49691" x1="242.989" y1="11.9438" x2="242.989" y2="578.525" gradientUnits="userSpaceOnUse">
<stop stop-color="#FDFCFB" stop-opacity="0.5"/>
<stop offset="1" stop-color="#68ACFD" stop-opacity="0.36"/>
</linearGradient>
<linearGradient id="paint20_linear_1927_49691" x1="244.617" y1="11.0288" x2="244.617" y2="584.642" gradientUnits="userSpaceOnUse">
<stop stop-color="#FDFCFB" stop-opacity="0.5"/>
<stop offset="1" stop-color="#68ACFD" stop-opacity="0.36"/>
</linearGradient>
<linearGradient id="paint21_linear_1927_49691" x1="246.251" y1="10.1191" x2="246.251" y2="590.76" gradientUnits="userSpaceOnUse">
<stop stop-color="#FDFCFB" stop-opacity="0.5"/>
<stop offset="1" stop-color="#68ACFD" stop-opacity="0.36"/>
</linearGradient>
<linearGradient id="paint22_linear_1927_49691" x1="247.88" y1="9.20947" x2="247.88" y2="596.883" gradientUnits="userSpaceOnUse">
<stop stop-color="#FDFCFB" stop-opacity="0.5"/>
<stop offset="1" stop-color="#68ACFD" stop-opacity="0.36"/>
</linearGradient>
<linearGradient id="paint23_linear_1927_49691" x1="249.511" y1="8.29443" x2="249.511" y2="603" gradientUnits="userSpaceOnUse">
<stop stop-color="#FDFCFB" stop-opacity="0.5"/>
<stop offset="1" stop-color="#68ACFD" stop-opacity="0.36"/>
</linearGradient>
<linearGradient id="paint24_linear_1927_49691" x1="251.14" y1="7.38379" x2="251.14" y2="609.117" gradientUnits="userSpaceOnUse">
<stop stop-color="#FDFCFB" stop-opacity="0.5"/>
<stop offset="1" stop-color="#68ACFD" stop-opacity="0.36"/>
</linearGradient>
<linearGradient id="paint25_linear_1927_49691" x1="252.773" y1="6.4751" x2="252.773" y2="615.235" gradientUnits="userSpaceOnUse">
<stop stop-color="#FDFCFB" stop-opacity="0.5"/>
<stop offset="1" stop-color="#68ACFD" stop-opacity="0.36"/>
</linearGradient>
<linearGradient id="paint26_linear_1927_49691" x1="254.402" y1="5.55908" x2="254.402" y2="621.352" gradientUnits="userSpaceOnUse">
<stop stop-color="#FDFCFB" stop-opacity="0.5"/>
<stop offset="1" stop-color="#68ACFD" stop-opacity="0.36"/>
</linearGradient>
<linearGradient id="paint27_linear_1927_49691" x1="256.036" y1="4.65039" x2="256.036" y2="627.471" gradientUnits="userSpaceOnUse">
<stop stop-color="#FDFCFB" stop-opacity="0.5"/>
<stop offset="1" stop-color="#68ACFD" stop-opacity="0.36"/>
</linearGradient>
<linearGradient id="paint28_linear_1927_49691" x1="257.664" y1="3.73437" x2="257.664" y2="633.593" gradientUnits="userSpaceOnUse">
<stop stop-color="#FDFCFB" stop-opacity="0.5"/>
<stop offset="1" stop-color="#68ACFD" stop-opacity="0.36"/>
</linearGradient>
<linearGradient id="paint29_linear_1927_49691" x1="259.296" y1="2.82471" x2="259.296" y2="639.71" gradientUnits="userSpaceOnUse">
<stop stop-color="#FDFCFB" stop-opacity="0.5"/>
<stop offset="1" stop-color="#68ACFD" stop-opacity="0.36"/>
</linearGradient>
<linearGradient id="paint30_linear_1927_49691" x1="260.927" y1="1.91504" x2="260.927" y2="645.828" gradientUnits="userSpaceOnUse">
<stop stop-color="#FDFCFB" stop-opacity="0.5"/>
<stop offset="1" stop-color="#68ACFD" stop-opacity="0.36"/>
</linearGradient>
<linearGradient id="paint31_linear_1927_49691" x1="262.556" y1="1" x2="262.556" y2="651.951" gradientUnits="userSpaceOnUse">
<stop stop-color="#FDFCFB" stop-opacity="0.5"/>
<stop offset="1" stop-color="#68ACFD" stop-opacity="0.36"/>
</linearGradient>
<linearGradient id="paint32_linear_1927_49691" x1="258.988" y1="1.80664" x2="258.988" y2="652.251" gradientUnits="userSpaceOnUse">
<stop stop-color="#FDFCFB" stop-opacity="0.5"/>
<stop offset="1" stop-color="#68ACFD" stop-opacity="0.36"/>
</linearGradient>
<linearGradient id="paint33_linear_1927_49691" x1="255.432" y1="2.60693" x2="255.432" y2="652.539" gradientUnits="userSpaceOnUse">
<stop stop-color="#FDFCFB" stop-opacity="0.5"/>
<stop offset="1" stop-color="#68ACFD" stop-opacity="0.36"/>
</linearGradient>
<linearGradient id="paint34_linear_1927_49691" x1="251.902" y1="3.40771" x2="251.902" y2="652.844" gradientUnits="userSpaceOnUse">
<stop stop-color="#FDFCFB" stop-opacity="0.5"/>
<stop offset="1" stop-color="#68ACFD" stop-opacity="0.36"/>
</linearGradient>
<linearGradient id="paint35_linear_1927_49691" x1="248.384" y1="4.21387" x2="248.384" y2="653.133" gradientUnits="userSpaceOnUse">
<stop stop-color="#FDFCFB" stop-opacity="0.5"/>
<stop offset="1" stop-color="#68ACFD" stop-opacity="0.36"/>
</linearGradient>
<linearGradient id="paint36_linear_1927_49691" x1="244.876" y1="5.01465" x2="244.876" y2="653.438" gradientUnits="userSpaceOnUse">
<stop stop-color="#FDFCFB" stop-opacity="0.5"/>
<stop offset="1" stop-color="#68ACFD" stop-opacity="0.36"/>
</linearGradient>
<linearGradient id="paint37_linear_1927_49691" x1="241.4" y1="5.81543" x2="241.4" y2="653.732" gradientUnits="userSpaceOnUse">
<stop stop-color="#FDFCFB" stop-opacity="0.5"/>
<stop offset="1" stop-color="#68ACFD" stop-opacity="0.36"/>
</linearGradient>
<linearGradient id="paint38_linear_1927_49691" x1="237.927" y1="6.62158" x2="237.927" y2="654.031" gradientUnits="userSpaceOnUse">
<stop stop-color="#FDFCFB" stop-opacity="0.5"/>
<stop offset="1" stop-color="#68ACFD" stop-opacity="0.36"/>
</linearGradient>
<linearGradient id="paint39_linear_1927_49691" x1="234.484" y1="7.42285" x2="234.484" y2="654.326" gradientUnits="userSpaceOnUse">
<stop stop-color="#FDFCFB" stop-opacity="0.5"/>
<stop offset="1" stop-color="#68ACFD" stop-opacity="0.36"/>
</linearGradient>
<linearGradient id="paint40_linear_1927_49691" x1="231.06" y1="8.22314" x2="231.06" y2="654.62" gradientUnits="userSpaceOnUse">
<stop stop-color="#FDFCFB" stop-opacity="0.5"/>
<stop offset="1" stop-color="#68ACFD" stop-opacity="0.36"/>
</linearGradient>
<linearGradient id="paint41_linear_1927_49691" x1="227.651" y1="9.02979" x2="227.651" y2="654.914" gradientUnits="userSpaceOnUse">
<stop stop-color="#FDFCFB" stop-opacity="0.5"/>
<stop offset="1" stop-color="#68ACFD" stop-opacity="0.36"/>
</linearGradient>
<linearGradient id="paint42_linear_1927_49691" x1="224.27" y1="9.83008" x2="224.27" y2="655.219" gradientUnits="userSpaceOnUse">
<stop stop-color="#FDFCFB" stop-opacity="0.5"/>
<stop offset="1" stop-color="#68ACFD" stop-opacity="0.36"/>
</linearGradient>
<linearGradient id="paint43_linear_1927_49691" x1="220.913" y1="10.6313" x2="220.913" y2="655.508" gradientUnits="userSpaceOnUse">
<stop stop-color="#FDFCFB" stop-opacity="0.5"/>
<stop offset="1" stop-color="#68ACFD" stop-opacity="0.36"/>
</linearGradient>
<linearGradient id="paint44_linear_1927_49691" x1="217.591" y1="11.437" x2="217.591" y2="655.807" gradientUnits="userSpaceOnUse">
<stop stop-color="#FDFCFB" stop-opacity="0.5"/>
<stop offset="1" stop-color="#68ACFD" stop-opacity="0.36"/>
</linearGradient>
<linearGradient id="paint45_linear_1927_49691" x1="214.293" y1="12.2383" x2="214.293" y2="656.096" gradientUnits="userSpaceOnUse">
<stop stop-color="#FDFCFB" stop-opacity="0.5"/>
<stop offset="1" stop-color="#68ACFD" stop-opacity="0.36"/>
</linearGradient>
<linearGradient id="paint46_linear_1927_49691" x1="211.044" y1="13.0386" x2="211.044" y2="656.401" gradientUnits="userSpaceOnUse">
<stop stop-color="#FDFCFB" stop-opacity="0.5"/>
<stop offset="1" stop-color="#68ACFD" stop-opacity="0.36"/>
</linearGradient>
<linearGradient id="paint47_linear_1927_49691" x1="207.833" y1="13.8452" x2="207.833" y2="656.701" gradientUnits="userSpaceOnUse">
<stop stop-color="#FDFCFB" stop-opacity="0.5"/>
<stop offset="1" stop-color="#68ACFD" stop-opacity="0.36"/>
</linearGradient>
<linearGradient id="paint48_linear_1927_49691" x1="204.678" y1="14.646" x2="204.678" y2="656.995" gradientUnits="userSpaceOnUse">
<stop stop-color="#FDFCFB" stop-opacity="0.5"/>
<stop offset="1" stop-color="#68ACFD" stop-opacity="0.36"/>
</linearGradient>
<linearGradient id="paint49_linear_1927_49691" x1="201.597" y1="15.4463" x2="201.597" y2="657.278" gradientUnits="userSpaceOnUse">
<stop stop-color="#FDFCFB" stop-opacity="0.5"/>
<stop offset="1" stop-color="#68ACFD" stop-opacity="0.36"/>
</linearGradient>
<linearGradient id="paint50_linear_1927_49691" x1="198.578" y1="16.2476" x2="198.578" y2="657.583" gradientUnits="userSpaceOnUse">
<stop stop-color="#FDFCFB" stop-opacity="0.5"/>
<stop offset="1" stop-color="#68ACFD" stop-opacity="0.36"/>
</linearGradient>
<linearGradient id="paint51_linear_1927_49691" x1="195.656" y1="17.0542" x2="195.656" y2="657.884" gradientUnits="userSpaceOnUse">
<stop stop-color="#FDFCFB" stop-opacity="0.5"/>
<stop offset="1" stop-color="#68ACFD" stop-opacity="0.36"/>
</linearGradient>
<linearGradient id="paint52_linear_1927_49691" x1="192.85" y1="17.8545" x2="192.85" y2="658.172" gradientUnits="userSpaceOnUse">
<stop stop-color="#FDFCFB" stop-opacity="0.5"/>
<stop offset="1" stop-color="#68ACFD" stop-opacity="0.36"/>
</linearGradient>
<linearGradient id="paint53_linear_1927_49691" x1="190.211" y1="18.6548" x2="190.211" y2="658.465" gradientUnits="userSpaceOnUse">
<stop stop-color="#FDFCFB" stop-opacity="0.5"/>
<stop offset="1" stop-color="#68ACFD" stop-opacity="0.36"/>
</linearGradient>
<linearGradient id="paint54_linear_1927_49691" x1="187.771" y1="19.4614" x2="187.771" y2="658.771" gradientUnits="userSpaceOnUse">
<stop stop-color="#FDFCFB" stop-opacity="0.5"/>
<stop offset="1" stop-color="#68ACFD" stop-opacity="0.36"/>
</linearGradient>
<linearGradient id="paint55_linear_1927_49691" x1="185.494" y1="20.2622" x2="185.494" y2="659.065" gradientUnits="userSpaceOnUse">
<stop stop-color="#FDFCFB" stop-opacity="0.5"/>
<stop offset="1" stop-color="#68ACFD" stop-opacity="0.36"/>
</linearGradient>
<linearGradient id="paint56_linear_1927_49691" x1="183.353" y1="21.063" x2="183.353" y2="659.359" gradientUnits="userSpaceOnUse">
<stop stop-color="#FDFCFB" stop-opacity="0.5"/>
<stop offset="1" stop-color="#68ACFD" stop-opacity="0.36"/>
</linearGradient>
<linearGradient id="paint57_linear_1927_49691" x1="181.33" y1="21.8691" x2="181.33" y2="659.648" gradientUnits="userSpaceOnUse">
<stop stop-color="#FDFCFB" stop-opacity="0.5"/>
<stop offset="1" stop-color="#68ACFD" stop-opacity="0.36"/>
</linearGradient>
<linearGradient id="paint58_linear_1927_49691" x1="179.414" y1="22.6699" x2="179.414" y2="659.953" gradientUnits="userSpaceOnUse">
<stop stop-color="#FDFCFB" stop-opacity="0.5"/>
<stop offset="1" stop-color="#68ACFD" stop-opacity="0.36"/>
</linearGradient>
<linearGradient id="paint59_linear_1927_49691" x1="177.601" y1="23.4707" x2="177.601" y2="660.253" gradientUnits="userSpaceOnUse">
<stop stop-color="#FDFCFB" stop-opacity="0.5"/>
<stop offset="1" stop-color="#68ACFD" stop-opacity="0.36"/>
</linearGradient>
<linearGradient id="paint60_linear_1927_49691" x1="175.869" y1="24.2773" x2="175.869" y2="660.553" gradientUnits="userSpaceOnUse">
<stop stop-color="#FDFCFB" stop-opacity="0.5"/>
<stop offset="1" stop-color="#68ACFD" stop-opacity="0.36"/>
</linearGradient>
<linearGradient id="paint61_linear_1927_49691" x1="174.241" y1="25.0776" x2="174.241" y2="660.846" gradientUnits="userSpaceOnUse">
<stop stop-color="#FDFCFB" stop-opacity="0.5"/>
<stop offset="1" stop-color="#68ACFD" stop-opacity="0.36"/>
</linearGradient>
<linearGradient id="paint62_linear_1927_49691" x1="172.655" y1="25.8779" x2="172.655" y2="661.134" gradientUnits="userSpaceOnUse">
<stop stop-color="#FDFCFB" stop-opacity="0.5"/>
<stop offset="1" stop-color="#68ACFD" stop-opacity="0.36"/>
</linearGradient>
</defs>
</svg>
