<svg width="32" height="32" viewBox="0 0 32 32" fill="none" xmlns="http://www.w3.org/2000/svg">
<path d="M16.9136 18.4286V16.242H21.9959V13.2251H16.9136V11.1354H22.5252V7.8833H14.0229V21.679H18.4929C20.2055 20.7864 21.0168 20.4214 22.6014 19.2226V18.4268H16.9136V18.4286Z" fill="#FDFCFB"/>
<path d="M1.95874 14.398C2.27358 11.1182 3.84775 8.15839 6.39066 6.0618C8.93356 3.9652 12.139 2.98609 15.4188 3.30093C18.6987 3.61577 21.6585 5.18994 23.7551 7.73285C25.6596 10.0439 26.6439 12.9017 26.5695 15.8649L27.9517 15.6193C27.9794 8.61335 22.6618 2.61244 15.5503 1.92915C8.00981 1.20433 1.31177 6.72779 0.585227 14.2666C0.349965 16.7126 0.772052 19.0721 1.70964 21.167C2.15768 21.4438 2.88595 21.8486 3.8564 22.2447C2.36007 19.9249 1.69061 17.1883 1.95874 14.398Z" fill="#FDFCFB"/>
<path d="M27.9241 16.4481L26.5212 16.6972L22.9127 17.339L25.338 18.2644C16.5312 25.4192 9.05645 24.8414 4.72141 23.4264C3.78901 23.1219 3.00192 22.7794 2.37744 22.4663C2.47604 22.6375 2.57984 22.8053 2.68709 22.9731C3.08323 23.5907 3.52607 24.1754 4.01563 24.7203C6.23158 27.2009 9.35226 28.8875 12.9244 29.2301C17.9272 29.711 22.5598 27.4414 25.3224 23.6564C24.7273 23.9868 24.0527 24.3311 23.3106 24.6719C22.8556 24.8794 22.3609 25.0922 21.8298 25.2998C19.3301 27.2563 16.2268 28.1627 13.0559 27.8565C11.3779 27.6957 9.783 27.2044 8.34548 26.4225C7.51514 25.971 6.7367 25.4226 6.024 24.7843C12.8397 27.6559 19.4426 25.6561 23.5631 23.653C24.6564 23.1219 25.575 22.5926 26.2773 22.1514C27.2719 21.527 27.8307 21.0841 27.8307 21.0841L28.8738 23.7464L31.479 15.8149L27.9258 16.4481H27.9241Z" fill="#FDFCFB"/>
<path d="M8.07026 13.2787V15.3874H11.8742V18.1188H8.07026V20.4472H12.3811V23.3949C11.3812 23.4399 10.1669 23.3897 9.69807 23.3759C7.95782 23.3257 6.33694 23.0386 4.75757 22.5058V10.3984H12.3811V13.2769H8.07026V13.2787Z" fill="#FDFCFB"/>
</svg>
