<svg width="221" height="306" viewBox="0 0 221 306" fill="none" xmlns="http://www.w3.org/2000/svg">
<path d="M111 104C111 104 113.207 126.402 121.804 135.751C130.4 145.1 151 147.5 151 147.5C151 147.5 130.4 149.9 121.804 159.249C113.207 168.598 111 191 111 191C111 191 108.793 168.598 100.196 159.249C91.5997 149.9 71 147.5 71 147.5C71 147.5 91.5997 145.1 100.196 135.751C108.793 126.402 111 104 111 104Z" fill="white" fill-opacity="0.25"/>
<path d="M181 152C181 152 183.207 174.402 191.804 183.751C200.4 193.1 221 195.5 221 195.5C221 195.5 200.4 197.9 191.804 207.249C183.207 216.598 181 239 181 239C181 239 178.793 216.598 170.196 207.249C161.6 197.9 141 195.5 141 195.5C141 195.5 161.6 193.1 170.196 183.751C178.793 174.402 181 152 181 152Z" fill="white" fill-opacity="0.1"/>
<path d="M40 181C40 181 42.207 213.187 50.8036 226.619C59.4003 240.052 80 243.5 80 243.5C80 243.5 59.4003 246.948 50.8036 260.381C42.207 273.813 40 306 40 306C40 306 37.793 273.813 29.1964 260.381C20.5997 246.948 0 243.5 0 243.5C0 243.5 20.5997 240.052 29.1964 226.619C37.793 213.187 40 181 40 181Z" fill="white" fill-opacity="0.1"/>
<path d="M171.5 0C171.5 0 173.183 32.1871 179.738 45.6193C186.293 59.0515 202 62.5 202 62.5C202 62.5 186.293 65.9485 179.738 79.3807C173.183 92.8129 171.5 125 171.5 125C171.5 125 169.817 92.8129 163.262 79.3807C156.707 65.9485 141 62.5 141 62.5C141 62.5 156.707 59.0515 163.262 45.6193C169.817 32.1871 171.5 0 171.5 0Z" fill="white" fill-opacity="0.1"/>
<path d="M40.5 79C40.5 79 42.1828 96.2523 48.7378 103.452C55.2927 110.652 71 112.5 71 112.5C71 112.5 55.2927 114.348 48.7378 121.548C42.1828 128.748 40.5 146 40.5 146C40.5 146 38.8172 128.748 32.2622 121.548C25.7073 114.348 10 112.5 10 112.5C10 112.5 25.7073 110.652 32.2622 103.452C38.8172 96.2523 40.5 79 40.5 79Z" fill="white" fill-opacity="0.1"/>
</svg>
