<svg width="24" height="24" viewBox="0 0 24 24" fill="none" xmlns="http://www.w3.org/2000/svg">
<g id="Button/Button stroke/Text fill small/Tick">
<path id="Vector" fill-rule="evenodd" clip-rule="evenodd" d="M16.6795 6.26636C17.0847 6.64166 17.1089 7.27437 16.7336 7.67954L7.72736 17.4029C6.98988 18.1991 5.76013 18.1991 5.02265 17.4029L1.26636 13.3475C0.891066 12.9423 0.915288 12.3096 1.32047 11.9343C1.72564 11.559 2.35835 11.5833 2.73364 11.9884L6.375 15.9197L15.2664 6.32047C15.6417 5.91529 16.2744 5.89107 16.6795 6.26636ZM21.68 6.26636C22.0851 6.64166 22.1094 7.27436 21.7341 7.67954L12.7278 17.4029C12.3525 17.808 11.7198 17.8323 11.3146 17.457C10.9094 17.0817 10.8852 16.449 11.2605 16.0438L20.2668 6.32047C20.6421 5.91529 21.2748 5.89107 21.68 6.26636Z" fill="#1890FF"/>
</g>
</svg>
