<svg width="24" height="25" viewBox="0 0 24 25" fill="none" xmlns="http://www.w3.org/2000/svg">
<path d="M21 21.0003H20V19.7503C20 19.0833 19.667 18.7503 19 18.7503H18.75V11.7503H19C19.667 11.7503 20 11.4173 20 10.7503V8.19121C20 7.81221 19.786 7.46641 19.447 7.29741L12.671 3.90923C12.249 3.69823 11.752 3.69823 11.329 3.90923L4.55298 7.29741C4.21398 7.46641 4 7.81321 4 8.19121V10.7503C4 11.4173 4.333 11.7503 5 11.7503H5.25V18.7503H5C4.333 18.7503 4 19.0833 4 19.7503V21.0003H3C2.586 21.0003 2.25 21.3363 2.25 21.7503C2.25 22.1643 2.586 22.5003 3 22.5003H21C21.414 22.5003 21.75 22.1643 21.75 21.7503C21.75 21.3363 21.414 21.0003 21 21.0003ZM12 6.50029C12.69 6.50029 13.25 7.06029 13.25 7.75029C13.25 8.44029 12.69 9.00029 12 9.00029C11.31 9.00029 10.75 8.44029 10.75 7.75029C10.75 7.06029 11.31 6.50029 12 6.50029ZM6.75 18.7503V11.7503H9.25V18.7503H6.75ZM10.75 18.7503V11.7503H13.25V18.7503H10.75ZM14.75 18.7503V11.7503H17.25V18.7503H14.75Z" fill="#2B4896"/>
</svg>
