<svg width="24" height="24" viewBox="0 0 24 24" fill="none" xmlns="http://www.w3.org/2000/svg">
<mask id="mask0_4979_21878" style="mask-type:luminance" maskUnits="userSpaceOnUse" x="0" y="-1" width="25" height="25">
<path d="M0 -0.000974655H24.0013V23.999H0V-0.000974655Z" fill="white"/>
</mask>
<g mask="url(#mask0_4979_21878)">
<path d="M21.8453 12.0459V23.2959H10.5947V7.82715H17.6264" stroke="#98999A" stroke-width="1.4" stroke-miterlimit="10" stroke-linecap="round" stroke-linejoin="round"/>
<path d="M10.5947 17.6709H2.15674V2.1084H4.96939" stroke="#98999A" stroke-width="1.4" stroke-miterlimit="10" stroke-linecap="round" stroke-linejoin="round"/>
<path d="M10.5947 2.1084H13.4072V7.82715" stroke="#98999A" stroke-width="1.4" stroke-miterlimit="10" stroke-linecap="round" stroke-linejoin="round"/>
<path d="M10.595 3.51465H4.96973V2.1084C4.96973 1.33177 5.59939 0.702148 6.37605 0.702148H9.18871C9.96538 0.702148 10.595 1.33177 10.595 2.1084V3.51465Z" stroke="#98999A" stroke-width="1.4" stroke-miterlimit="10" stroke-linecap="round" stroke-linejoin="round"/>
<path d="M17.6265 12.0459H21.8452L17.6265 7.82715V12.0459Z" stroke="#98999A" stroke-width="1.4" stroke-miterlimit="10" stroke-linecap="round" stroke-linejoin="round"/>
<path d="M13.4077 14.8584H19.033" stroke="#98999A" stroke-width="1.4" stroke-miterlimit="10" stroke-linecap="round" stroke-linejoin="round"/>
<path d="M19.033 17.6709H13.4077" stroke="#98999A" stroke-width="1.4" stroke-miterlimit="10" stroke-linecap="round" stroke-linejoin="round"/>
<path d="M17.6265 20.4834H13.4077" stroke="#98999A" stroke-width="1.4" stroke-miterlimit="10" stroke-linecap="round" stroke-linejoin="round"/>
</g>
</svg>
