<svg width="24" height="25" viewBox="0 0 24 25" fill="none" xmlns="http://www.w3.org/2000/svg">
<path d="M13.25 14.25C13.25 16.04 14.71 17.5 16.5 17.5H21V18.25C21 20.25 20 21.25 18 21.25H6C4 21.25 3 20.25 3 18.25V5.25C3 6.35 3.9 7.25 5 7.25H18C20 7.25 21 8.25 21 10.25V11H16.5C14.71 11 13.25 12.46 13.25 14.25ZM16.5 12.5C15.54 12.5 14.75 13.29 14.75 14.25C14.75 15.21 15.54 16 16.5 16H21V12.5H16.5ZM17.02 15.25C16.47 15.25 16.01 14.8 16.01 14.25C16.01 13.7 16.46 13.25 17.01 13.25H17.02C17.57 13.25 18.02 13.7 18.02 14.25C18.02 14.8 17.57 15.25 17.02 15.25ZM15 3.25H5.75C5.06 3.25 4.5 3.81 4.5 4.5C4.5 5.19 5.06 5.75 5.75 5.75H17.97C17.82 4.08 16.83 3.25 15 3.25Z" fill="#2B4896"/>
</svg>
