<svg width="24" height="24" viewBox="0 0 24 24" fill="none" xmlns="http://www.w3.org/2000/svg">
<path d="M13.6005 16.1667C13.6005 15.9457 13.6848 15.7337 13.8349 15.5774C13.9849 15.4211 14.1884 15.3333 14.4006 15.3333H20.0009V2.83333C20.0009 2.61232 19.9166 2.40036 19.7666 2.24408C19.6165 2.0878 19.413 2 19.2008 2H4.80004C4.58786 2 4.38436 2.0878 4.23433 2.24408C4.08429 2.40036 4 2.61232 4 2.83333V21.1667C4 21.3877 4.08429 21.5996 4.23433 21.7559C4.38436 21.9122 4.58786 22 4.80004 22H13.6005V16.1667ZM6.40013 6.16667H17.6008V7.83333H6.40013V6.16667ZM6.40013 10.3333H17.6008V12H6.40013V10.3333ZM11.2004 16.1667H6.40013V14.5H11.2004V16.1667Z" fill="#6A6A6C"/>
<path d="M19.5321 17H15.2006V21.5117L19.5321 17Z" fill="#6A6A6C"/>
</svg>
