<svg width="24" height="24" viewBox="0 0 24 24" fill="none" xmlns="http://www.w3.org/2000/svg">
<path d="M22.5399 10.1678C20.2208 6.30523 16.2806 4 12.0006 4C7.7206 4 3.78037 6.30523 1.46006 10.1678C0.846646 11.1917 0.846646 12.4626 1.46006 13.4853C3.77921 17.3478 7.71944 19.6531 11.9994 19.6531C16.2794 19.6531 20.2196 17.3478 22.5399 13.4853C23.1534 12.4614 23.1534 11.1905 22.5399 10.1678ZM21.0499 12.5913C19.0461 15.9239 15.6637 17.9149 12.0006 17.9149C8.33749 17.9149 4.95501 15.9239 2.95243 12.5913C2.6695 12.1205 2.6695 11.5337 2.95243 11.063C4.95617 7.73035 8.33865 5.73936 12.0017 5.73936C15.6648 5.73936 19.0473 7.73035 21.0499 11.063C21.3328 11.5337 21.3328 12.1205 21.0499 12.5913ZM12.0006 7.47872C9.60374 7.47872 7.65218 9.43028 7.65218 11.8271C7.65218 14.224 9.60374 16.1755 12.0006 16.1755C14.3974 16.1755 16.349 14.224 16.349 11.8271C16.349 9.43028 14.3974 7.47872 12.0006 7.47872ZM12.0006 14.4362C10.5627 14.4362 9.39154 13.265 9.39154 11.8271C9.39154 10.3892 10.5627 9.21808 12.0006 9.21808C13.4384 9.21808 14.6096 10.3892 14.6096 11.8271C14.6096 13.265 13.4384 14.4362 12.0006 14.4362Z" fill="#202124"/>
</svg>
