<svg width="33" height="32" viewBox="0 0 33 32" fill="none" xmlns="http://www.w3.org/2000/svg">
<path d="M17.6811 10.4101C16.1771 11.0075 15.1691 12.5275 15.1691 14.1915V15.0715C15.1691 15.3648 15.4091 15.6048 15.7025 15.6048H17.9531C18.2518 15.6048 18.4865 15.3648 18.4865 15.0715V14.1915C18.4865 13.8768 18.6625 13.5888 18.9131 13.4928C21.2438 12.5595 22.6838 10.1541 22.4065 7.64746C22.1238 5.06613 20.0438 2.98613 17.4625 2.69813C15.8731 2.52213 14.2731 3.03413 13.0838 4.09546C11.8998 5.15679 11.2171 6.68213 11.2171 8.27679C11.2171 8.57013 11.4571 8.81013 11.7505 8.81013H14.0011C14.2945 8.81013 14.5345 8.57013 14.5345 8.27679C14.5345 7.62613 14.8118 7.00213 15.2971 6.57013C15.7931 6.12746 16.4278 5.92479 17.0945 5.99946C18.1451 6.11146 18.9931 6.95946 19.1105 8.01013C19.2225 9.05546 18.6518 10.0208 17.6811 10.4101Z" fill="#2B4896"/>
<path d="M26.6572 20.39C22.5665 19.2114 21.1212 16.5714 21.1052 16.5447C21.0252 16.39 20.8705 16.2834 20.6945 16.262C20.5185 16.246 20.3425 16.3154 20.2252 16.4487L16.8278 20.47L13.4305 16.4487C13.3132 16.3154 13.1425 16.246 12.9665 16.2674C12.7905 16.2834 12.6358 16.39 12.5505 16.5447C12.5345 16.5714 11.0892 19.2114 7.00382 20.39C6.58782 20.5074 5.72915 20.758 6.61982 28.8594C6.64648 29.126 6.87582 29.334 7.14782 29.334H26.5078C26.7798 29.334 27.0092 29.126 27.0358 28.8594C27.9265 20.758 27.0678 20.5074 26.6572 20.39Z" fill="#2B4896"/>
</svg>
