<svg width="48" height="49" viewBox="0 0 48 49" fill="none" xmlns="http://www.w3.org/2000/svg">
<path d="M32.25 15.125V12.875C32.25 12.6687 32.0812 12.5 31.875 12.5H13.875C13.6687 12.5 13.5 12.6687 13.5 12.875V15.125C13.5 15.3313 13.6687 15.5 13.875 15.5H31.875C32.0812 15.5 32.25 15.3313 32.25 15.125ZM13.875 19.25C13.6687 19.25 13.5 19.4187 13.5 19.625V21.875C13.5 22.0812 13.6687 22.25 13.875 22.25H22.5C22.7062 22.25 22.875 22.0812 22.875 21.875V19.625C22.875 19.4187 22.7062 19.25 22.5 19.25H13.875ZM31.5 24.6875C25.9078 24.6875 21.375 29.2203 21.375 34.8125C21.375 40.4047 25.9078 44.9375 31.5 44.9375C37.0922 44.9375 41.625 40.4047 41.625 34.8125C41.625 29.2203 37.0922 24.6875 31.5 24.6875ZM36.5391 39.8516C35.1938 41.1969 33.4031 41.9375 31.5 41.9375C29.5969 41.9375 27.8062 41.1969 26.4609 39.8516C25.1156 38.5062 24.375 36.7156 24.375 34.8125C24.375 32.9094 25.1156 31.1187 26.4609 29.7734C27.8062 28.4281 29.5969 27.6875 31.5 27.6875C33.4031 27.6875 35.1938 28.4281 36.5391 29.7734C37.8844 31.1187 38.625 32.9094 38.625 34.8125C38.625 36.7156 37.8844 38.5062 36.5391 39.8516ZM35.6719 31.25H33.5953C33.4734 31.25 33.3609 31.3062 33.2906 31.4047L30.3141 35.5203L29.2312 34.025C29.1966 33.9767 29.1508 33.9374 29.0978 33.9105C29.0447 33.8836 28.986 33.8698 28.9266 33.8703H26.8594C26.5547 33.8703 26.3766 34.2172 26.5547 34.4656L30.0141 39.2516C30.1641 39.4578 30.4688 39.4578 30.6188 39.2516L35.9719 31.8453C36.1547 31.5969 35.9766 31.25 35.6719 31.25ZM20.625 40.4375H9.75V7.4375H36V23.5625C36 23.7687 36.1688 23.9375 36.375 23.9375H39C39.2062 23.9375 39.375 23.7687 39.375 23.5625V5.5625C39.375 4.73281 38.7047 4.0625 37.875 4.0625H7.875C7.04531 4.0625 6.375 4.73281 6.375 5.5625V42.3125C6.375 43.1422 7.04531 43.8125 7.875 43.8125H20.625C20.8313 43.8125 21 43.6437 21 43.4375V40.8125C21 40.6063 20.8313 40.4375 20.625 40.4375Z" fill="#43A048"/>
</svg>
