<svg width="24" height="24" viewBox="0 0 24 24" fill="none" xmlns="http://www.w3.org/2000/svg">
<path d="M20.0306 6.76641C20.1712 6.90703 20.2509 7.09687 20.2509 7.29609V21.75C20.2509 22.1648 19.9157 22.5 19.5009 22.5H4.50004C4.08517 22.5 3.75 22.1648 3.75 21.75V2.25C3.75 1.83516 4.08517 1.5 4.50004 1.5H14.4545C14.6537 1.5 14.8459 1.57969 14.9866 1.72031L20.0306 6.76641ZM18.5211 7.64062L14.1099 3.22969V7.64062H18.5211ZM14.8417 14.9358C14.4859 14.9241 14.1076 14.9515 13.678 15.0052C13.1084 14.6538 12.7249 14.1713 12.4526 13.4623L12.4777 13.3596L12.5067 13.2382C12.6075 12.8133 12.6617 12.5032 12.6778 12.1905C12.69 11.9545 12.6769 11.7368 12.6349 11.535C12.5576 11.0993 12.2494 10.8445 11.861 10.8288C11.4989 10.8141 11.166 11.0163 11.081 11.3297C10.9424 11.8364 11.0235 12.5032 11.3172 13.6404C10.9431 14.5322 10.4488 15.5777 10.1171 16.1609C9.67439 16.3891 9.32961 16.5968 9.0399 16.827C8.65785 17.1309 8.41924 17.4434 8.35361 17.7715C8.32174 17.9236 8.36979 18.1223 8.47925 18.2852C8.60347 18.4699 8.79051 18.5899 9.01482 18.6073C9.58087 18.6511 10.2765 18.0675 11.0446 16.7496C11.1217 16.7238 11.2033 16.6966 11.3029 16.6629L11.5818 16.5687C11.7583 16.5091 11.8863 16.4665 12.0129 16.4255C12.5613 16.2469 12.9762 16.1341 13.3536 16.0699C14.0094 16.421 14.7674 16.6512 15.2779 16.6512C15.6993 16.6512 15.9841 16.4327 16.087 16.0889C16.1772 15.787 16.1058 15.4369 15.9117 15.2433C15.7111 15.0462 15.3421 14.952 14.8417 14.9358ZM9.02912 17.9456V17.9372L9.03217 17.9292C9.06646 17.8406 9.11048 17.756 9.16342 17.677C9.26374 17.5228 9.4018 17.3606 9.5729 17.1879C9.66478 17.0953 9.76041 17.0051 9.87268 16.9038C9.89776 16.8813 10.0581 16.7386 10.0881 16.7105L10.3499 16.4667L10.1596 16.7698C9.87081 17.2301 9.6097 17.5615 9.38609 17.7776C9.30382 17.8573 9.2314 17.9159 9.1728 17.9536C9.15345 17.9665 9.13298 17.9777 9.11162 17.9869C9.10201 17.9909 9.09358 17.9932 9.08514 17.9939C9.07623 17.995 9.06718 17.9938 9.05889 17.9904C9.05006 17.9867 9.04253 17.9805 9.03724 17.9725C9.03194 17.9645 9.02912 17.9552 9.02912 17.9456ZM11.981 12.8297L11.928 12.9234L11.8952 12.8208C11.8226 12.5904 11.7691 12.2433 11.7543 11.9302C11.7375 11.5739 11.7658 11.3602 11.8783 11.3602C12.0363 11.3602 12.1087 11.6133 12.1144 11.9941C12.1195 12.3288 12.0668 12.6771 11.9808 12.8297H11.981ZM11.8448 14.1998L11.8807 14.1049L11.9297 14.194C12.2037 14.6918 12.5592 15.1071 12.9502 15.3966L13.0346 15.4589L12.9317 15.48C12.5489 15.5592 12.1924 15.6783 11.7049 15.8749C11.7558 15.8543 11.1981 16.0826 11.057 16.1367L10.934 16.1838L10.9996 16.0695C11.2891 15.5655 11.5565 14.9604 11.8446 14.1998H11.8448ZM15.5392 15.9872C15.355 16.0598 14.9584 15.9949 14.2602 15.6968L14.083 15.6213L14.2752 15.6073C14.8213 15.5667 15.2081 15.5967 15.4335 15.6792C15.5296 15.7144 15.5936 15.7587 15.622 15.8093C15.6369 15.8333 15.6419 15.8621 15.636 15.8897C15.63 15.9173 15.6136 15.9415 15.5901 15.9572C15.5752 15.9703 15.5579 15.9805 15.5392 15.9872Z" fill="#6A6A6C"/>
</svg>
