<svg width="24" height="24" viewBox="0 0 24 24" fill="none" xmlns="http://www.w3.org/2000/svg">
<path d="M21.5311 20.47L17.6899 16.629C18.974 15.106 19.751 13.143 19.751 11C19.751 6.175 15.8258 2.25 11.0005 2.25C6.17522 2.25 2.25 6.175 2.25 11C2.25 15.825 6.17522 19.75 11.0005 19.75C13.1436 19.75 15.1067 18.973 16.6298 17.689L20.471 21.53C20.617 21.676 20.809 21.75 21.001 21.75C21.193 21.75 21.3851 21.677 21.5311 21.53C21.8241 21.238 21.8241 20.763 21.5311 20.47ZM3.75008 11C3.75008 7.002 7.00226 3.75 11.0005 3.75C14.9987 3.75 18.2509 7.002 18.2509 11C18.2509 14.998 14.9987 18.25 11.0005 18.25C7.00226 18.25 3.75008 14.998 3.75008 11Z" fill="#202124"/>
</svg>
