<svg width="61" height="40" viewBox="0 0 61 40" fill="none" xmlns="http://www.w3.org/2000/svg">
<g filter="url(#filter0_b_2753_44998)">
<g clip-path="url(#clip0_2753_44998)">
<path d="M21.0075 8.68656C22.1209 12.2036 20.1721 15.9575 16.6546 17.071C13.1372 18.1846 9.38312 16.2361 8.26971 12.7191C7.1563 9.20202 9.1051 5.44815 12.6226 4.33459C16.1401 3.22104 19.8941 5.16953 21.0075 8.68656Z" fill="url(#paint0_linear_2753_44998)" stroke="url(#paint1_linear_2753_44998)" stroke-width="0.784671"/>
<path d="M15.3625 12.9893C16.6255 12.5895 17.3252 11.2416 16.9254 9.97881C16.5256 8.71597 15.1777 8.01636 13.9147 8.41619C12.6518 8.81601 11.952 10.1639 12.3518 11.4267C12.7516 12.6896 14.0995 13.3892 15.3625 12.9893Z" fill="url(#paint2_linear_2753_44998)"/>
<path d="M9.48972 36.5953C7.36932 29.8974 11.0814 22.7471 17.7801 20.6265C24.487 18.5032 31.6375 22.2148 33.7579 28.9126C34.2649 30.514 33.3691 32.2304 31.7649 32.7383L13.3131 38.5797C11.7102 39.0872 9.99709 38.198 9.48972 36.5953Z" fill="url(#paint3_linear_2753_44998)" stroke="url(#paint4_linear_2753_44998)" stroke-width="0.784671"/>
<line x1="0.871856" y1="-0.871856" x2="9.96197" y2="-0.871856" transform="matrix(0.944497 -0.328519 0.374099 0.927389 15.0474 31.2832)" stroke="url(#paint5_linear_2753_44998)" stroke-width="1.74371" stroke-linecap="round"/>
</g>
</g>
<g filter="url(#filter1_b_2753_44998)">
<g clip-path="url(#clip1_2753_44998)">
<path d="M39.1646 8.68753C38.0512 12.2046 40 15.9584 43.5175 17.072C47.035 18.1855 50.789 16.2371 51.9024 12.72C53.0158 9.203 51.067 5.44913 47.5495 4.33557C44.032 3.22202 40.278 5.1705 39.1646 8.68753Z" fill="url(#paint6_linear_2753_44998)" stroke="url(#paint7_linear_2753_44998)" stroke-width="0.784671"/>
<path d="M44.8096 12.9903C43.5467 12.5905 42.8469 11.2426 43.2467 9.97978C43.6465 8.71694 44.9944 8.01733 46.2574 8.41716C47.5203 8.81699 48.2201 10.1648 47.8203 11.4277C47.4205 12.6905 46.0726 13.3901 44.8096 12.9903Z" fill="url(#paint8_linear_2753_44998)"/>
<path d="M50.6824 36.5963C52.8028 29.8984 49.0907 22.7481 42.392 20.6275C35.6851 18.5042 28.5346 22.2158 26.4142 28.9135C25.9072 30.515 26.803 32.2314 28.4072 32.7393L46.859 38.5807C48.462 39.0881 50.175 38.199 50.6824 36.5963Z" fill="url(#paint9_linear_2753_44998)" stroke="url(#paint10_linear_2753_44998)" stroke-width="0.784671"/>
<line x1="0.871856" y1="-0.871856" x2="9.96197" y2="-0.871856" transform="matrix(-0.944497 -0.328519 -0.374099 0.927389 45.1248 31.2842)" stroke="url(#paint11_linear_2753_44998)" stroke-width="1.74371" stroke-linecap="round"/>
</g>
</g>
<g clip-path="url(#clip2_2753_44998)">
<path d="M30.1975 17.2456C34.1037 17.2456 37.2703 14.0794 37.2703 10.1736C37.2703 6.26782 34.1037 3.10156 30.1975 3.10156C26.2913 3.10156 23.1248 6.26782 23.1248 10.1736C23.1248 14.0794 26.2913 17.2456 30.1975 17.2456Z" fill="url(#paint12_linear_2753_44998)"/>
<path d="M30.1975 20.1904C22.9545 20.1904 17.0818 26.0625 17.0818 33.3048C17.0818 35.2026 18.6223 36.7429 20.5203 36.7429H39.8747C41.7727 36.7429 43.3217 35.2026 43.3217 33.3048C43.3217 26.0625 37.449 20.1904 30.1975 20.1904Z" fill="url(#paint13_linear_2753_44998)"/>
</g>
<defs>
<filter id="filter0_b_2753_44998" x="-5.49269" y="-5.49269" width="46.1575" height="50.9854" filterUnits="userSpaceOnUse" color-interpolation-filters="sRGB">
<feFlood flood-opacity="0" result="BackgroundImageFix"/>
<feGaussianBlur in="BackgroundImageFix" stdDeviation="2.74635"/>
<feComposite in2="SourceAlpha" operator="in" result="effect1_backgroundBlur_2753_44998"/>
<feBlend mode="normal" in="SourceGraphic" in2="effect1_backgroundBlur_2753_44998" result="shape"/>
</filter>
<filter id="filter1_b_2753_44998" x="19.5073" y="-5.49172" width="46.1575" height="50.9854" filterUnits="userSpaceOnUse" color-interpolation-filters="sRGB">
<feFlood flood-opacity="0" result="BackgroundImageFix"/>
<feGaussianBlur in="BackgroundImageFix" stdDeviation="2.74635"/>
<feComposite in2="SourceAlpha" operator="in" result="effect1_backgroundBlur_2753_44998"/>
<feBlend mode="normal" in="SourceGraphic" in2="effect1_backgroundBlur_2753_44998" result="shape"/>
</filter>
<linearGradient id="paint0_linear_2753_44998" x1="7.71866" y1="18.7177" x2="20.4688" y2="10.926" gradientUnits="userSpaceOnUse">
<stop stop-color="#2B4896"/>
<stop offset="1" stop-color="#2B4896" stop-opacity="0.4"/>
</linearGradient>
<linearGradient id="paint1_linear_2753_44998" x1="12.5042" y1="3.96055" x2="16.7731" y2="17.4451" gradientUnits="userSpaceOnUse">
<stop stop-color="white"/>
<stop offset="1" stop-color="white" stop-opacity="0"/>
</linearGradient>
<linearGradient id="paint2_linear_2753_44998" x1="13.9147" y1="8.41619" x2="15.3625" y2="12.9893" gradientUnits="userSpaceOnUse">
<stop stop-color="white" stop-opacity="0.67"/>
<stop offset="1" stop-color="white" stop-opacity="0"/>
</linearGradient>
<linearGradient id="paint3_linear_2753_44998" x1="35.3218" y1="32.5" x2="8.82178" y2="24" gradientUnits="userSpaceOnUse">
<stop stop-color="white" stop-opacity="0.1"/>
<stop offset="1" stop-color="#2B4896"/>
</linearGradient>
<linearGradient id="paint4_linear_2753_44998" x1="17.6657" y1="20.2512" x2="22.6615" y2="36.0317" gradientUnits="userSpaceOnUse">
<stop stop-color="white"/>
<stop offset="1" stop-color="white" stop-opacity="0"/>
</linearGradient>
<linearGradient id="paint5_linear_2753_44998" x1="-1.20713" y1="0" x2="12.3208" y2="0" gradientUnits="userSpaceOnUse">
<stop stop-color="white" stop-opacity="0.67"/>
<stop offset="1" stop-color="white" stop-opacity="0"/>
</linearGradient>
<linearGradient id="paint6_linear_2753_44998" x1="52.4535" y1="18.7187" x2="39.7034" y2="10.927" gradientUnits="userSpaceOnUse">
<stop stop-color="#2B4896"/>
<stop offset="1" stop-color="#2B4896" stop-opacity="0.4"/>
</linearGradient>
<linearGradient id="paint7_linear_2753_44998" x1="47.6679" y1="3.96153" x2="43.3991" y2="17.446" gradientUnits="userSpaceOnUse">
<stop stop-color="white"/>
<stop offset="1" stop-color="white" stop-opacity="0"/>
</linearGradient>
<linearGradient id="paint8_linear_2753_44998" x1="46.2574" y1="8.41716" x2="44.8096" y2="12.9903" gradientUnits="userSpaceOnUse">
<stop stop-color="white" stop-opacity="0.67"/>
<stop offset="1" stop-color="white" stop-opacity="0"/>
</linearGradient>
<linearGradient id="paint9_linear_2753_44998" x1="24.8503" y1="32.501" x2="51.3503" y2="24.001" gradientUnits="userSpaceOnUse">
<stop stop-color="white" stop-opacity="0.1"/>
<stop offset="1" stop-color="#2B4896"/>
</linearGradient>
<linearGradient id="paint10_linear_2753_44998" x1="42.5064" y1="20.2521" x2="37.5106" y2="36.0327" gradientUnits="userSpaceOnUse">
<stop stop-color="white"/>
<stop offset="1" stop-color="white" stop-opacity="0"/>
</linearGradient>
<linearGradient id="paint11_linear_2753_44998" x1="-1.20713" y1="0" x2="12.3208" y2="0" gradientUnits="userSpaceOnUse">
<stop stop-color="white" stop-opacity="0.67"/>
<stop offset="1" stop-color="white" stop-opacity="0"/>
</linearGradient>
<linearGradient id="paint12_linear_2753_44998" x1="30.1975" y1="3.10156" x2="30.1975" y2="17.2456" gradientUnits="userSpaceOnUse">
<stop stop-color="#2B4896"/>
<stop offset="1" stop-color="#0088EC"/>
</linearGradient>
<linearGradient id="paint13_linear_2753_44998" x1="30.2017" y1="20.1904" x2="30.2017" y2="36.7429" gradientUnits="userSpaceOnUse">
<stop stop-color="#2B4896"/>
<stop offset="1" stop-color="#0088EC"/>
</linearGradient>
<clipPath id="clip0_2753_44998">
<rect width="26.2399" height="33.6496" fill="white" transform="translate(0 7.91943) rotate(-17.5666)"/>
</clipPath>
<clipPath id="clip1_2753_44998">
<rect width="26.2399" height="33.6496" fill="white" transform="matrix(-0.953367 -0.301814 -0.301814 0.953367 60.1721 7.92041)"/>
</clipPath>
<clipPath id="clip2_2753_44998">
<rect width="26.2399" height="33.6496" fill="white" transform="translate(17.0818 3.10156)"/>
</clipPath>
</defs>
</svg>
