<svg width="20" height="20" viewBox="0 0 20 20" fill="none" xmlns="http://www.w3.org/2000/svg">
<g id="Group 33504">
<path id="Vector 11 (Stroke)" fill-rule="evenodd" clip-rule="evenodd" d="M1.05721 1.05752C1.57791 0.536817 2.42213 0.536817 2.94283 1.05752L18.9428 17.0575C19.4635 17.5782 19.4635 18.4224 18.9428 18.9431C18.4221 19.4638 17.5779 19.4638 17.0572 18.9431L1.05721 2.94313C0.536512 2.42244 0.536512 1.57822 1.05721 1.05752Z" fill="#202124"/>
<path id="Vector 12 (Stroke)" fill-rule="evenodd" clip-rule="evenodd" d="M18.9428 1.05752C18.4222 0.536817 17.5779 0.536817 17.0572 1.05752L1.05723 17.0575C0.536531 17.5782 0.536531 18.4224 1.05723 18.9431C1.57793 19.4638 2.42215 19.4638 2.94285 18.9431L18.9428 2.94313C19.4635 2.42244 19.4635 1.57822 18.9428 1.05752Z" fill="#202124"/>
</g>
</svg>
