<svg width="32" height="32" viewBox="0 0 32 32" fill="none" xmlns="http://www.w3.org/2000/svg">
<path d="M13.1999 15.2C16.2926 15.2 18.7999 12.6927 18.7999 9.6C18.7999 6.5072 16.2926 4 13.1999 4C10.1071 4 7.59985 6.5072 7.59985 9.6C7.59985 12.6927 10.1071 15.2 13.1999 15.2Z" fill="#2B4896"/>
<path d="M13.69 18.014C9.868 17.874 2 19.778 2 23.6V26.4H15.356C11.898 22.536 13.634 18.154 13.69 18.014Z" fill="#2B4896"/>
<path d="M26.4019 23.6277C26.9059 22.8017 27.1999 21.8357 27.1999 20.7997C27.1999 17.7057 24.6939 15.1997 21.5999 15.1997C18.5059 15.1997 15.9999 17.7057 15.9999 20.7997C15.9999 23.8937 18.5059 26.3997 21.5999 26.3997C22.6359 26.3997 23.6019 26.0917 24.4279 25.6017L28.0259 29.1997L29.9999 27.2257L26.4019 23.6277ZM21.5999 23.5997C20.0599 23.5997 18.7999 22.3397 18.7999 20.7997C18.7999 19.2597 20.0599 17.9997 21.5999 17.9997C23.1399 17.9997 24.3999 19.2597 24.3999 20.7997C24.3999 22.3397 23.1399 23.5997 21.5999 23.5997Z" fill="#2B4896"/>
</svg>
