<svg width="32" height="32" viewBox="0 0 32 32" fill="none" xmlns="http://www.w3.org/2000/svg">
<path fill-rule="evenodd" clip-rule="evenodd" d="M24.2484 12.1556C24.2484 13.6627 24.6467 14.551 25.5233 15.5747C26.1876 16.3289 26.3999 17.297 26.3999 18.3472C26.3999 19.3963 26.0552 20.3922 25.3647 21.2007C24.4607 22.17 23.1857 22.7888 21.8846 22.8964C19.999 23.0571 18.1123 23.1925 16.2005 23.1925C14.2875 23.1925 12.4019 23.1115 10.5164 22.8964C9.21403 22.7888 7.9391 22.17 7.03628 21.2007C6.34574 20.3922 5.99988 19.3963 5.99988 18.3472C5.99988 17.297 6.21336 16.3289 6.87646 15.5747C7.78048 14.551 8.15258 13.6627 8.15258 12.1556V11.6444C8.15258 9.62601 8.65587 8.30622 9.69227 7.01423C11.2332 5.13004 13.7031 4 16.1468 4H16.2541C18.7503 4 21.3002 5.18442 22.8148 7.1496C23.7976 8.415 24.2484 9.67919 24.2484 11.6444V12.1556ZM12.6884 25.6727C12.6884 25.0684 13.243 24.7917 13.7558 24.6732C14.3557 24.5463 18.0112 24.5463 18.6111 24.6732C19.1239 24.7917 19.6785 25.0684 19.6785 25.6727C19.6486 26.248 19.3111 26.7581 18.8448 27.082C18.2401 27.5533 17.5305 27.8518 16.7887 27.9594C16.3784 28.0126 15.9753 28.0138 15.5794 27.9594C14.8364 27.8518 14.1268 27.5533 13.5233 27.0807C13.0558 26.7581 12.7183 26.248 12.6884 25.6727Z" fill="#2B4896"/>
</svg>
