<svg width="14" height="14" viewBox="0 0 14 14" fill="none" xmlns="http://www.w3.org/2000/svg">
<path d="M6.58984 2.07812H7.41016C7.48307 2.07812 7.51953 2.11458 7.51953 2.1875V11.8125C7.51953 11.8854 7.48307 11.9219 7.41016 11.9219H6.58984C6.51693 11.9219 6.48047 11.8854 6.48047 11.8125V2.1875C6.48047 2.11458 6.51693 2.07812 6.58984 2.07812Z" fill="white"/>
<path d="M2.625 6.48047H11.8125C11.8854 6.48047 11.9219 6.51693 11.9219 6.58984V7.41016C11.9219 7.48307 11.8854 7.51953 11.8125 7.51953H2.1875C2.11458 7.51953 2.07812 7.48307 2.07812 7.41016V6.58984C2.07812 6.51693 2.11458 6.48047 2.1875 6.48047H2.625Z" fill="white"/>
</svg>
