<svg width="16" height="16" viewBox="0 0 16 16" fill="none" xmlns="http://www.w3.org/2000/svg">
<path id="Vector" d="M11.1736 10.3185H10.4675L10.2173 10.0653C10.7758 9.38432 11.1841 8.58221 11.4127 7.71636C11.6414 6.8505 11.6849 5.94231 11.5401 5.05677C11.12 2.44933 9.04639 0.367141 6.5438 0.0482465C5.66397 -0.0685572 4.77034 0.027398 3.93128 0.328769C3.09223 0.630141 2.32999 1.12894 1.7029 1.787C1.07581 2.44506 0.600486 3.24494 0.313297 4.12543C0.0261086 5.00592 -0.0653309 5.94368 0.045976 6.86696C0.349863 9.49315 2.33407 11.6691 4.81879 12.11C5.66266 12.262 6.52811 12.2163 7.35322 11.9764C8.17833 11.7364 8.94269 11.308 9.5916 10.7218L9.83293 10.9845V11.7254L13.6315 15.7116C13.998 16.0961 14.5968 16.0961 14.9633 15.7116C15.3297 15.327 15.3297 14.6986 14.9633 14.3141L11.1736 10.3185ZM5.81089 10.3185C3.58537 10.3185 1.78886 8.43329 1.78886 6.09786C1.78886 3.76243 3.58537 1.8772 5.81089 1.8772C8.03642 1.8772 9.83293 3.76243 9.83293 6.09786C9.83293 8.43329 8.03642 10.3185 5.81089 10.3185Z" fill="white"/>
</svg>
