<svg width="32" height="32" viewBox="0 0 32 32" fill="none" xmlns="http://www.w3.org/2000/svg">
<g id="wallet">
<path id="wallet_2" d="M17.6667 18.6667C17.6667 21.0533 19.6133 23 22 23H28V24C28 26.6667 26.6667 28 24 28H8C5.33333 28 4 26.6667 4 24V6.66667C4 8.13333 5.2 9.33333 6.66667 9.33333H24C26.6667 9.33333 28 10.6667 28 13.3333V14.3333H22C19.6133 14.3333 17.6667 16.28 17.6667 18.6667ZM22 16.3333C20.72 16.3333 19.6667 17.3867 19.6667 18.6667C19.6667 19.9467 20.72 21 22 21H28V16.3333H22ZM22.6934 20C21.96 20 21.3467 19.4 21.3467 18.6667C21.3467 17.9333 21.9467 17.3333 22.68 17.3333H22.6934C23.4267 17.3333 24.0267 17.9333 24.0267 18.6667C24.0267 19.4 23.4267 20 22.6934 20ZM20 4H7.66667C6.74667 4 6 4.74667 6 5.66667C6 6.58667 6.74667 7.33333 7.66667 7.33333H23.96C23.76 5.10667 22.44 4 20 4Z" fill="#202124"/>
</g>
</svg>
