<svg width="24" height="24" viewBox="0 0 24 24" fill="none" xmlns="http://www.w3.org/2000/svg">
<g id="icon/filled/application/document">
<g id="Vector">
<path d="M13.6 16.1667C13.6 15.9457 13.6843 15.7337 13.8343 15.5774C13.9843 15.4211 14.1878 15.3333 14.4 15.3333H20V2.83333C20 2.61232 19.9157 2.40036 19.7657 2.24408C19.6157 2.0878 19.4122 2 19.2 2H4.8C4.58783 2 4.38434 2.0878 4.23431 2.24408C4.08429 2.40036 4 2.61232 4 2.83333V21.1667C4 21.3877 4.08429 21.5996 4.23431 21.7559C4.38434 21.9122 4.58783 22 4.8 22H13.6V16.1667ZM6.4 6.16667H17.6V7.83333H6.4V6.16667ZM6.4 10.3333H17.6V12H6.4V10.3333ZM11.2 16.1667H6.4V14.5H11.2V16.1667Z" fill="#202124"/>
<path d="M19.5312 17H15.2V21.5117L19.5312 17Z" fill="#202124"/>
</g>
</g>
</svg>
