<svg width="48" height="48" viewBox="0 0 48 48" fill="none" xmlns="http://www.w3.org/2000/svg">
<g id="Frame" clip-path="url(#clip0_1342_12577)">
<path id="Vector" d="M14 36.0004C11.5045 36.0004 9.11129 35.0522 7.34674 33.3643C5.58219 31.6765 4.59088 29.3873 4.59088 27.0004C4.59088 24.6134 5.58219 22.3243 7.34674 20.6364C9.11129 18.9486 11.5045 18.0004 14 18.0004C14.5893 15.3747 16.3135 13.0674 18.7931 11.5858C20.0209 10.8522 21.3973 10.3435 22.8435 10.0886C24.2898 9.83375 25.7777 9.83775 27.2222 10.1004C28.6667 10.363 30.0396 10.8792 31.2626 11.6193C32.4855 12.3595 33.5344 13.3092 34.3495 14.4142C35.1646 15.5193 35.7299 16.758 36.0131 18.0596C36.2962 19.3612 36.2918 20.7003 36 22.0004H38C39.8565 22.0004 41.637 22.7379 42.9497 24.0506C44.2625 25.3634 45 27.1439 45 29.0004C45 30.8569 44.2625 32.6374 42.9497 33.9501C41.637 35.2629 39.8565 36.0004 38 36.0004H36" stroke="#6A6A6C" stroke-width="2" stroke-linecap="round" stroke-linejoin="round"/>
<path id="Vector_2" d="M18 30L24 24L30 30" stroke="#6A6A6C" stroke-width="2" stroke-linecap="round" stroke-linejoin="round"/>
<path id="Vector_3" d="M24 24V42" stroke="#6A6A6C" stroke-width="2" stroke-linecap="round" stroke-linejoin="round"/>
</g>
<defs>
<clipPath id="clip0_1342_12577">
<rect width="48" height="48" fill="white"/>
</clipPath>
</defs>
</svg>
