<svg width="20" height="21" viewBox="0 0 20 21" fill="none" xmlns="http://www.w3.org/2000/svg">
<path fill-rule="evenodd" clip-rule="evenodd" d="M8.23116 13.1719C5.02783 13.1719 2.29199 13.656 2.29199 15.596C2.29199 17.5352 5.01033 18.0377 8.23116 18.0377C11.4345 18.0377 14.1703 17.5527 14.1703 15.6135C14.1703 13.6744 11.452 13.1719 8.23116 13.1719Z" stroke="#202124" stroke-width="1.5" stroke-linecap="round" stroke-linejoin="round"/>
<path fill-rule="evenodd" clip-rule="evenodd" d="M8.23098 10.4043C10.3443 10.4043 12.0376 8.71018 12.0376 6.59768C12.0376 4.48435 10.3443 2.79102 8.23098 2.79102C6.11848 2.79102 4.42432 4.48435 4.42432 6.59768C4.42432 8.71018 6.11848 10.4043 8.23098 10.4043Z" stroke="#202124" stroke-width="1.5" stroke-linecap="round" stroke-linejoin="round"/>
<path d="M16.0036 7.72461V11.0663" stroke="#202124" stroke-width="1.5" stroke-linecap="round" stroke-linejoin="round"/>
<path d="M17.7081 9.39518H14.2998" stroke="#202124" stroke-width="1.5" stroke-linecap="round" stroke-linejoin="round"/>
</svg>
