<svg width="20" height="21" viewBox="0 0 20 21" fill="none" xmlns="http://www.w3.org/2000/svg">
<g clip-path="url(#clip0_5220_46976)">
<path d="M16.6636 7.85263C15.7393 4.1703 12.0049 1.93453 8.32253 2.85888C5.44488 3.58126 3.35538 6.06837 3.14009 9.02746C1.09684 9.36442 -0.286409 11.2939 0.0505465 13.3372C0.350084 15.1537 1.92405 16.484 3.76502 16.4767H6.88968V15.2268H3.76502C2.38447 15.2268 1.2653 14.1076 1.2653 12.7271C1.2653 11.3465 2.38447 10.2273 3.76502 10.2273C4.11018 10.2273 4.38995 9.94756 4.38995 9.6024C4.38683 6.49614 6.90245 3.97548 10.0087 3.97239C12.6976 3.9697 15.0123 5.87066 15.5325 8.50877C15.5838 8.77218 15.7976 8.97341 16.0637 9.00872C17.7722 9.25201 18.9599 10.8342 18.7166 12.5427C18.4982 14.0768 17.1883 15.2191 15.6387 15.2268H13.139V16.4767H15.6387C18.0547 16.4693 20.0073 14.5049 20 12.0889C19.9939 10.0778 18.6173 8.32988 16.6636 7.85263Z" fill="#A0A0A0"/>
<path d="M9.57102 10.4083L7.07129 12.908L7.95244 13.7892L9.38979 12.3581V18.3512H10.6396V12.3581L12.0707 13.7892L12.9519 12.908L10.4522 10.4083C10.2084 10.166 9.81478 10.166 9.57102 10.4083Z" fill="#A0A0A0"/>
</g>
<defs>
<clipPath id="clip0_5220_46976">
<rect width="20" height="20" fill="white" transform="translate(0 0.5)"/>
</clipPath>
</defs>
</svg>
