<svg width="20" height="21" viewBox="0 0 20 21" fill="none" xmlns="http://www.w3.org/2000/svg">
<path d="M13.3333 18.6259H5C2.985 18.6259 1.875 17.5159 1.875 15.5009V7.16758C1.875 5.15258 2.985 4.04258 5 4.04258H7.5C7.845 4.04258 8.125 4.32258 8.125 4.66758C8.125 5.01258 7.845 5.29258 7.5 5.29258H5C3.68583 5.29258 3.125 5.85342 3.125 7.16758V15.5009C3.125 16.8151 3.68583 17.3759 5 17.3759H13.3333C14.6475 17.3759 15.2083 16.8151 15.2083 15.5009V13.0009C15.2083 12.6559 15.4883 12.3759 15.8333 12.3759C16.1783 12.3759 16.4583 12.6559 16.4583 13.0009V15.5009C16.4583 17.5159 15.3483 18.6259 13.3333 18.6259ZM17.15 4.69258L15.8083 3.35093C15.3333 2.88426 14.575 2.88424 14.1 3.35924L12.975 4.49259L16.0084 7.52591L17.1417 6.4009C17.6167 5.9259 17.6167 5.16758 17.15 4.69258ZM12.0917 5.37592L6.66667 10.8259V13.8342H9.67499L15.125 8.40924L12.0917 5.37592Z" fill="#121212"/>
</svg>
