<svg width="20" height="21" viewBox="0 0 20 21" fill="none" xmlns="http://www.w3.org/2000/svg">
<path fill-rule="evenodd" clip-rule="evenodd" d="M1.66663 7.16732C1.66663 5.32637 3.15901 3.83398 4.99996 3.83398H15C16.8409 3.83398 18.3333 5.32637 18.3333 7.16732V13.834C18.3333 15.6749 16.8409 17.1673 15 17.1673H4.99996C3.15901 17.1673 1.66663 15.6749 1.66663 13.834V7.16732ZM4.99996 5.50065C4.07948 5.50065 3.33329 6.24684 3.33329 7.16732V13.834C3.33329 14.7545 4.07949 15.5007 4.99996 15.5007H15C15.9204 15.5007 16.6666 14.7545 16.6666 13.834V7.16732C16.6666 6.24684 15.9204 5.50065 15 5.50065H4.99996Z" fill="black"/>
<path fill-rule="evenodd" clip-rule="evenodd" d="M5.18264 7.4788C5.47015 7.11942 5.99456 7.06115 6.35394 7.34866L10 10.2655L13.6461 7.34866C14.0055 7.06115 14.5299 7.11942 14.8174 7.4788C15.1049 7.83819 15.0467 8.3626 14.6873 8.6501L10 12.3999L5.31278 8.6501C4.9534 8.3626 4.89513 7.83819 5.18264 7.4788Z" fill="black"/>
</svg>
