<svg width="20" height="21" viewBox="0 0 20 21" fill="none" xmlns="http://www.w3.org/2000/svg">
<g clip-path="url(#clip0_5220_46930)">
<path d="M19.7328 4.24165C19.4985 4.12732 19.2141 4.22493 19.0997 4.46198L18.6368 5.41574L18.2659 5.23724L18.7539 4.23326C18.7539 4.23049 18.7567 4.22771 18.7567 4.22488C18.7595 4.21932 18.7622 4.21093 18.7651 4.20538C18.8403 4.01855 18.9268 3.79822 18.9575 3.55C19.0523 2.81096 18.7707 2.03009 18.2017 1.45838C17.6607 0.914564 16.8324 0.607794 16.046 0.655182C15.8814 0.666348 15.7057 0.697014 15.5245 0.750013C15.2372 0.833677 14.9555 0.978674 14.6906 1.18228C14.5009 1.32728 14.236 1.57549 14.0547 1.9241C14.0547 1.92687 14.0519 1.92965 14.0519 1.93248C14.0519 1.93532 14.0492 1.93804 14.0492 1.93804L12.3201 5.50496C12.3117 5.5189 12.3034 5.53284 12.295 5.54957C12.2866 5.56351 12.281 5.58023 12.2755 5.59695L7.7966 14.828C7.72966 14.9675 7.69621 15.1236 7.70177 15.2798V15.2826L7.80215 18.2582C7.81332 18.5483 7.92209 18.8188 8.10337 19.0307L7.83843 19.5661C7.72132 19.8004 7.81893 20.0848 8.05315 20.202C8.12009 20.2354 8.19259 20.2522 8.26231 20.2522C8.43803 20.2522 8.60536 20.1546 8.68902 19.9873L8.94557 19.4658C8.98463 19.4686 9.02085 19.4713 9.0599 19.4713C9.32206 19.4713 9.58139 19.3905 9.79894 19.2287L12.2029 17.4662C12.2531 17.43 12.3005 17.3853 12.3423 17.3407C12.3507 17.3323 12.3563 17.324 12.3647 17.3156C12.4177 17.2543 12.4623 17.1846 12.4985 17.112L17.8503 6.08778L18.2212 6.26627L15.8368 11.1774C15.7225 11.4116 15.8201 11.6961 16.0571 11.8104C16.1241 11.8439 16.1938 11.8578 16.2635 11.8578C16.4392 11.8578 16.6093 11.7602 16.6902 11.5901L19.2504 6.31644C19.2643 6.29694 19.2783 6.27461 19.2894 6.25227C19.3006 6.22994 19.3062 6.21044 19.3145 6.18811L19.9532 4.87181C20.0674 4.64042 19.967 4.35598 19.7328 4.24165ZM9.23567 18.4674C9.14923 18.5288 9.04046 18.5427 8.94285 18.5065C8.9289 18.4981 8.91496 18.4898 8.89824 18.4814C8.88985 18.4786 8.88429 18.4758 8.87591 18.473C8.79502 18.4172 8.74485 18.328 8.74202 18.2304L8.67508 16.2921C9.30256 16.7802 10.0249 17.1316 10.7946 17.3268L9.23567 18.4674ZM11.7288 16.5236C10.5882 16.4121 9.52289 15.8934 8.73085 15.0623L12.9364 6.3946L15.94 7.84757L11.7288 16.5236ZM18.0149 3.43011C17.9981 3.56117 17.9451 3.70061 17.8921 3.83172L16.3583 6.99147L13.3519 5.53851L14.8913 2.36481C14.975 2.21142 15.106 2.05804 15.2678 1.93532C15.4351 1.80704 15.6136 1.71221 15.7837 1.66199C15.8981 1.62855 16.0069 1.60899 16.0989 1.60344C16.6148 1.57277 17.1754 1.77915 17.5268 2.13053C17.8838 2.48747 18.0706 2.98668 18.0149 3.43011Z" fill="black"/>
<path d="M6.3516 19.4026C6.23166 19.3998 6.09221 19.4026 5.94722 19.4026C5.18868 19.411 3.77471 19.4249 3.32295 18.9201C3.24484 18.8337 3.14445 18.6775 3.18073 18.354C3.28672 17.442 3.79982 16.4827 4.25165 15.6376L4.32692 15.4954C4.47475 15.2193 4.62814 14.9404 4.77869 14.6672C5.21096 13.8863 5.65717 13.0775 6.01133 12.227C6.27349 11.5995 6.41849 11.0083 6.4436 10.4755C6.47704 9.76162 6.2986 9.13969 5.91372 8.62654C5.45356 8.01022 4.78147 7.5584 3.86116 7.24051C3.09701 6.97558 2.25481 6.83891 1.51299 6.71619C1.17833 6.66042 0.860394 6.6102 0.567567 6.54887C0.311017 6.49587 0.0600232 6.6632 0.00980255 6.9198C-0.043196 7.17635 0.124133 7.42734 0.380738 7.47756C0.693064 7.54173 1.01939 7.59467 1.36238 7.65045C2.77074 7.88194 4.36875 8.14127 5.15518 9.19269C5.62089 9.81462 5.61534 10.7126 5.13568 11.8616C4.80102 12.6648 4.36875 13.4484 3.94765 14.207C3.79705 14.4803 3.64088 14.7647 3.49028 15.0464L3.415 15.1858C2.9214 16.1061 2.36363 17.1492 2.23814 18.2396C2.17681 18.7611 2.30508 19.2017 2.61741 19.5503C3.27278 20.2782 4.56958 20.3507 5.57634 20.3507C5.70739 20.3507 5.83572 20.3507 5.95561 20.3479C6.09783 20.3479 6.22893 20.3451 6.34049 20.3479C6.34326 20.3479 6.34326 20.3479 6.34604 20.3479C6.60542 20.3479 6.81736 20.1388 6.82014 19.8794C6.82292 19.6229 6.6137 19.4054 6.3516 19.4026Z" fill="black"/>
</g>
<defs>
<clipPath id="clip0_5220_46930">
<rect width="20" height="20" fill="white" transform="translate(0 0.5)"/>
</clipPath>
</defs>
</svg>
