<svg width="20" height="21" viewBox="0 0 20 21" fill="none" xmlns="http://www.w3.org/2000/svg">
<path d="M7.50065 9.45833C6.23398 9.45833 5.20898 8.43333 5.20898 7.16667C5.20898 5.9 6.23398 4.875 7.50065 4.875C8.76732 4.875 9.79232 5.9 9.79232 7.16667C9.79232 8.43333 8.76732 9.45833 7.50065 9.45833ZM7.50065 6.125C6.92565 6.125 6.45898 6.59167 6.45898 7.16667C6.45898 7.74167 6.92565 8.20833 7.50065 8.20833C8.07565 8.20833 8.54232 7.74167 8.54232 7.16667C8.54232 6.59167 8.07565 6.125 7.50065 6.125Z" fill="#A0A0A0"/>
<path d="M12.5003 19.4577H7.50033C2.97533 19.4577 1.04199 17.5243 1.04199 12.9993V7.99935C1.04199 3.47435 2.97533 1.54102 7.50033 1.54102H10.8337C11.1753 1.54102 11.4587 1.82435 11.4587 2.16602C11.4587 2.50768 11.1753 2.79102 10.8337 2.79102H7.50033C3.65866 2.79102 2.29199 4.15768 2.29199 7.99935V12.9993C2.29199 16.841 3.65866 18.2077 7.50033 18.2077H12.5003C16.342 18.2077 17.7087 16.841 17.7087 12.9993V8.83268C17.7087 8.49102 17.992 8.20768 18.3337 8.20768C18.6753 8.20768 18.9587 8.49102 18.9587 8.83268V12.9993C18.9587 17.5243 17.0253 19.4577 12.5003 19.4577Z" fill="#A0A0A0"/>
<path d="M15 7.79194C14.6583 7.79194 14.375 7.50861 14.375 7.16694V2.16694C14.375 1.91694 14.525 1.68361 14.7583 1.59194C14.9917 1.50027 15.2583 1.55027 15.4417 1.72527L17.1083 3.39194C17.35 3.63361 17.35 4.03361 17.1083 4.27527C16.8667 4.51694 16.4667 4.51694 16.225 4.27527L15.625 3.67527V7.16694C15.625 7.50861 15.3417 7.79194 15 7.79194Z" fill="#A0A0A0"/>
<path d="M13.3339 4.45755C13.1755 4.45755 13.0172 4.39922 12.8922 4.27422C12.6505 4.03255 12.6505 3.63255 12.8922 3.39089L14.5589 1.72422C14.8005 1.48255 15.2005 1.48255 15.4422 1.72422C15.6839 1.96589 15.6839 2.36589 15.4422 2.60755L13.7755 4.27422C13.6505 4.39922 13.4922 4.45755 13.3339 4.45755Z" fill="#A0A0A0"/>
<path d="M2.22541 16.9168C2.02541 16.9168 1.82541 16.8168 1.70874 16.6418C1.51707 16.3585 1.59207 15.9668 1.87541 15.7751L5.98374 13.0168C6.88374 12.4168 8.12541 12.4835 8.94207 13.1751L9.21707 13.4168C9.63374 13.7751 10.3421 13.7751 10.7504 13.4168L14.2171 10.4418C15.1004 9.68346 16.4921 9.68346 17.3837 10.4418L18.7421 11.6085C19.0004 11.8335 19.0337 12.2251 18.8087 12.4918C18.5837 12.7501 18.1837 12.7835 17.9254 12.5585L16.5671 11.3918C16.1504 11.0335 15.4504 11.0335 15.0337 11.3918L11.5671 14.3668C10.6837 15.1251 9.29207 15.1251 8.40041 14.3668L8.12541 14.1251C7.74207 13.8001 7.10875 13.7668 6.68375 14.0585L2.58374 16.8168C2.46707 16.8835 2.34207 16.9168 2.22541 16.9168Z" fill="#A0A0A0"/>
</svg>
