<svg xmlns="http://www.w3.org/2000/svg" width="32" height="32" viewBox="0 0 32 32" fill="none">
  <path d="M16.8546 10.4101C15.3506 11.0075 14.3426 12.5275 14.3426 14.1915V15.0715C14.3426 15.3648 14.5826 15.6048 14.876 15.6048H17.1266C17.4253 15.6048 17.66 15.3648 17.66 15.0715V14.1915C17.66 13.8768 17.836 13.5888 18.0866 13.4928C20.4173 12.5595 21.8573 10.1541 21.58 7.64746C21.2973 5.06613 19.2173 2.98613 16.636 2.69813C15.0466 2.52213 13.4466 3.03413 12.2573 4.09546C11.0733 5.15679 10.3906 6.68213 10.3906 8.27679C10.3906 8.57013 10.6306 8.81013 10.924 8.81013H13.1746C13.468 8.81013 13.708 8.57013 13.708 8.27679C13.708 7.62613 13.9853 7.00213 14.4706 6.57013C14.9666 6.12746 15.6013 5.92479 16.268 5.99946C17.3186 6.11146 18.1666 6.95946 18.284 8.01013C18.396 9.05546 17.8253 10.0208 16.8546 10.4101Z" fill="#2B4896"/>
  <path d="M25.8292 20.3881C21.7385 19.2094 20.2932 16.5694 20.2772 16.5427C20.1972 16.3881 20.0425 16.2814 19.8665 16.2601C19.6905 16.2441 19.5145 16.3134 19.3972 16.4467L15.9998 20.4681L12.6025 16.4467C12.4852 16.3134 12.3145 16.2441 12.1385 16.2654C11.9625 16.2814 11.8078 16.3881 11.7225 16.5427C11.7065 16.5694 10.2612 19.2094 6.17583 20.3881C5.75983 20.5054 4.90116 20.7561 5.79183 28.8574C5.8185 29.1241 6.04783 29.3321 6.31983 29.3321H25.6798C25.9518 29.3321 26.1812 29.1241 26.2078 28.8574C27.0985 20.7561 26.2398 20.5054 25.8292 20.3881Z" fill="#2B4896"/>
</svg>