<svg width="24" height="24" viewBox="0 0 24 24" fill="none" xmlns="http://www.w3.org/2000/svg">
<path fill-rule="evenodd" clip-rule="evenodd" d="M20.2866 5.24297C20.6757 5.24297 20.9995 5.56596 20.9995 5.97696V6.35696C20.9995 6.75795 20.6757 7.09095 20.2866 7.09095H3.71337C3.32337 7.09095 2.99951 6.75795 2.99951 6.35696V5.97696C2.99951 5.56596 3.32337 5.24297 3.71337 5.24297H6.62908C7.22136 5.24297 7.73681 4.82197 7.87005 4.22798L8.02275 3.54598C8.26005 2.61699 9.04101 2 9.93478 2H14.0642C14.9483 2 15.738 2.61699 15.9666 3.49699L16.1299 4.22698C16.2622 4.82197 16.7777 5.24297 17.3709 5.24297H20.2866ZM18.8051 19.1342C19.1095 16.2972 19.6425 9.55726 19.6425 9.48926C19.6619 9.28326 19.5948 9.08826 19.4616 8.93126C19.3186 8.78426 19.1377 8.69727 18.9384 8.69727H5.06782C4.86747 8.69727 4.67685 8.78426 4.54458 8.93126C4.41037 9.08826 4.34424 9.28326 4.35396 9.48926C4.35575 9.50175 4.37488 9.73916 4.40685 10.1361C4.54888 11.8993 4.94446 16.8103 5.20009 19.1342C5.38098 20.8461 6.50428 21.9221 8.13136 21.9611C9.38692 21.9901 10.6804 22.0001 12.0031 22.0001C13.2489 22.0001 14.5142 21.9901 15.8087 21.9611C17.4922 21.9321 18.6145 20.8751 18.8051 19.1342Z" fill="#202124"/>
</svg>
