<svg xmlns="http://www.w3.org/2000/svg" width="141" height="71" viewBox="0 0 141 71" fill="none">
  <path d="M59.1106 35.4573L58.9244 35.9214L58.8981 35.9108L58.873 35.8973L59.1106 35.4573ZM39.021 22.4331L39.2389 21.9831L39.021 22.4331ZM0.538957 15.5036C0.430412 15.2497 0.548257 14.9559 0.802172 14.8473L4.93995 13.0785C5.19386 12.97 5.48769 13.0878 5.59624 13.3417C5.70478 13.5956 5.58694 13.8895 5.33302 13.998L1.655 15.5703L3.22731 19.2483C3.33585 19.5022 3.218 19.7961 2.96409 19.9046C2.71018 20.0132 2.41634 19.8953 2.3078 19.6414L0.538957 15.5036ZM140.126 70.2403C123.934 49.3969 105.12 40.9969 90.0397 36.6757C82.4747 34.508 75.9011 33.3779 70.9704 32.1999C68.524 31.6154 66.4697 31.0155 64.9452 30.262C63.4244 29.5104 62.3336 28.5576 61.9822 27.2181L62.9495 26.9644C63.1921 27.8892 63.9687 28.6639 65.3883 29.3656C66.8042 30.0654 68.7633 30.6445 71.2028 31.2273C76.044 32.3839 82.7322 33.5415 90.3151 35.7144C105.53 40.0743 124.556 48.5669 140.916 69.6268L140.126 70.2403ZM61.9822 27.2181C61.3518 24.8144 61.7879 21.5614 62.9108 18.2043C64.0392 14.8305 65.8855 11.2787 68.1626 8.24632C70.4357 5.21945 73.1659 2.67338 76.0784 1.36113C79.014 0.0384305 82.1453 -0.0299824 85.1102 1.93208L84.5583 2.76602C81.9276 1.02509 79.168 1.06584 76.4892 2.27285C73.7871 3.49031 71.1793 5.8945 68.9623 8.84681C66.7493 11.7937 64.9534 15.2499 63.8591 18.5215C62.7593 21.8099 62.3922 24.8396 62.9495 26.9644L61.9822 27.2181ZM85.1102 1.93208C90.9215 5.77772 92.4675 12.3726 91.4834 18.512C90.5025 24.6316 86.9855 30.4617 82.4493 32.8608L81.9817 31.9768C86.1603 29.7669 89.5484 24.2651 90.496 18.3537C91.4405 12.4619 89.9385 6.32638 84.5583 2.76602L85.1102 1.93208ZM82.4493 32.8608C78.0964 35.1629 74.5531 36.8801 70.9286 37.5397C67.2789 38.2038 63.5851 37.7906 58.9244 35.9214L59.2967 34.9932C63.8203 36.8075 67.3216 37.1796 70.7496 36.5558C74.2028 35.9275 77.6198 34.2837 81.9817 31.9768L82.4493 32.8608ZM58.873 35.8973C54.5454 33.561 51.1871 31.1037 48.0836 28.8366C44.9741 26.5651 42.1341 24.4955 38.8031 22.8832L39.2389 21.9831C42.6638 23.641 45.5743 25.7652 48.6735 28.0291C51.7788 30.2975 55.0873 32.7171 59.3481 35.0173L58.873 35.8973ZM38.8031 22.8832C33.387 20.2614 26.3756 19.4469 19.4356 18.8129C12.551 18.184 5.7045 17.7331 0.812589 15.7712L1.18483 14.843C5.90458 16.736 12.5584 17.1805 19.5266 17.8171C26.4395 18.4486 33.6334 19.2696 39.2389 21.9831L38.8031 22.8832Z" fill="white"/>
</svg>