<svg width="24" height="24" viewBox="0 0 24 24" fill="none" xmlns="http://www.w3.org/2000/svg">
<path fill-rule="evenodd" clip-rule="evenodd" d="M15.9093 3.87547C16.4686 3.31617 17.2271 3.00195 18.0181 3.00195C18.4098 3.00195 18.7976 3.07909 19.1594 3.22897C19.5213 3.37885 19.85 3.59853 20.127 3.87547C20.4039 4.15241 20.6236 4.48119 20.7735 4.84303C20.9234 5.20487 21.0005 5.59269 21.0005 5.98434C21.0005 6.37599 20.9234 6.76381 20.7735 7.12565C20.6236 7.48749 20.4039 7.81627 20.127 8.09321L19.0236 9.19662C18.6331 9.58714 17.9999 9.58714 17.6094 9.19662L14.8058 6.3931C14.4153 6.00257 14.4153 5.36941 14.8058 4.97888L15.9093 3.87547ZM13.3916 7.80731C13.0011 7.41678 12.3679 7.41679 11.9774 7.80731L5.01134 14.7734C4.37055 15.4142 3.91595 16.2171 3.69616 17.0962L3.03037 19.7594C2.94517 20.1002 3.04502 20.4607 3.2934 20.7091C3.54178 20.9574 3.90227 21.0573 4.24305 20.9721L6.90622 20.3063C7.78538 20.0865 8.58828 19.6319 9.22907 18.9911L16.1952 12.025C16.5857 11.6345 16.5857 11.0014 16.1952 10.6108L13.3916 7.80731Z" fill="#202124"/>
<path fill-rule="evenodd" clip-rule="evenodd" d="M12.0005 20.002C12.0005 19.4497 12.4482 19.002 13.0005 19.002L20.0005 19.002C20.5528 19.002 21.0005 19.4497 21.0005 20.002C21.0005 20.5542 20.5528 21.002 20.0005 21.002L13.0005 21.002C12.4482 21.002 12.0005 20.5542 12.0005 20.002Z" fill="#202124"/>
</svg>
