<svg width="24" height="25" viewBox="0 0 24 25" fill="none" xmlns="http://www.w3.org/2000/svg">
<path d="M21.1002 3.40026C20.8211 3.11756 20.4887 2.8931 20.1222 2.7399C19.7557 2.5867 19.3624 2.50781 18.9652 2.50781C18.5679 2.50781 18.1746 2.5867 17.8081 2.7399C17.4416 2.8931 17.1092 3.11756 16.8302 3.40026L14.9102 5.35026L19.1502 9.59026L21.0702 7.67026C21.3548 7.39319 21.5816 7.06234 21.7374 6.69692C21.8932 6.33149 21.9748 5.93877 21.9776 5.54153C21.9804 5.1443 21.9043 4.75046 21.7537 4.38288C21.603 4.01531 21.3809 3.6813 21.1002 3.40026Z" fill="#2B4896"/>
<path d="M13.4901 6.76953L5.10007 15.1595C5.02486 15.2369 4.9609 15.3244 4.91007 15.4195L2.13007 21.0295C2.04942 21.181 2.00909 21.3506 2.01295 21.5221C2.01681 21.6936 2.06474 21.8613 2.15212 22.0089C2.2395 22.1566 2.3634 22.2793 2.5119 22.3652C2.66041 22.4511 2.82852 22.4974 3.00007 22.4995C3.15244 22.5002 3.30294 22.466 3.44007 22.3995L9.05007 19.6195C9.14522 19.5687 9.23275 19.5047 9.31007 19.4295L17.7001 11.0395L13.4901 6.76953Z" fill="#2B4896"/>
<path d="M21 22.5H12C11.7348 22.5 11.4804 22.3946 11.2929 22.2071C11.1054 22.0196 11 21.7652 11 21.5C11 21.2348 11.1054 20.9804 11.2929 20.7929C11.4804 20.6054 11.7348 20.5 12 20.5H21C21.2652 20.5 21.5196 20.6054 21.7071 20.7929C21.8946 20.9804 22 21.2348 22 21.5C22 21.7652 21.8946 22.0196 21.7071 22.2071C21.5196 22.3946 21.2652 22.5 21 22.5Z" fill="#2B4896"/>
</svg>
