<svg xmlns="http://www.w3.org/2000/svg" width="67" height="84" viewBox="0 0 67 84" fill="none">
  <path
    d="M31.9341 36.1949L31.5234 35.9097L31.5418 35.8832L31.5634 35.8593L31.9341 36.1949ZM44.8992 21.3269L44.6082 20.9203L44.6082 20.9203L44.8992 21.3269ZM64.7346 0.0591629C65.0064 0.010173 65.2664 0.190765 65.3154 0.462527L66.1137 4.89115C66.1627 5.16291 65.9821 5.42293 65.7104 5.47192C65.4386 5.52091 65.1786 5.34032 65.1296 5.06855L64.42 1.132L60.4834 1.84164C60.2116 1.89063 59.9516 1.71003 59.9026 1.43827C59.8536 1.16651 60.0342 0.90649 60.306 0.8575L64.7346 0.0591629ZM0.0298936 82.8335C4.55802 69.9596 12.0672 59.4159 19.5782 52.1185C23.3338 48.4698 27.0978 45.625 30.5004 43.7053C33.8888 41.7936 36.9719 40.7694 39.3516 40.837L39.3232 41.8366C37.2125 41.7767 34.3208 42.6981 30.9918 44.5762C27.677 46.4463 23.9808 49.2354 20.275 52.8358C12.8634 60.0366 5.44502 70.4516 0.973242 83.1653L0.0298936 82.8335ZM39.3516 40.837C41.7299 40.9045 44.7395 42.1323 47.7402 43.9941C50.7563 45.8656 53.8269 48.4174 56.3361 51.2151C58.8396 54.0065 60.8166 57.0787 61.5946 59.9964C62.3791 62.9387 61.9478 65.7686 59.5663 67.9174L58.8964 67.175C60.9304 65.3397 61.3427 62.9332 60.6284 60.254C59.9074 57.5502 58.0429 54.6159 55.5917 51.8828C53.1461 49.156 50.1487 46.6655 47.2129 44.8439C44.2616 43.0126 41.4354 41.8965 39.3232 41.8366L39.3516 40.837ZM59.5663 67.9174C54.9414 72.0905 48.4129 71.718 42.7717 69.2643C37.1341 66.8121 32.1758 62.1994 30.6292 57.5702L31.5777 57.2533C33.0055 61.5272 37.6957 65.9659 43.1706 68.3472C48.6419 70.7271 54.6902 70.9702 58.8964 67.175L59.5663 67.9174ZM30.6292 57.5702C29.1443 53.1257 28.0815 49.5417 28.0381 46.1567C27.9942 42.7398 28.9872 39.5613 31.5234 35.9097L32.3447 36.4801C29.9068 39.9903 28.9972 42.9687 29.038 46.1439C29.0791 49.3512 30.088 52.7946 31.5777 57.2533L30.6292 57.5702ZM31.5634 35.8593C34.436 32.6867 36.3438 29.9381 38.2191 27.4721C40.0912 25.0103 41.9227 22.8428 44.6082 20.9203L45.1903 21.7334C42.6272 23.5683 40.8677 25.6413 39.0151 28.0774C37.1658 30.5092 35.2153 33.3159 32.3047 36.5305L31.5634 35.8593ZM44.6082 20.9203C53.4332 14.6024 59.2275 7.73164 64.4126 0.26601L65.234 0.836453C60.008 8.361 54.1377 15.3279 45.1903 21.7334L44.6082 20.9203Z"
    fill="white" />
</svg>