<svg width="24" height="24" viewBox="0 0 24 24" fill="none" xmlns="http://www.w3.org/2000/svg">
<path d="M1.92188 21.8906C1.92188 23.0537 2.86814 24 4.03125 24H18.0938C19.2569 24 20.2031 23.0537 20.2031 21.8906V21.7969H1.92188V21.8906Z" fill="#202124"/>
<path d="M7.54688 4.92209V0.412109L2.33377 5.62522H6.84375C7.23146 5.62522 7.54688 5.3098 7.54688 4.92209Z" fill="#202124"/>
<path d="M20.2031 2.10938C20.2031 0.946266 19.2569 0 18.0938 0L8.95312 0V4.92188C8.95312 6.08498 8.00686 7.03125 6.84375 7.03125H1.92188V9.60938H20.2031V2.10938Z" fill="#202124"/>
<path d="M21.375 11.0156H1.92188V20.3906H21.375C21.7633 20.3906 22.0781 20.0758 22.0781 19.6875V11.7188C22.0781 11.3304 21.7633 11.0156 21.375 11.0156ZM9.41142 17.4253C9.34594 17.5034 9.27478 17.5768 9.19992 17.6434C8.81747 17.984 8.32692 18.1641 7.78125 18.1641C6.42431 18.1641 5.32031 17.0601 5.32031 15.7031C5.32031 14.3461 6.42431 13.2422 7.78125 13.2422C8.27437 13.2422 8.7503 13.3876 9.15759 13.6628C9.42572 13.844 9.49627 14.2082 9.31505 14.4764C9.13392 14.7445 8.7697 14.815 8.50153 14.6339C8.28872 14.4901 8.03963 14.4141 7.78125 14.4141C7.07048 14.4141 6.49219 14.9923 6.49219 15.7031C6.49219 16.4139 7.07048 16.9922 7.78125 16.9922C8.03864 16.9922 8.25375 16.9169 8.42062 16.7683C8.45316 16.7393 8.48442 16.707 8.51348 16.6723C8.72152 16.4244 9.09098 16.392 9.33895 16.5999C9.58692 16.8078 9.61936 17.1774 9.41142 17.4253ZM13.8799 16.8702C13.746 17.6199 13.035 18.1641 12.189 18.1641C11.5148 18.1641 10.8814 17.8918 10.4511 17.417C10.2337 17.1772 10.2519 16.8067 10.4917 16.5894C10.7315 16.3721 11.1021 16.3903 11.3193 16.63C11.5249 16.8568 11.85 16.9922 12.189 16.9922C12.5156 16.9922 12.7026 16.7965 12.7262 16.6643C12.754 16.509 12.53 16.3674 12.3112 16.2866C11.7273 16.0712 11.2086 15.8403 11.1868 15.8306C11.1585 15.818 11.1314 15.8032 11.1055 15.7864C10.672 15.5038 10.4486 15.0083 10.5225 14.4933C10.6009 13.9474 10.9981 13.5034 11.5592 13.3344C12.5898 13.024 13.5058 13.5669 13.708 13.9449C13.8606 14.2303 13.753 14.5853 13.4676 14.7379C13.2156 14.8728 12.909 14.8045 12.7357 14.5898C12.669 14.5412 12.336 14.3242 11.8972 14.4564C11.774 14.4936 11.6957 14.5677 11.6825 14.6598C11.6772 14.6968 11.6807 14.7461 11.7213 14.7855C11.8682 14.8495 12.278 15.0254 12.7167 15.1872C13.7292 15.5606 13.9815 16.3014 13.8799 16.8702ZM18.6498 14.0198L17.4254 17.7055C17.3323 17.9793 17.079 18.1621 16.7938 18.1641C16.7923 18.1641 16.7907 18.1641 16.7891 18.1641C16.5058 18.1641 16.2523 17.9853 16.1573 17.718L14.8738 14.0203C14.7676 13.7145 14.9295 13.3807 15.2352 13.2746C15.5407 13.1686 15.8747 13.3303 15.9808 13.636L16.7787 15.9348L17.5376 13.6503C17.6397 13.3432 17.9714 13.1768 18.2784 13.279C18.5856 13.381 18.7518 13.7126 18.6498 14.0198Z" fill="#202124"/>
</svg>
