<svg width="24" height="24" viewBox="0 0 24 24" fill="none" xmlns="http://www.w3.org/2000/svg">
<path d="M12 4.00044C10.22 4.00044 8.47991 4.52829 6.99987 5.51722C5.51983 6.50615 4.36628 7.91176 3.68509 9.55629C3.0039 11.2008 2.82567 13.0104 3.17294 14.7563C3.5202 16.5021 4.37737 18.1057 5.63604 19.3644C6.89472 20.6231 8.49836 21.4802 10.2442 21.8275C11.99 22.1748 13.7996 21.9965 15.4442 21.3154C17.0887 20.6342 18.4943 19.4806 19.4832 18.0006C20.4722 16.5205 21 14.7805 21 13.0004C21 10.6135 20.0518 8.32431 18.364 6.63648C16.6761 4.94866 14.387 4.00044 12 4.00044ZM12 20.0004C10.6155 20.0004 9.26216 19.5899 8.11101 18.8207C6.95987 18.0516 6.06266 16.9583 5.53285 15.6792C5.00303 14.4001 4.86441 12.9927 5.13451 11.6348C5.4046 10.2769 6.07129 9.02966 7.05026 8.0507C8.02922 7.07173 9.27651 6.40504 10.6344 6.13495C11.9922 5.86485 13.3997 6.00347 14.6788 6.53329C15.9579 7.0631 17.0511 7.96031 17.8203 9.11145C18.5895 10.2626 19 11.616 19 13.0004C19 14.857 18.2625 16.6374 16.9498 17.9502C15.637 19.2629 13.8565 20.0004 12 20.0004ZM15.45 3.83044C15.3274 3.76467 15.2199 3.67404 15.1343 3.56433C15.0487 3.45463 14.9869 3.32827 14.953 3.19334C14.919 3.05841 14.9136 2.91788 14.937 2.78073C14.9604 2.64357 15.0122 2.51282 15.0891 2.39684C15.166 2.28085 15.2662 2.18218 15.3834 2.10714C15.5005 2.03209 15.6321 1.98232 15.7696 1.96101C15.9071 1.93971 16.0475 1.94733 16.1819 1.98339C16.3163 2.01945 16.4416 2.08316 16.55 2.17044L19.55 4.17044C19.7273 4.2896 19.8619 4.46243 19.9338 4.66359C20.0058 4.86476 20.0115 5.08369 19.95 5.2883C19.8885 5.49291 19.7631 5.67245 19.5921 5.80061C19.4212 5.92876 19.2137 5.9988 19 6.00044C18.8034 6.00269 18.611 5.94324 18.45 5.83044L15.45 3.83044ZM4.17 5.55044C4.02527 5.32998 3.97349 5.06127 4.02593 4.80281C4.07837 4.54435 4.23079 4.31707 4.45 4.17044L7.45 2.17044C7.55836 2.08316 7.68375 2.01945 7.81813 1.98339C7.95252 1.94733 8.09295 1.93971 8.23045 1.96101C8.36795 1.98232 8.49949 2.03209 8.61666 2.10714C8.73382 2.18218 8.83404 2.28085 8.9109 2.39684C8.98776 2.51282 9.03957 2.64357 9.06301 2.78073C9.08646 2.91788 9.08102 3.05841 9.04705 3.19334C9.01309 3.32827 8.95133 3.45463 8.86575 3.56433C8.78016 3.67404 8.67262 3.76467 8.55 3.83044L5.55 5.83044C5.38896 5.94324 5.1966 6.00269 5 6.00044C4.8353 5.99959 4.67335 5.95807 4.52855 5.87956C4.38376 5.80106 4.26059 5.68801 4.17 5.55044ZM14.71 14.2904C14.8037 14.3834 14.8781 14.494 14.9289 14.6159C14.9797 14.7377 15.0058 14.8684 15.0058 15.0004C15.0058 15.1325 14.9797 15.2632 14.9289 15.385C14.8781 15.5069 14.8037 15.6175 14.71 15.7104C14.617 15.8042 14.5064 15.8786 14.3846 15.9293C14.2627 15.9801 14.132 16.0062 14 16.0062C13.868 16.0062 13.7373 15.9801 13.6154 15.9293C13.4936 15.8786 13.383 15.8042 13.29 15.7104L11.29 13.7104C11.1973 13.617 11.124 13.5062 11.0742 13.3844C11.0245 13.2625 10.9992 13.1321 11 13.0004V9.00044C11 8.73523 11.1054 8.48087 11.2929 8.29334C11.4804 8.1058 11.7348 8.00044 12 8.00044C12.2652 8.00044 12.5196 8.1058 12.7071 8.29334C12.8946 8.48087 13 8.73523 13 9.00044V12.5904L14.71 14.2904Z" fill="#FB8A00"/>
</svg>
