<svg width="24" height="24" viewBox="0 0 24 24" fill="none" xmlns="http://www.w3.org/2000/svg">
<g clip-path="url(#clip0_1775_15706)">
<path d="M3.21924 22.1406C3.56363 23.2183 4.56263 24 5.73882 24H18.2611C19.4373 24 20.4363 23.2183 20.7807 22.1406H3.21924Z" fill="#202124"/>
<path d="M20.1338 3.85631L17.0535 0.776062C16.9265 0.648984 16.7891 0.536953 16.6428 0.439453V4.25016C16.6428 4.33687 16.7136 4.40723 16.8004 4.40723H20.5572C20.4428 4.20792 20.3007 4.02323 20.1338 3.85631Z" fill="#202124"/>
<path d="M20.9092 5.81358H16.8004C15.9377 5.81358 15.2363 5.11219 15.2363 4.25002V0.0009375C15.2181 0 15.1993 0 15.181 0L5.73867 0C4.2787 0 3.0907 1.18805 3.0907 2.64844V9.87178H20.9093L20.9092 5.81358Z" fill="#202124"/>
<path d="M12.0253 14.3857H11.3821V17.7027H12.0253C12.4588 17.7027 12.6756 17.4619 12.6756 16.98V15.1084C12.6756 14.6267 12.4588 14.3857 12.0253 14.3857Z" fill="#202124"/>
<path d="M7.98576 14.3857H7.27036V15.9105H7.98576C8.41936 15.9105 8.6362 15.6696 8.6362 15.1878V15.1084C8.63611 14.6267 8.41931 14.3857 7.98576 14.3857Z" fill="#202124"/>
<path d="M21.0008 11.2783H2.99915C2.01941 11.2783 1.22235 12.0754 1.22235 13.0551V18.9572C1.22235 19.937 2.01941 20.734 2.99915 20.734H21.0007C21.9805 20.734 22.7776 19.937 22.7776 18.9572V13.0551C22.7776 12.0754 21.9805 11.2783 21.0008 11.2783ZM9.76349 15.1011C9.76349 15.6745 9.60084 16.0973 9.27566 16.3694C8.95049 16.6416 8.52051 16.7776 7.98576 16.7776H7.27035V18.3385C7.27035 18.4494 7.2149 18.5349 7.10413 18.5951C6.99327 18.6554 6.8608 18.6854 6.70668 18.6854C6.55241 18.6854 6.41999 18.6554 6.30918 18.5951C6.19832 18.5349 6.14296 18.4494 6.14296 18.3385V13.7425C6.14296 13.651 6.18145 13.5715 6.25855 13.504C6.33557 13.4366 6.43673 13.4029 6.56207 13.4029H8.05795C8.57338 13.4029 8.98659 13.5366 9.29727 13.804C9.60801 14.0714 9.7634 14.4917 9.7634 15.065V15.1011H9.76349ZM13.8029 16.9801C13.8029 17.5679 13.6415 17.999 13.3188 18.2736C12.9959 18.5482 12.5647 18.6855 12.0253 18.6855H10.7462C10.6016 18.6855 10.4835 18.6519 10.3921 18.5844C10.3005 18.5169 10.2547 18.4374 10.2547 18.3459V13.7426C10.2547 13.6511 10.3005 13.5716 10.3921 13.5041C10.4835 13.4367 10.6017 13.403 10.7462 13.403H12.0253C12.5647 13.403 12.996 13.5403 13.3188 13.8149C13.6415 14.0895 13.8029 14.5208 13.8029 15.1084V16.9801ZM17.7666 14.2412C17.7063 14.3377 17.6232 14.3858 17.5173 14.3858H15.6457V15.6071H16.7369C16.8427 15.6071 16.9259 15.6504 16.9862 15.7371C17.0464 15.8238 17.0765 15.9275 17.0765 16.0479C17.0765 16.1587 17.0476 16.2574 16.9898 16.3441C16.932 16.4309 16.8476 16.4742 16.7369 16.4742H15.6457V18.3386C15.6457 18.4494 15.5902 18.5349 15.4795 18.5951C15.3686 18.6554 15.2361 18.6855 15.082 18.6855C14.9278 18.6855 14.7953 18.6554 14.6845 18.5951C14.5737 18.5349 14.5183 18.4494 14.5183 18.3386V13.7498C14.5183 13.639 14.5664 13.5535 14.6629 13.4933C14.7591 13.4331 14.8748 13.4029 15.0097 13.4029H17.5173C17.628 13.4029 17.7124 13.4511 17.7702 13.5475C17.828 13.6439 17.8569 13.7571 17.8569 13.8871C17.8569 14.0269 17.8267 14.1449 17.7666 14.2412Z" fill="#202124"/>
</g>
<defs>
<clipPath id="clip0_1775_15706">
<rect width="24" height="24" fill="white"/>
</clipPath>
</defs>
</svg>
