<svg width="24" height="24" viewBox="0 0 24 24" fill="none" xmlns="http://www.w3.org/2000/svg">
<g id="send">
<path id="send_2" d="M18.2347 2.21514L18.2347 2.21515L5.12189 5.49317L5.15221 5.61444L5.12189 5.49317C3.31794 5.94416 2.11267 7.4986 2.12609 9.35832C2.1395 11.218 3.36542 12.7549 5.17556 13.1811L5.17558 13.1811L9.74625 14.2564L10.8215 18.8261L10.8216 18.8261C11.2478 20.6362 12.7846 21.862 14.6442 21.8754H14.6451H14.6452H14.6452H14.6453H14.6453H14.6454H14.6454H14.6455H14.6455H14.6456H14.6457H14.6457H14.6458H14.6458H14.6459H14.6459H14.646H14.646H14.6461H14.6461H14.6462H14.6462H14.6463H14.6463H14.6464H14.6465H14.6465H14.6466H14.6466H14.6467H14.6467H14.6468H14.6468H14.6469H14.6469H14.647H14.647H14.6471H14.6471H14.6472H14.6473H14.6473H14.6474H14.6474H14.6475H14.6475H14.6476H14.6476H14.6477H14.6477H14.6478H14.6478H14.6479H14.648H14.648H14.6481H14.6481H14.6482H14.6482H14.6483H14.6483H14.6484H14.6484H14.6485H14.6485H14.6486H14.6487H14.6487H14.6488H14.6488H14.6489H14.6489H14.649H14.649H14.6491H14.6491H14.6492H14.6493H14.6493H14.6494H14.6494H14.6495H14.6495H14.6496H14.6496H14.6497H14.6497H14.6498H14.6499H14.6499H14.65H14.65H14.6501H14.6501H14.6502H14.6502H14.6503H14.6503H14.6504H14.6505H14.6505H14.6506H14.6506H14.6507H14.6507H14.6508H14.6508H14.6509H14.6509H14.651H14.6511H14.6511H14.6512H14.6512H14.6513H14.6513H14.6514H14.6514H14.6515H14.6516H14.6516H14.6517H14.6517H14.6518H14.6518H14.6519H14.6519H14.652H14.652H14.6521H14.6522H14.6522H14.6523H14.6523H14.6524H14.6524H14.6525H14.6525H14.6526H14.6527H14.6527H14.6528H14.6528H14.6529H14.6529H14.653H14.653H14.6531H14.6531H14.6532H14.6533H14.6533H14.6534H14.6534H14.6535H14.6535H14.6536H14.6536H14.6537H14.6538H14.6538H14.6539H14.6539H14.654H14.654H14.6541H14.6541H14.6542H14.6543H14.6543H14.6544H14.6544H14.6545H14.6545H14.6546H14.6546H14.6547H14.6548H14.6548H14.6549H14.6549H14.655H14.655H14.6551H14.6551H14.6552H14.6553H14.6553H14.6554H14.6554H14.6555H14.6555H14.6556H14.6556H14.6557H14.6558H14.6558H14.6559H14.6559H14.656H14.656H14.6561H14.6561H14.6562H14.6563H14.6563H14.6564H14.6564H14.6565H14.6565H14.6566H14.6567H14.6567H14.6568H14.6568H14.6569H14.6569H14.657H14.657H14.6571H14.6572H14.6572H14.6573H14.6573H14.6574H14.6574H14.6575H14.6575H14.6576H14.6577H14.6577H14.6578H14.6578H14.6579H14.6579H14.658H14.658H14.6581H14.6582H14.6582H14.6583H14.6583H14.6584H14.6584H14.6585H14.6586H14.6586H14.6587H14.6587H14.6588H14.6588H14.6589H14.6589H14.659H14.6591H14.6591H14.6592H14.6592H14.6593H14.6593H14.6594H14.6594H14.6595H14.6596H14.6596H14.6597H14.6597H14.6598H14.6598H14.6599H14.6599H14.66H14.6601H14.6601H14.6602H14.6602H14.6603H14.6603H14.6604H14.6605H14.6605H14.6606H14.6606H14.6607H14.6607H14.6608H14.6608H14.6609H14.661H14.661H14.6611H14.6611H14.6612H14.6612H14.6613H14.6613H14.6614H14.6615H14.6615H14.6616H14.6616H14.6617H14.6617H14.6618H14.6618H14.6619H14.662H14.662H14.6621H14.6621H14.6622H14.6622H14.6623H14.6623H14.6624H14.6625H14.6625H14.6626H14.6626H14.6627H14.6627H14.6628H14.6628H14.6629H14.663H14.663H14.6631H14.6631H14.6632H14.6632H14.6633H14.6634H14.6634H14.6635H14.6635H14.6636H14.6636H14.6637H14.6637H14.6638H14.6639H14.6639H14.664H14.664H14.6641H14.6641H14.6642H14.6642H14.6643H14.6644H14.6644H14.6645H14.6645H14.6646H14.6646H14.6647H14.6647H14.6648H14.6648H14.6649H14.665H14.665H14.6651H14.6651H14.6652H14.6652H14.6653H14.6653H14.6654H14.6655H14.6655H14.6656H14.6656H14.6657H14.6657H14.6658H14.6658H14.6659H14.666H14.666H14.6661H14.6661H14.6662H14.6662H14.6663H14.6663H14.6664H14.6665H14.6665H14.6666H14.6666H14.6667H14.6667H14.6668H14.6668H14.6669H14.6669H14.667H14.6671H14.6671H14.6672H14.6672H14.6673H14.6673H14.6674H14.6674H14.6675H14.6675H14.6676H14.6677H14.6677H14.6678H14.6678H14.6679H14.6679H14.668H14.668H14.6681H14.6682H14.6682H14.6683H14.6683H14.6684H14.6684H14.6685H14.6685H14.6686H14.6686H14.6687H14.6688H14.6688H14.6689H14.6689H14.669H14.669H14.6691H14.6691H14.6692H14.6692H14.6693H14.6693H14.6694H14.6695H14.6695H14.6696H14.6696H14.6697H14.6697H14.6698H14.6698H14.6699H14.6699H14.67H14.6701H14.6701H14.6702H14.6702H14.6703H14.6703H14.6704H14.6704H14.6705H14.6705H14.6706H14.6706H14.6707H14.6708H14.6708H14.6709H14.6709H14.671H14.671H14.6711H14.6711H14.6712H14.6712H14.6713H14.6713H14.6714H14.6715H14.6715H14.6716H14.6716H14.6717H14.6717H14.6718H14.6718H14.6719H14.6719H14.672H14.672H14.6721H14.6721H14.6722H14.6723H14.6723H14.6724H14.6724H14.6725H14.6725H14.6726H14.6726H14.6727H14.6727H14.6728H14.6728H14.6729H14.6729H14.673H14.673H14.6731H14.6732H14.6732C16.5196 21.8754 18.0594 20.6733 18.5083 18.8798L18.5083 18.8797L21.7864 5.76673L21.7865 5.76659C22.037 4.75915 21.7496 3.71913 21.0155 2.98503C20.2824 2.25198 19.2433 1.96352 18.2347 2.21514ZM14.6553 20.1254L14.655 20.1254C13.8505 20.1197 12.8181 19.6705 12.5249 18.4258L11.4368 13.8026L15.6185 9.61982C15.9603 9.278 15.9603 8.72385 15.6185 8.38204C15.2767 8.04022 14.7225 8.04022 14.3807 8.38204L10.198 12.5648L5.57464 11.4767C4.32898 11.1835 3.87984 10.1501 3.87413 9.34554C3.86842 8.54099 4.30346 7.50091 5.54434 7.19069L18.6574 3.91268L18.6576 3.91261C18.7545 3.88817 18.8523 3.87643 18.9481 3.87643C19.2548 3.87643 19.551 3.99714 19.7767 4.22282L19.7768 4.22295C20.0727 4.51792 20.1892 4.93582 20.0878 5.34218L16.8098 18.455C16.8098 18.455 16.8098 18.4551 16.8097 18.4551C16.4982 19.6982 15.5001 20.133 14.6553 20.1254Z" fill="#1890FF" stroke="#1890FF" stroke-width="0.25"/>
</g>
</svg>
