<svg width="24" height="24" viewBox="0 0 24 24" fill="none" xmlns="http://www.w3.org/2000/svg">
<path fill-rule="evenodd" clip-rule="evenodd" d="M20.2871 5.24346C20.6761 5.24346 21 5.56645 21 5.97745V6.35744C21 6.75844 20.6761 7.09144 20.2871 7.09144H3.71385C3.32386 7.09144 3 6.75844 3 6.35744V5.97745C3 5.56645 3.32386 5.24346 3.71385 5.24346H6.62957C7.22185 5.24346 7.7373 4.82246 7.87054 4.22847L8.02323 3.54647C8.26054 2.61748 9.0415 2.00049 9.93527 2.00049H14.0647C14.9488 2.00049 15.7385 2.61748 15.967 3.49747L16.1304 4.22747C16.2627 4.82246 16.7781 5.24346 17.3714 5.24346H20.2871ZM18.8056 19.1346C19.11 16.2977 19.643 9.55775 19.643 9.48975C19.6624 9.28375 19.5953 9.08875 19.4621 8.93175C19.3191 8.78475 19.1382 8.69775 18.9388 8.69775H5.06831C4.86796 8.69775 4.67734 8.78475 4.54507 8.93175C4.41086 9.08875 4.34473 9.28375 4.35445 9.48975C4.35624 9.50224 4.37536 9.73965 4.40733 10.1366C4.54937 11.8998 4.94495 16.8108 5.20057 19.1346C5.38147 20.8466 6.50477 21.9226 8.13185 21.9616C9.38741 21.9906 10.6809 22.0006 12.0036 22.0006C13.2494 22.0006 14.5147 21.9906 15.8092 21.9616C17.4927 21.9326 18.615 20.8756 18.8056 19.1346Z" fill="#202124"/>
</svg>
