<svg width="24" height="24" viewBox="0 0 24 24" fill="none" xmlns="http://www.w3.org/2000/svg">
<g id="icon/outlined/application/search">
<g id="Vector">
<path fill-rule="evenodd" clip-rule="evenodd" d="M16.6965 15.3101L22.0011 20.6145L20.6155 22L15.3109 16.6956L16.6965 15.3101Z" fill="#98999A"/>
<path fill-rule="evenodd" clip-rule="evenodd" d="M10.8179 3.95942C7.03011 3.95942 3.95953 7.02983 3.95953 10.8174C3.95953 14.6049 7.03011 17.6754 10.8179 17.6754C14.6056 17.6754 17.6762 14.6049 17.6762 10.8174C17.6762 7.02983 14.6056 3.95942 10.8179 3.95942ZM2 10.8174C2 5.94768 5.9479 2 10.8179 2C15.6878 2 19.6357 5.94768 19.6357 10.8174C19.6357 15.6871 15.6878 19.6348 10.8179 19.6348C5.9479 19.6348 2 15.6871 2 10.8174Z" fill="#98999A"/>
</g>
</g>
</svg>
