<svg width="120" height="90" viewBox="0 0 120 90" fill="none" xmlns="http://www.w3.org/2000/svg">
<path d="M106.25 0H13.75C6.165 0 0 6.165 0 13.75V76.25C0 83.835 6.165 90 13.75 90H106.25C113.835 90 120 83.835 120 76.25V13.75C120 6.165 113.835 0 106.25 0ZM37.5 20C44.39 20 50 25.61 50 32.5C50 39.39 44.39 45 37.5 45C30.61 45 25 39.39 25 32.5C25 25.61 30.61 20 37.5 20ZM60 66.25C60 68.32 58.32 70 56.25 70H18.75C16.68 70 15 68.32 15 66.25V63.75C15 56.165 21.165 50 28.75 50H46.25C53.835 50 60 56.165 60 63.75V66.25ZM101.25 70H73.75C71.68 70 70 68.32 70 66.25C70 64.18 71.68 62.5 73.75 62.5H101.25C103.32 62.5 105 64.18 105 66.25C105 68.32 103.32 70 101.25 70ZM101.25 50H73.75C71.68 50 70 48.32 70 46.25C70 44.18 71.68 42.5 73.75 42.5H101.25C103.32 42.5 105 44.18 105 46.25C105 48.32 103.32 50 101.25 50ZM101.25 30H73.75C71.68 30 70 28.32 70 26.25C70 24.18 71.68 22.5 73.75 22.5H101.25C103.32 22.5 105 24.18 105 26.25C105 28.32 103.32 30 101.25 30Z" fill="#BDC6DE"/>
<path d="M60 66.25C60 68.32 58.32 70 56.25 70H18.75C16.68 70 15 68.32 15 66.25V63.75C15 56.165 21.165 50 28.75 50H46.25C53.835 50 60 56.165 60 63.75V66.25Z" fill="#BDC6DE"/>
<path d="M37.5 20C44.39 20 50 25.61 50 32.5C50 39.39 44.39 45 37.5 45C30.61 45 25 39.39 25 32.5C25 25.61 30.61 20 37.5 20Z" fill="#BDC6DE"/>
<path d="M101.25 70H73.75C71.68 70 70 68.32 70 66.25C70 64.18 71.68 62.5 73.75 62.5H101.25C103.32 62.5 105 64.18 105 66.25C105 68.32 103.32 70 101.25 70Z" fill="#BDC6DE"/>
<path d="M101.25 50H73.75C71.68 50 70 48.32 70 46.25C70 44.18 71.68 42.5 73.75 42.5H101.25C103.32 42.5 105 44.18 105 46.25C105 48.32 103.32 50 101.25 50Z" fill="#BDC6DE"/>
<path d="M101.25 30H73.75C71.68 30 70 28.32 70 26.25C70 24.18 71.68 22.5 73.75 22.5H101.25C103.32 22.5 105 24.18 105 26.25C105 28.32 103.32 30 101.25 30Z" fill="#BDC6DE"/>
<rect x="17" y="13" width="86" height="31" rx="8" fill="white"/>
<rect x="17" y="57" width="86" height="8" rx="4" fill="white"/>
<rect x="17" y="69" width="86" height="8" rx="4" fill="white"/>
</svg>
