<svg width="48" height="48" viewBox="0 0 48 48" fill="none" xmlns="http://www.w3.org/2000/svg">
<mask id="mask0_2802_39957" style="mask-type:luminance" maskUnits="userSpaceOnUse" x="0" y="0" width="48" height="48">
<path d="M0 3.8147e-06H48V48H0V3.8147e-06Z" fill="white"/>
</mask>
<g mask="url(#mask0_2802_39957)">
<path d="M22.9688 1.03125C17.4698 1.03125 12.4229 2.96466 8.46863 6.1875V41.8125C12.4229 45.0353 17.4698 46.9688 22.9688 46.9688C35.6541 46.9688 45.9375 36.6853 45.9375 24C45.9375 11.3147 35.6541 1.03125 22.9688 1.03125Z" fill="#2B4896"/>
<path d="M48 9.9375V38.0625C48 40.1334 46.3209 41.8125 44.25 41.8125H8.4675C3.3 37.6013 0 31.1859 0 24C0 16.8141 3.3 10.3988 8.4675 6.1875H44.25C46.3209 6.1875 48 7.86656 48 9.9375Z" fill="#E9EFFF"/>
<path d="M0 24C0 31.1863 3.30103 37.6008 8.46863 41.8125H17.8125C15.7414 41.8125 14.0625 40.1335 14.0625 38.0625V9.9375C14.0625 7.86647 15.7414 6.1875 17.8125 6.1875H8.46863C3.30103 10.3992 0 16.8137 0 24Z" fill="#DAE2FE"/>
<path d="M44.25 11.8122C44.25 10.7767 43.4106 9.93723 42.375 9.93723H29.25C28.2144 9.93723 27.375 10.7767 27.375 11.8122V29.4004H44.25V11.8122Z" fill="#FF4155"/>
<path d="M31.125 11.8122C31.125 10.7767 31.9644 9.93723 33 9.93723H29.25C28.2144 9.93723 27.375 10.7767 27.375 11.8122V29.4004H31.125V11.8122Z" fill="#E80054"/>
<path d="M44.25 29.4005C44.2329 29.3831 44.216 29.3663 44.1991 29.3514C43.0677 28.3524 38.2271 27.5425 38.1023 27.5218H33.5227C33.3979 27.5425 28.5573 28.3524 27.4259 29.3514C27.409 29.3663 27.3921 29.3833 27.375 29.4007V30.5625C27.375 31.598 28.2144 32.4375 29.25 32.4375H42.375C43.4106 32.4375 44.25 31.598 44.25 30.5625V29.4005Z" fill="#FFDD40"/>
<path d="M31.125 30.5625V28.0051C29.6891 28.3393 28.0296 28.8184 27.4259 29.3514C27.409 29.3663 27.3921 29.3833 27.375 29.4007V30.5625C27.375 31.5981 28.2144 32.4375 29.25 32.4375H33C31.9644 32.4375 31.125 31.5981 31.125 30.5625Z" fill="#FFC839"/>
<path d="M38.1022 22.9867H33.5227V27.5212C33.5227 27.5212 34.4418 28.4922 35.802 28.4922C37.1623 28.4922 38.1022 27.5212 38.1022 27.5212V22.9867Z" fill="#FCAD6D"/>
<path d="M33.5228 22.987V27.5215C38.0999 27.5215 38.1023 24.9411 38.1023 24.9411V22.987H33.5228Z" fill="#FD995B"/>
<path d="M39.7686 14.0818C38.8126 13.0032 37.4675 12.3218 35.8125 12.3218C34.1574 12.3218 33.4455 12.5942 32.7792 12.9016C32.113 13.209 32.0685 14.5481 32.0685 14.5481C31.2386 15.4524 30.7318 16.6581 30.7318 17.9822V19.4355H40.8931V17.9822C40.8931 16.8705 40.7245 15.1604 39.7686 14.0818Z" fill="#5E5057"/>
<path d="M30.7319 19.4355H33.1001V16.3561C32.5284 16.1578 32.0761 15.5181 32.0686 14.5481C31.2386 15.4524 30.7319 16.6581 30.7319 17.9822V19.4355Z" fill="#4A3940"/>
<path d="M39.4394 20.0314C39.4394 20.0314 39.9412 18.8096 40.8358 19.0933C41.7303 19.3769 40.8141 22.0246 39.0685 22.1914L39.4394 20.0314Z" fill="#FCAD6D"/>
<path d="M32.1857 20.0314C32.1857 20.0314 31.6838 18.8096 30.7892 19.0933C29.8947 19.3769 30.8109 22.0246 32.5565 22.1914L32.1857 20.0314Z" fill="#FD995B"/>
<path d="M32.857 16.4243C32.3582 16.5904 31.9907 17.0176 31.8697 17.5292C31.7463 18.0512 31.5797 18.859 31.5797 19.413C31.5797 22.53 33.4748 26.1855 35.8125 26.1855C38.1502 26.1855 40.0454 22.53 40.0454 19.413C40.0454 19.3321 40.0437 19.3123 40.0412 19.2327C36.1073 19.2326 34.6203 15.8369 32.857 16.4243Z" fill="#F9BA8F"/>
<path d="M36.7789 25.9755C34.9069 25.1564 33.5125 22.0867 33.5125 19.413C33.5125 18.3513 33.7331 17.3919 34.1154 16.5874C33.6869 16.372 33.2798 16.2835 32.857 16.4244C32.3582 16.5905 31.9907 17.0177 31.8697 17.5293C31.7463 18.0512 31.5797 18.8591 31.5797 19.413C31.5797 22.53 33.4748 26.1855 35.8125 26.1855C36.145 26.1855 36.4684 26.1114 36.7789 25.9755Z" fill="#FCAD6D"/>
<path d="M7.07312 35.25H42.8438C43.6204 35.25 44.2501 35.8796 44.2501 36.6562C44.2501 37.4329 43.6204 38.0625 42.8438 38.0625H7.07312C6.2965 38.0625 5.66687 37.4329 5.66687 36.6562C5.66687 35.8796 6.2965 35.25 7.07312 35.25Z" fill="#4B6496"/>
<path d="M7.21875 12.3203H23.1562C23.9329 12.3203 24.5625 12.9499 24.5625 13.7266C24.5625 14.5033 23.9329 15.1328 23.1562 15.1328H7.21875C6.44212 15.1328 5.8125 14.5033 5.8125 13.7266C5.8125 12.9499 6.44212 12.3203 7.21875 12.3203Z" fill="#BEC8F7"/>
<path d="M6.51562 25.4062H23.8594C24.2478 25.4062 24.5625 25.7211 24.5625 26.1094C24.5625 26.4977 24.2478 26.8125 23.8594 26.8125H6.51562C6.12722 26.8125 5.8125 26.4977 5.8125 26.1094C5.8125 25.7211 6.12722 25.4062 6.51562 25.4062Z" fill="#BEC8F7"/>
<path d="M6.51562 28.2188H23.8594C24.2478 28.2188 24.5625 28.5336 24.5625 28.9219C24.5625 29.3102 24.2478 29.625 23.8594 29.625H6.51562C6.12722 29.625 5.8125 29.3102 5.8125 28.9219C5.8125 28.5336 6.12722 28.2188 6.51562 28.2188Z" fill="#BEC8F7"/>
<path d="M13.3634 28.9219C13.3634 28.5336 13.6781 28.2188 14.0665 28.2188H6.51562C6.12722 28.2188 5.8125 28.5336 5.8125 28.9219C5.8125 29.3102 6.12722 29.625 6.51562 29.625H14.0665C13.6781 29.625 13.3634 29.3102 13.3634 28.9219Z" fill="#ACBBEF"/>
<path d="M6.51562 31.0312H23.8594C24.2478 31.0312 24.5625 31.3461 24.5625 31.7344C24.5625 32.1227 24.2478 32.4375 23.8594 32.4375H6.51562C6.12722 32.4375 5.8125 32.1227 5.8125 31.7344C5.8125 31.3461 6.12722 31.0312 6.51562 31.0312Z" fill="#BEC8F7"/>
<path d="M13.3634 31.7344C13.3634 31.3461 13.6781 31.0312 14.0665 31.0312H6.51562C6.12722 31.0312 5.8125 31.3461 5.8125 31.7344C5.8125 32.1227 6.12722 32.4375 6.51562 32.4375H14.0665C13.6781 32.4375 13.3634 32.1227 13.3634 31.7344Z" fill="#ACBBEF"/>
<path d="M13.3634 26.1094C13.3634 25.7211 13.6781 25.4062 14.0665 25.4062H6.51562C6.12722 25.4062 5.8125 25.7211 5.8125 26.1094C5.8125 26.4977 6.12722 26.8125 6.51562 26.8125H14.0665C13.6781 26.8125 13.3634 26.4977 13.3634 26.1094Z" fill="#ACBBEF"/>
<path d="M12.684 36.6562C12.684 35.8796 13.3136 35.25 14.0902 35.25H7.07306C6.29643 35.25 5.66681 35.8796 5.66681 36.6562C5.66681 37.4329 6.29643 38.0625 7.07306 38.0625H14.0902C13.3136 38.0625 12.684 37.4329 12.684 36.6562Z" fill="#3C5082"/>
<path d="M12.684 13.7266C12.684 12.9499 13.3136 12.3203 14.0902 12.3203H7.07306C6.29643 12.3203 5.66681 12.9499 5.66681 13.7266C5.66681 14.5033 6.29643 15.1328 7.07306 15.1328H14.0902C13.3136 15.1328 12.684 14.5033 12.684 13.7266Z" fill="#ACBBEF"/>
</g>
</svg>
