<svg width="32" height="32" viewBox="0 0 32 32" fill="none" xmlns="http://www.w3.org/2000/svg">
<path d="M16.3609 14.6614C16.2272 14.7958 16.0449 14.8708 15.8555 14.8708C15.6661 14.8708 15.4838 14.7958 15.3501 14.6614L11.3142 10.6247C10.8953 10.2058 10.8953 9.52673 11.3142 9.10855L11.8196 8.60317C12.2384 8.18427 12.9168 8.18427 13.3357 8.60317L15.8555 11.123L22.6643 4.31417C23.0832 3.89528 23.7623 3.89528 24.1804 4.31417L24.6858 4.81956C25.1047 5.23845 25.1047 5.91754 24.6858 6.33572L16.3609 14.6614Z" fill="#43A048"/>
<path d="M25.8293 20.39C21.7386 19.2114 20.2933 16.5714 20.2773 16.5447C20.1973 16.39 20.0426 16.2834 19.8666 16.262C19.6906 16.246 19.5146 16.3154 19.3973 16.4487L16 20.47L12.6026 16.4487C12.4853 16.3154 12.3146 16.246 12.1386 16.2674C11.9626 16.2834 11.808 16.39 11.7226 16.5447C11.7066 16.5714 10.2613 19.2114 6.17595 20.39C5.75995 20.5074 4.90129 20.758 5.79195 28.8594C5.81862 29.126 6.04795 29.334 6.31995 29.334H25.68C25.952 29.334 26.1813 29.126 26.208 28.8594C27.0986 20.758 26.24 20.5074 25.8293 20.39Z" fill="#43A048"/>
</svg>
