<svg width="120" height="120" viewBox="0 0 120 120" fill="none" xmlns="http://www.w3.org/2000/svg">
<path d="M39.4761 100.293L27.8436 104.365C26.8649 104.707 26.3511 105.775 26.6924 106.754C27.0336 107.733 28.1061 108.254 29.0811 107.905L40.5074 103.904C39.9674 102.783 39.6224 101.56 39.4761 100.293Z" fill="#2B4896"/>
<path d="M92.3659 104.441L80.5234 100.297C80.3734 101.564 80.0359 102.787 79.4922 103.904L91.1322 107.977C91.3384 108.052 91.5447 108.082 91.7509 108.082C92.5272 108.082 93.2509 107.598 93.5209 106.826C93.8584 105.851 93.3447 104.778 92.3659 104.441Z" fill="#2B4896"/>
<path d="M90.0936 42.99L89.4074 43.2187C89.3586 44.5612 89.3024 45.8962 89.2424 47.2275L91.2786 46.5487C92.3474 46.1887 93.7499 46.9087 93.7499 48.3262V53.7675C93.7499 57.525 91.5036 60.8587 88.1061 62.3362C87.9374 63.7987 87.7499 65.2012 87.5474 66.5437L88.5261 66.2175C93.8924 64.4287 97.4999 59.4262 97.4999 53.7675V48.3262C97.4999 44.6175 93.6486 41.7975 90.0936 42.99Z" fill="#2B4896"/>
<path d="M26.25 53.7668V48.3255C26.25 47.1668 27.2213 46.4468 28.1213 46.4468C28.32 46.4468 28.5225 46.4805 28.7175 46.5443L30.795 47.238C30.7312 45.9105 30.675 44.5718 30.63 43.2293L29.9062 42.9893C26.3325 41.793 22.5 44.6168 22.5 48.3255V53.7668C22.5 59.4255 26.1075 64.428 31.4737 66.2168L32.475 66.5505C32.2725 65.2118 32.0887 63.813 31.9275 62.3505C28.5112 60.8768 26.25 57.5393 26.25 53.7668Z" fill="#2B4896"/>
<path d="M78.75 86.2484V98.9946C78.75 102.921 76.2713 106.465 72.5775 107.807L60 112.378L47.4225 107.807C43.7287 106.465 41.25 102.921 41.25 98.9946V86.2484H41.9625C40.8525 85.0334 39.8138 83.8109 38.8463 82.6034C38.0738 82.8359 37.5 83.5221 37.5 84.3734V98.9946C37.5 104.492 40.9725 109.45 46.14 111.328L59.3588 116.136C59.565 116.211 59.7825 116.248 60 116.248C60.2175 116.248 60.435 116.211 60.6412 116.136L73.86 111.328C79.0275 109.45 82.5 104.492 82.5 98.9946V84.3734C82.5 83.5184 81.915 82.8246 81.135 82.5996C80.1675 83.8034 79.1288 85.0259 78.015 86.2484H78.75Z" fill="#2B4896"/>
<path d="M66.7836 97.5H53.2274C52.9536 97.5 52.6799 97.44 52.4324 97.3237C46.1436 94.3837 37.9649 85.1138 34.4136 79.7775C30.9636 74.5912 29.0999 60.6938 28.5411 36.0338C28.3461 27.4463 31.5411 19.3425 37.5299 13.215C43.4961 7.11 51.4836 3.75 60.0186 3.75C68.5461 3.75 76.5299 7.11 82.4961 13.2037C88.4886 19.3312 91.6836 27.4312 91.4961 36.015C90.9486 60.705 89.0549 74.64 85.5224 79.8638C81.9111 85.2113 73.7099 94.455 67.5749 97.3237C67.3274 97.44 67.0574 97.5 66.7836 97.5ZM53.6586 93.75H66.3486C71.1749 91.2862 78.4686 83.6025 82.4174 77.7675C85.4399 73.2938 87.2324 59.22 87.7461 35.9325C87.9111 28.365 85.0949 21.2288 79.8149 15.8288C74.5611 10.4588 67.5299 7.5 60.0186 7.5C52.4999 7.5 45.4686 10.4625 40.2149 15.8363C34.9349 21.2362 32.1186 28.38 32.2911 35.9512C32.8161 59.2125 34.5824 73.26 37.5336 77.7C41.3286 83.4037 48.7761 91.2525 53.6586 93.75Z" fill="#2B4896"/>
<path d="M9.375 97.5C10.41 97.5 11.25 98.34 11.25 99.375V108.75H20.625C21.66 108.75 22.5 109.59 22.5 110.625C22.5 111.66 21.66 112.5 20.625 112.5H9.375C8.34 112.5 7.5 111.66 7.5 110.625V99.375C7.5 98.34 8.34 97.5 9.375 97.5Z" fill="#2B4896"/>
<path d="M110.625 97.5C111.66 97.5 112.5 98.34 112.5 99.375V110.625C112.5 111.66 111.66 112.5 110.625 112.5H99.375C98.34 112.5 97.5 111.66 97.5 110.625C97.5 109.59 98.34 108.75 99.375 108.75H108.75V99.375C108.75 98.34 109.59 97.5 110.625 97.5Z" fill="#2B4896"/>
<path d="M110.625 22.5C109.59 22.5 108.75 21.66 108.75 20.625V11.25H99.375C98.34 11.25 97.5 10.41 97.5 9.375C97.5 8.34 98.34 7.5 99.375 7.5H110.625C111.66 7.5 112.5 8.34 112.5 9.375V20.625C112.5 21.66 111.66 22.5 110.625 22.5Z" fill="#2B4896"/>
<path d="M9.375 22.5C8.34 22.5 7.5 21.66 7.5 20.625V9.375C7.5 8.34 8.34 7.5 9.375 7.5H20.625C21.66 7.5 22.5 8.34 22.5 9.375C22.5 10.41 21.66 11.25 20.625 11.25H11.25V20.625C11.25 21.66 10.41 22.5 9.375 22.5Z" fill="#2B4896"/>
</svg>
