<svg width="120" height="120" viewBox="0 0 120 120" fill="none" xmlns="http://www.w3.org/2000/svg">
<g clip-path="url(#clip0_3349_38880)">
<path d="M106.25 15H13.75C6.165 15 0 21.165 0 28.75V91.25C0 98.835 6.165 105 13.75 105H106.25C113.835 105 120 98.835 120 91.25V28.75C120 21.165 113.835 15 106.25 15ZM37.5 35C44.39 35 50 40.61 50 47.5C50 54.39 44.39 60 37.5 60C30.61 60 25 54.39 25 47.5C25 40.61 30.61 35 37.5 35ZM60 81.25C60 83.32 58.32 85 56.25 85H18.75C16.68 85 15 83.32 15 81.25V78.75C15 71.165 21.165 65 28.75 65H46.25C53.835 65 60 71.165 60 78.75V81.25ZM101.25 85H73.75C71.68 85 70 83.32 70 81.25C70 79.18 71.68 77.5 73.75 77.5H101.25C103.32 77.5 105 79.18 105 81.25C105 83.32 103.32 85 101.25 85ZM101.25 65H73.75C71.68 65 70 63.32 70 61.25C70 59.18 71.68 57.5 73.75 57.5H101.25C103.32 57.5 105 59.18 105 61.25C105 63.32 103.32 65 101.25 65ZM101.25 45H73.75C71.68 45 70 43.32 70 41.25C70 39.18 71.68 37.5 73.75 37.5H101.25C103.32 37.5 105 39.18 105 41.25C105 43.32 103.32 45 101.25 45Z" fill="#BDC6DE"/>
</g>
<defs>
<clipPath id="clip0_3349_38880">
<rect width="120" height="120" fill="white"/>
</clipPath>
</defs>
</svg>
