<svg width="320" height="320" viewBox="0 0 320 320" fill="none" xmlns="http://www.w3.org/2000/svg">
<path d="M293.455 71.6799C293.455 71.6799 204.793 160.244 203.91 160.958C194.636 168.465 182.167 170.076 171.516 165.79C171.477 165.764 171.425 165.751 171.373 165.725C168.295 164.491 164.905 164.049 161.567 164.478L157.761 155.231C160.32 154.958 162.853 154.127 165.23 152.75C174.556 147.36 177.478 135.593 172.361 126.099C168.581 119.073 157.969 116.059 157.969 116.059C143.59 111.501 128.069 111.618 113.755 116.371C103.559 119.761 93.9735 125.515 85.8556 133.632L8.35176 211.13C2.93546 195.077 0 177.882 0 159.997C0 71.628 71.6459 0 160.008 0C177.231 0 193.818 2.72745 209.378 7.75375L145.877 71.2513C138.07 79.057 138.07 91.7072 145.877 99.5129C153.618 107.241 166.113 107.319 173.932 99.7077C173.997 99.6428 174.075 99.5778 174.14 99.5129C174.205 99.448 174.27 99.37 174.335 99.3051L247.578 26.0666C265.789 37.9895 281.427 53.5489 293.455 71.6799Z" fill="#2B4896" fill-opacity="0.08"/>
<path d="M320 160.003C320 248.359 248.367 320 159.991 320C142.379 320 125.428 317.156 109.569 311.896L173.383 248.073L174.292 247.164C181.657 239.333 181.501 227.02 173.85 219.37C166.278 211.798 154.172 211.565 146.314 218.656L71.5901 293.375C53.4578 281.335 37.9233 265.698 25.9996 247.476C25.9996 247.476 114.167 159.379 114.959 158.73C124.143 151.145 136.534 149.418 147.198 153.535C147.665 153.756 153.588 155.678 157.744 155.223L161.55 164.471C159.043 164.782 156.549 165.601 154.211 166.938C144.821 172.354 141.599 184.381 147.029 193.771C147.029 193.771 151.185 201.317 160.966 203.668C175.318 208.188 190.814 208.084 205.114 203.33C215.323 199.927 224.909 194.174 233.027 186.056L311.284 107.805C316.921 124.156 319.987 141.716 319.987 159.99L320 160.003Z" fill="#2B4896" fill-opacity="0.08"/>
</svg>
