<svg width="150" height="150" viewBox="0 0 150 150" fill="none" xmlns="http://www.w3.org/2000/svg">
<g clip-path="url(#clip0_1_439)">
<path d="M144.721 74.9967C147.038 72.299 148.661 69.0769 149.451 65.6098C150.24 62.1427 150.172 58.5354 149.251 55.1008C148.331 51.6662 146.586 48.508 144.169 45.9002C141.752 43.2924 138.735 41.3138 135.38 40.136C136.037 36.6413 135.832 33.0391 134.782 29.6417C133.732 26.2443 131.869 23.1545 129.354 20.6402C126.84 18.1259 123.749 16.2632 120.352 15.2136C116.954 14.1639 113.352 13.9592 109.858 14.617C108.681 11.2612 106.702 8.24331 104.095 5.82546C101.487 3.40761 98.3282 1.66285 94.8931 0.74266C91.458 -0.177534 87.8501 -0.245343 84.3829 0.545118C80.9156 1.33558 77.6937 2.96042 74.9969 5.27857C72.2992 2.96202 69.0771 1.33864 65.61 0.54927C62.143 -0.240099 58.5356 -0.171622 55.101 0.74876C51.6664 1.66914 48.5082 3.41363 45.9004 5.83089C43.2926 8.24815 41.314 11.2652 40.1362 14.6202C36.6418 13.9635 33.0399 14.1692 29.643 15.2195C26.246 16.2698 23.1566 18.133 20.6428 20.6475C18.1289 23.162 16.2665 26.2519 15.217 29.6491C14.1676 33.0463 13.9628 36.6482 14.6205 40.1425C11.2654 41.3203 8.24836 43.2989 5.8311 45.9067C3.41384 48.5145 1.66934 51.6727 0.74896 55.1073C-0.171422 58.5419 -0.23991 62.1492 0.549459 65.6163C1.33883 69.0834 2.96223 72.3055 5.27879 75.0032C2.96153 77.7007 1.33762 80.9231 0.548031 84.3905C-0.241563 87.8579 -0.173015 91.4657 0.747769 94.9006C1.66855 98.3355 3.41373 101.494 5.83182 104.101C8.24991 106.709 11.2679 108.687 14.6237 109.864C13.9655 113.358 14.17 116.96 15.2196 120.358C16.2692 123.755 18.1321 126.845 20.6466 129.359C23.1611 131.873 26.2512 133.736 29.6487 134.785C33.0462 135.834 36.6484 136.038 40.1427 135.38C41.3205 138.735 43.2991 141.752 45.9069 144.169C48.5147 146.586 51.6729 148.331 55.1075 149.251C58.5421 150.171 62.1494 150.24 65.6165 149.451C69.0836 148.661 72.3057 147.038 75.0034 144.721C77.701 147.038 80.9233 148.662 84.3907 149.452C87.8582 150.242 91.4659 150.173 94.9008 149.252C98.3357 148.331 101.494 146.586 104.102 144.168C106.709 141.75 108.687 138.732 109.864 135.376C113.359 136.034 116.961 135.83 120.358 134.78C123.756 133.73 126.846 131.868 129.36 129.353C131.874 126.839 133.737 123.749 134.787 120.351C135.836 116.954 136.041 113.352 135.383 109.857C138.738 108.68 141.756 106.701 144.173 104.093C146.59 101.485 148.335 98.327 149.255 94.8922C150.175 91.4574 150.243 87.8499 149.453 84.3828C148.663 80.9157 147.039 77.6938 144.721 74.9967Z" fill="#2B4896"/>
<path d="M61.5368 103.626L40.6952 82.7976C39.9042 82.0053 39.4599 80.9316 39.4599 79.8121C39.4599 78.6926 39.9042 77.6188 40.6952 76.8266L43.2272 74.2913C44.0195 73.5003 45.0932 73.056 46.2127 73.056C47.3322 73.056 48.406 73.5003 49.1982 74.2913L64.3484 89.4317L100.028 51.5156C100.796 50.701 101.856 50.2243 102.974 50.1902C104.093 50.1561 105.18 50.5673 105.996 51.3336L108.596 53.7877C109.412 54.5555 109.889 55.6158 109.923 56.7355C109.957 57.8552 109.546 58.9426 108.778 59.7587L67.6086 103.532C67.221 103.945 66.7542 104.276 66.2361 104.505C65.718 104.734 65.1591 104.857 64.5927 104.866C64.0262 104.875 63.4638 104.769 62.9388 104.556C62.4138 104.343 61.9371 104.027 61.5368 103.626Z" fill="white"/>
</g>
<defs>
<clipPath id="clip0_1_439">
<rect width="150" height="150" fill="white"/>
</clipPath>
</defs>
</svg>
