<svg width="39" height="37" viewBox="0 0 39 37" fill="none" xmlns="http://www.w3.org/2000/svg">
<g filter="url(#filter0_i_3182_20147)">
<path d="M27 16.5C26.9856 15.9844 26.8284 15.4823 26.545 15.0504C26.2625 14.6194 25.8649 14.2746 25.3972 14.0559C25.5752 13.5714 25.6127 13.0469 25.5089 12.5417C25.4044 12.0356 25.1601 11.5694 24.8049 11.1951C24.4298 10.8399 23.9644 10.5964 23.4583 10.4911C22.9531 10.3873 22.4286 10.4248 21.9441 10.6028C21.7262 10.1343 21.3822 9.73595 20.9504 9.45338C20.5185 9.17082 20.0164 9.01277 19.5 9C18.9844 9.01357 18.4839 9.17002 18.0528 9.45338C17.6218 9.73675 17.2794 10.1351 17.0631 10.6028C16.5777 10.4248 16.0517 10.3857 15.5449 10.4911C15.038 10.5948 14.571 10.8391 14.1959 11.1951C13.8407 11.5702 13.598 12.0372 13.4951 12.5425C13.3913 13.0477 13.4312 13.5722 13.61 14.0559C13.1414 14.2746 12.7423 14.6186 12.4582 15.0496C12.174 15.4807 12.0152 15.9836 12 16.5C12.016 17.0164 12.174 17.5185 12.4582 17.9504C12.7423 18.3814 13.1414 18.7262 13.61 18.9441C13.4312 19.4278 13.3913 19.9523 13.4951 20.4575C13.5988 20.9636 13.8407 21.4298 14.1951 21.8049C14.5702 22.1585 15.0364 22.4012 15.5417 22.5057C16.0469 22.6111 16.5714 22.5728 17.0559 22.3972C17.2746 22.8649 17.6186 23.2625 18.0504 23.5458C18.4815 23.8284 18.9844 23.9856 19.5 24C20.0164 23.9872 20.5185 23.83 20.9504 23.5474C21.3822 23.2648 21.7262 22.8657 21.9441 22.398C22.4262 22.5888 22.9547 22.6343 23.4631 22.5289C23.9708 22.4235 24.4369 22.1721 24.8041 21.8049C25.1713 21.4377 25.4235 20.9716 25.5289 20.4631C25.6343 19.9547 25.5888 19.4262 25.3972 18.9441C25.8649 18.7254 26.2625 18.3814 26.5458 17.9496C26.8284 17.5185 26.9856 17.0156 27 16.5Z" fill="#0080FF"/>
</g>
<g filter="url(#filter1_d_3182_20147)">
<path d="M18.7579 18.9375L16.5 16.6949L17.3514 15.8432L18.7158 17.1987L21.613 14.0625L22.5 14.8776L18.7579 18.9375Z" fill="#1D9BF0"/>
<path d="M18.7579 18.9375L16.5 16.6949L17.3514 15.8432L18.7158 17.1987L21.613 14.0625L22.5 14.8776L18.7579 18.9375Z" fill="white"/>
</g>
<defs>
<filter id="filter0_i_3182_20147" x="12" y="9" width="15" height="15" filterUnits="userSpaceOnUse" color-interpolation-filters="sRGB">
<feFlood flood-opacity="0" result="BackgroundImageFix"/>
<feBlend mode="normal" in="SourceGraphic" in2="BackgroundImageFix" result="shape"/>
<feColorMatrix in="SourceAlpha" type="matrix" values="0 0 0 0 0 0 0 0 0 0 0 0 0 0 0 0 0 0 127 0" result="hardAlpha"/>
<feOffset/>
<feGaussianBlur stdDeviation="2"/>
<feComposite in2="hardAlpha" operator="arithmetic" k2="-1" k3="1"/>
<feColorMatrix type="matrix" values="0 0 0 0 1 0 0 0 0 1 0 0 0 0 1 0 0 0 1 0"/>
<feBlend mode="normal" in2="shape" result="effect1_innerShadow_3182_20147"/>
</filter>
<filter id="filter1_d_3182_20147" x="0.5" y="0.0625" width="38" height="36.875" filterUnits="userSpaceOnUse" color-interpolation-filters="sRGB">
<feFlood flood-opacity="0" result="BackgroundImageFix"/>
<feColorMatrix in="SourceAlpha" type="matrix" values="0 0 0 0 0 0 0 0 0 0 0 0 0 0 0 0 0 0 127 0" result="hardAlpha"/>
<feOffset dy="2"/>
<feGaussianBlur stdDeviation="8"/>
<feComposite in2="hardAlpha" operator="out"/>
<feColorMatrix type="matrix" values="0 0 0 0 0 0 0 0 0 0 0 0 0 0 0 0 0 0 0.12 0"/>
<feBlend mode="normal" in2="BackgroundImageFix" result="effect1_dropShadow_3182_20147"/>
<feBlend mode="normal" in="SourceGraphic" in2="effect1_dropShadow_3182_20147" result="shape"/>
</filter>
</defs>
</svg>
