<svg width="24" height="24" viewBox="0 0 24 24" fill="none" xmlns="http://www.w3.org/2000/svg">
<g clip-path="url(#clip0_2191_56553)">
<path d="M12 0C18.617 0 24 5.38298 24 12C24 18.617 18.617 24 12 24C5.38298 24 0 18.617 0 12C0 5.38298 5.38298 0 12 0ZM8.29298 12.707L13.293 17.707C13.488 17.902 13.744 18 14 18C14.256 18 14.512 17.902 14.707 17.707C15.098 17.316 15.098 16.684 14.707 16.293L10.414 12L14.707 7.707C15.098 7.31602 15.098 6.684 14.707 6.29302C14.316 5.90203 13.684 5.90203 13.293 6.29302L8.29298 11.293C7.902 11.684 7.902 12.316 8.29298 12.707Z" fill="#202124"/>
</g>
<defs>
<clipPath id="clip0_2191_56553">
<rect width="24" height="24" fill="white" transform="matrix(-1 0 0 1 24 0)"/>
</clipPath>
</defs>
</svg>
