<svg width="24" height="24" viewBox="0 0 24 24" fill="none" xmlns="http://www.w3.org/2000/svg">
<g id="google 2">
<path id="Vector" d="M12 1C5.9 1 1 5.9 1 12C1 18.1 5.9 23 12 23C18.1 23 23 18.1 23 12C23 5.9 18.1 1 12 1ZM9.2 7.6L10.3 6.5L12 4.8L13.7 6.5L14.8 7.6L16.4 9.2L14.7 10.9L13.1 9.3L12 8.2L10.9 9.3L9.3 10.9L7.6 9.2L9.2 7.6ZM13.6 12L12 13.6L10.4 12L12 10.4L13.6 12ZM4.8 12L6.5 10.3L8.2 12L6.5 13.7L4.8 12ZM12 19.2L10.3 17.5L9.2 16.4L7.6 14.8L9.3 13.1L10.9 14.7L12 15.8L13.1 14.7L14.7 13.1L16.4 14.8L12 19.2ZM17.5 13.7L15.8 12L17.5 10.3L19.2 12L17.5 13.7Z" fill="#F0B90B"/>
</g>
</svg>
