<svg width="15" height="15" viewBox="0 0 15 15" fill="none" xmlns="http://www.w3.org/2000/svg">
<path fill-rule="evenodd" clip-rule="evenodd" d="M12.0851 3.55775C12.3121 3.55775 12.501 3.74616 12.501 3.98591V4.20757C12.501 4.44149 12.3121 4.63574 12.0851 4.63574H2.41739C2.18989 4.63574 2.00098 4.44149 2.00098 4.20757V3.98591C2.00098 3.74616 2.18989 3.55775 2.41739 3.55775H4.11822C4.46372 3.55775 4.7644 3.31217 4.84213 2.96567L4.9312 2.56784C5.06962 2.02593 5.52518 1.66602 6.04655 1.66602H8.4554C8.9711 1.66602 9.43176 2.02593 9.56508 2.53926L9.66039 2.96509C9.73755 3.31217 10.0382 3.55775 10.3843 3.55775H12.0851ZM11.2209 11.6609C11.3985 10.006 11.7094 6.07442 11.7094 6.03475C11.7207 5.91458 11.6816 5.80084 11.6039 5.70925C11.5205 5.6235 11.4149 5.57275 11.2986 5.57275H3.20749C3.09062 5.57275 2.97943 5.6235 2.90227 5.70925C2.82398 5.80084 2.7854 5.91458 2.79107 6.03475C2.79212 6.04204 2.80327 6.18053 2.82192 6.41206C2.90477 7.44062 3.13553 10.3054 3.28464 11.6609C3.39017 12.6596 4.04542 13.2873 4.99455 13.31C5.72697 13.3269 6.48151 13.3328 7.25306 13.3328C7.9798 13.3328 8.71789 13.3269 9.473 13.31C10.455 13.2931 11.1097 12.6765 11.2209 11.6609Z" fill="#202124"/>
</svg>
