<svg width="40" height="52" viewBox="0 0 40 52" fill="none" xmlns="http://www.w3.org/2000/svg">
<g filter="url(#filter0_d_379_193847)">
<path d="M20.1316 17C21.5789 17 22.7632 15.875 22.7632 14.5C22.7632 13.125 21.5789 12 20.1316 12C18.6842 12 17.5 13.125 17.5 14.5C17.5 15.875 18.6842 17 20.1316 17ZM20.1316 19.5C18.6842 19.5 17.5 20.625 17.5 22C17.5 23.375 18.6842 24.5 20.1316 24.5C21.5789 24.5 22.7632 23.375 22.7632 22C22.7632 20.625 21.5789 19.5 20.1316 19.5ZM20.1316 27C18.6842 27 17.5 28.125 17.5 29.5C17.5 30.875 18.6842 32 20.1316 32C21.5789 32 22.7632 30.875 22.7632 29.5C22.7632 28.125 21.5789 27 20.1316 27Z" fill="#202124"/>
</g>
<defs>
<filter id="filter0_d_379_193847" x="-16" y="-10" width="72" height="72" filterUnits="userSpaceOnUse" color-interpolation-filters="sRGB">
<feFlood flood-opacity="0" result="BackgroundImageFix"/>
<feColorMatrix in="SourceAlpha" type="matrix" values="0 0 0 0 0 0 0 0 0 0 0 0 0 0 0 0 0 0 127 0" result="hardAlpha"/>
<feOffset dy="4"/>
<feGaussianBlur stdDeviation="8"/>
<feComposite in2="hardAlpha" operator="out"/>
<feColorMatrix type="matrix" values="0 0 0 0 0.85098 0 0 0 0 0.85098 0 0 0 0 0.85098 0 0 0 0.32 0"/>
<feBlend mode="normal" in2="BackgroundImageFix" result="effect1_dropShadow_379_193847"/>
<feBlend mode="normal" in="SourceGraphic" in2="effect1_dropShadow_379_193847" result="shape"/>
</filter>
</defs>
</svg>
