<svg width="32" height="32" viewBox="0 0 32 32" fill="none" xmlns="http://www.w3.org/2000/svg">
<g clip-path="url(#clip0_2202_27293)">
<path d="M28 5.33366C27.2631 5.33366 26.6667 5.93073 26.6667 6.66699V8.00499C24.191 4.71113 20.2647 2.66699 16 2.66699C9.73056 2.66699 4.38283 6.93193 2.99616 13.0381C2.83336 13.7562 3.28389 14.471 4.00136 14.6338C4.10163 14.6566 4.20056 14.667 4.29816 14.667C4.90629 14.667 5.45696 14.2477 5.59763 13.6293C6.70576 8.74513 10.9844 5.33366 16 5.33366C19.8462 5.33366 23.3355 7.42099 25.2191 10.667H22.6667C21.9298 10.667 21.3334 11.2641 21.3334 12.0003C21.3334 12.7366 21.9298 13.3337 22.6667 13.3337H28C28.737 13.3337 29.3334 12.7366 29.3334 12.0003V6.66699C29.3334 5.93073 28.737 5.33366 28 5.33366Z" fill="#2B4896"/>
<path d="M4.00008 26.6669C4.73701 26.6669 5.33341 26.0698 5.33341 25.3336V23.9666C7.82248 27.3136 11.7177 29.3336 16.0001 29.3336C22.2695 29.3336 27.6173 25.0686 29.0039 18.9625C29.1667 18.2444 28.7162 17.5296 27.9987 17.3668C27.2736 17.1994 26.5651 17.6532 26.4023 18.3713C25.2943 23.2554 21.0157 26.6669 16.0001 26.6669C12.1526 26.6669 8.69608 24.6302 6.78928 21.3336H9.33342C10.0703 21.3336 10.6667 20.7365 10.6667 20.0002C10.6667 19.264 10.0703 18.6669 9.33342 18.6669H4.00008C3.26315 18.6669 2.66675 19.264 2.66675 20.0002V25.3336C2.66675 26.0698 3.26315 26.6669 4.00008 26.6669Z" fill="#2B4896"/>
</g>
<defs>
<clipPath id="clip0_2202_27293">
<rect width="32" height="32" fill="white"/>
</clipPath>
</defs>
</svg>
