<svg width="24" height="24" viewBox="0 0 24 24" fill="none" xmlns="http://www.w3.org/2000/svg">
<path fill-rule="evenodd" clip-rule="evenodd" d="M2.02148 12.6685C2.02148 10.2893 3.89542 8.34739 6.24772 8.23837L6.45648 8.23354H7.38948C7.8037 8.23354 8.13948 8.56933 8.13948 8.98354C8.13948 9.36323 7.85733 9.67703 7.49125 9.72669L7.38948 9.73354H6.45648C4.89358 9.73354 3.61575 10.9556 3.52647 12.4961L3.52148 12.6685L3.52148 17.5435C3.52148 19.1056 4.74362 20.3833 6.28406 20.4726L6.45648 20.4775H17.5865C19.1493 20.4775 20.4272 19.2556 20.5165 17.7159L20.5215 17.5435V12.6585C20.5215 11.1012 19.3039 9.8275 17.7693 9.73851L17.5975 9.73354H16.6545C16.2403 9.73354 15.9045 9.39775 15.9045 8.98354C15.9045 8.60384 16.1866 8.29005 16.5527 8.24039L16.6545 8.23354H17.5975C19.9687 8.23354 21.9046 10.1003 22.0164 12.4442L22.0215 12.6585V17.5435C22.0215 19.922 20.1474 21.8637 17.7952 21.9727L17.5865 21.9775H6.45648C4.07743 21.9775 2.13535 20.1038 2.02631 17.7522L2.02148 17.5435V12.6685ZM11.4797 1.67133C11.6162 1.52879 11.8084 1.44004 12.0214 1.44004C12.2365 1.44004 12.4304 1.53058 12.5672 1.67564L15.4687 4.5891C15.761 4.88259 15.76 5.35747 15.4665 5.64976C15.1997 5.91548 14.783 5.93883 14.4898 5.72037L14.4059 5.64758L12.7714 4.00751L12.7714 14.231C12.7714 14.6453 12.4356 14.981 12.0214 14.981C11.6417 14.981 11.3279 14.6989 11.2782 14.3328L11.2714 14.231L11.2714 4.00583L9.63779 5.64749C9.37212 5.91435 8.95551 5.93948 8.66142 5.72228L8.57714 5.64985C8.31028 5.38417 8.28514 4.96757 8.50234 4.67347L8.57478 4.58919L11.4797 1.67133Z" fill="#202124"/>
</svg>
