<svg width="24" height="24" viewBox="0 0 24 24" fill="none" xmlns="http://www.w3.org/2000/svg">
<path d="M5.2 8.5H2V19C2 20.6569 3.34315 22 5 22H12.3924C10.3596 20.7751 9 18.5463 9 16C9 12.134 12.134 9 16 9C16.695 9 17.3663 9.10128 18 9.28988V5C18 3.34315 16.6569 2 15 2H8.5V5.2C8.5 7.02254 7.02254 8.5 5.2 8.5Z" fill="#202124"/>
<path d="M7.29271 2.29271C7.35505 2.23038 7.42477 2.17712 7.49982 2.13379V5.19982C7.49982 6.47007 6.47007 7.49982 5.19982 7.49982H2.13379C2.17712 7.42477 2.23038 7.35505 2.29271 7.29271L7.29271 2.29271Z" fill="#202124"/>
<path fill-rule="evenodd" clip-rule="evenodd" d="M10 16C10 12.6863 12.6863 10 16 10C19.3137 10 22 12.6863 22 16C22 19.3137 19.3137 22 16 22C12.6863 22 10 19.3137 10 16ZM17.4142 16L18.1213 16.7071C18.5119 17.0977 18.5119 17.7308 18.1213 18.1213C17.7308 18.5119 17.0977 18.5119 16.7071 18.1213L16 17.4142L15.2929 18.1213C14.9024 18.5119 14.2692 18.5119 13.8787 18.1213C13.4882 17.7308 13.4882 17.0977 13.8787 16.7071L14.5858 16L13.8787 15.2929C13.4882 14.9024 13.4882 14.2692 13.8787 13.8787C14.2692 13.4882 14.9024 13.4882 15.2929 13.8787L16 14.5858L16.7071 13.8787C17.0977 13.4882 17.7308 13.4882 18.1213 13.8787C18.5119 14.2692 18.5119 14.9024 18.1213 15.2929L17.4142 16Z" fill="#202124"/>
</svg>
