<svg width="17" height="16" viewBox="0 0 17 16" fill="none" xmlns="http://www.w3.org/2000/svg">
<g id="check-circle">
<path id="check-circle_2" d="M8.49992 1.3335C4.81992 1.3335 1.83325 4.32016 1.83325 8.00016C1.83325 11.6802 4.81992 14.6668 8.49992 14.6668C12.1799 14.6668 15.1666 11.6802 15.1666 8.00016C15.1666 4.32016 12.1799 1.3335 8.49992 1.3335ZM11.1866 6.80017L8.07324 9.90682C7.97991 10.0068 7.85324 10.0535 7.71991 10.0535C7.59324 10.0535 7.46658 10.0068 7.36658 9.90682L5.81325 8.35352C5.61992 8.16018 5.61992 7.84014 5.81325 7.64681C6.00659 7.45348 6.32658 7.45348 6.51992 7.64681L7.71991 8.84684L10.4799 6.09351C10.6733 5.89351 10.9933 5.89351 11.1866 6.09351C11.3799 6.28684 11.3799 6.60017 11.1866 6.80017Z" fill="#43A048"/>
</g>
</svg>
