<svg width="24" height="24" viewBox="0 0 24 24" fill="none" xmlns="http://www.w3.org/2000/svg">
<path d="M22.0841 11.3953C19.8621 6.71484 16.5033 4.35938 12.0007 4.35938C7.49576 4.35938 4.13933 6.71484 1.91733 11.3977C1.82821 11.5864 1.78198 11.7925 1.78198 12.0012C1.78198 12.2099 1.82821 12.416 1.91733 12.6047C4.13933 17.2852 7.49811 19.6406 12.0007 19.6406C16.5056 19.6406 19.8621 17.2852 22.0841 12.6023C22.2646 12.2227 22.2646 11.782 22.0841 11.3953ZM12.0007 17.9531C8.22002 17.9531 5.4519 16.0359 3.49945 12C5.4519 7.96406 8.22002 6.04688 12.0007 6.04688C15.7814 6.04688 18.5495 7.96406 20.502 12C18.5518 16.0359 15.7837 17.9531 12.0007 17.9531ZM11.9069 7.875C9.62869 7.875 7.78172 9.72188 7.78172 12C7.78172 14.2781 9.62869 16.125 11.9069 16.125C14.1852 16.125 16.0322 14.2781 16.0322 12C16.0322 9.72188 14.1852 7.875 11.9069 7.875ZM11.9069 14.625C10.4561 14.625 9.2818 13.4508 9.2818 12C9.2818 10.5492 10.4561 9.375 11.9069 9.375C13.3578 9.375 14.5321 10.5492 14.5321 12C14.5321 13.4508 13.3578 14.625 11.9069 14.625Z" fill="#B8B8B8"/>
</svg>
