<svg width="25" height="24" viewBox="0 0 25 24" fill="none" xmlns="http://www.w3.org/2000/svg">
<path d="M21.4789 13.6167C20.1629 15.8127 17.2099 19.4988 12.2499 19.4988C11.2869 19.4988 10.336 19.3527 9.42396 19.0637C9.02896 18.9387 8.81092 18.5178 8.93592 18.1228C9.05992 17.7268 9.48484 17.5108 9.87684 17.6338C10.6418 17.8758 11.4399 17.9988 12.2499 17.9988C16.4719 17.9988 19.04 14.7688 20.194 12.8428C20.602 12.1668 20.6019 11.3298 20.1959 10.6558C19.8499 10.0728 19.4269 9.47676 18.9699 8.92776C18.7049 8.60876 18.749 8.13585 19.068 7.87185C19.388 7.60685 19.8599 7.65077 20.1249 7.96877C20.6309 8.57777 21.1008 9.24077 21.4828 9.88577C22.1758 11.0328 22.1759 12.4647 21.4789 13.6167ZM10.3129 14.7469L3.77992 21.2798C3.63392 21.4258 3.44189 21.4998 3.24989 21.4998C3.05789 21.4998 2.86586 21.4268 2.71986 21.2798C2.42686 20.9868 2.42686 20.5118 2.71986 20.2188L5.89491 17.0437C4.56691 15.8987 3.60193 14.5858 3.01893 13.6148C2.32493 12.4648 2.32488 11.0329 3.02088 9.88186C4.33688 7.68586 7.28989 3.99978 12.2499 3.99978C14.0849 3.99978 15.8149 4.51871 17.4049 5.53371L20.7189 2.21975C21.0119 1.92675 21.4869 1.92675 21.7799 2.21975C22.0729 2.51275 22.0729 2.98779 21.7799 3.28079L10.3148 14.7459C10.3148 14.7459 10.3149 14.7469 10.3139 14.7469C10.3129 14.7469 10.3129 14.7458 10.3129 14.7469ZM9.85877 13.0799L13.5809 9.35769C13.1789 9.13069 12.7279 8.99978 12.2499 8.99978C10.7339 8.99978 9.50086 10.2328 9.50086 11.7498C9.50086 12.2268 9.63277 12.6779 9.85877 13.0799ZM6.95692 15.9807L8.76893 14.1687C8.27393 13.4657 8.00086 12.6308 8.00086 11.7478C8.00086 9.40483 9.90689 7.49783 12.2499 7.49783C13.1339 7.49783 13.9678 7.77089 14.6708 8.26589L16.3019 6.63479C15.0369 5.89379 13.6819 5.49685 12.2499 5.49685C8.02789 5.49685 5.4598 8.72686 4.3058 10.6529C3.8978 11.3289 3.89784 12.1659 4.30384 12.8399C4.84084 13.7369 5.73292 14.9497 6.95692 15.9807ZM14.9579 12.1839C14.7779 13.3439 13.8439 14.2788 12.6859 14.4578C12.2769 14.5208 11.996 14.9038 12.059 15.3128C12.117 15.6838 12.436 15.9488 12.799 15.9488C12.837 15.9488 12.8759 15.9457 12.9139 15.9397C14.7409 15.6577 16.1578 14.2409 16.4398 12.4129C16.5028 12.0029 16.2229 11.6209 15.8129 11.5569C15.4129 11.4959 15.0209 11.7739 14.9579 12.1839Z" fill="#B8B8B8"/>
</svg>
