<svg width="17" height="16" viewBox="0 0 17 16" fill="none" xmlns="http://www.w3.org/2000/svg">
<g id="info-circle">
<path id="info-circle_2" d="M8.49992 1.3335C4.81792 1.3335 1.83325 4.31816 1.83325 8.00016C1.83325 11.6822 4.81792 14.6668 8.49992 14.6668C12.1819 14.6668 15.1666 11.6822 15.1666 8.00016C15.1666 4.31816 12.1819 1.3335 8.49992 1.3335ZM8.99992 11.0002C8.99992 11.2762 8.77592 11.5002 8.49992 11.5002C8.22392 11.5002 7.99992 11.2762 7.99992 11.0002V7.9528C7.99992 7.6768 8.22392 7.4528 8.49992 7.4528C8.77592 7.4528 8.99992 7.6768 8.99992 7.9528V11.0002ZM8.51327 6.3335C8.14527 6.3335 7.84318 6.03483 7.84318 5.66683C7.84318 5.29883 8.13859 5.00016 8.50659 5.00016H8.51327C8.88193 5.00016 9.17993 5.29883 9.17993 5.66683C9.17993 6.03483 8.88127 6.3335 8.51327 6.3335Z" fill="#98999A"/>
</g>
</svg>
