<svg width="49" height="48" viewBox="0 0 49 48" fill="none" xmlns="http://www.w3.org/2000/svg">
<path fill-rule="evenodd" clip-rule="evenodd" d="M4.5 32C4.5 36.4183 8.08172 40 12.5 40H24.5C25.6046 40 26.5 39.1046 26.5 38C26.5 36.8954 25.6046 36 24.5 36H12.5C10.2909 36 8.5 34.2091 8.5 32V16C8.5 13.7909 10.2909 12 12.5 12H36.5C38.7091 12 40.5 13.7909 40.5 16V20C40.5 21.1046 41.3954 22 42.5 22C43.6046 22 44.5 21.1046 44.5 20V16C44.5 11.5817 40.9183 8 36.5 8H12.5C8.08172 8 4.5 11.5817 4.5 16V32Z" fill="#F3BF56"/>
<path fill-rule="evenodd" clip-rule="evenodd" d="M12.9382 16.7507C13.6282 15.8882 14.8868 15.7483 15.7493 16.4383L24.5 23.4388L33.2506 16.4383C34.1131 15.7483 35.3717 15.8882 36.0617 16.7507C36.7517 17.6132 36.6119 18.8718 35.7493 19.5618L24.5 28.5613L13.2506 19.5618C12.388 18.8718 12.2482 17.6132 12.9382 16.7507Z" fill="#F3BF56"/>
<path fill-rule="evenodd" clip-rule="evenodd" d="M38.5 30C36.2909 30 34.5 31.7909 34.5 34C34.5 36.2091 36.2909 38 38.5 38C40.7091 38 42.5 36.2091 42.5 34C42.5 31.7909 40.7091 30 38.5 30ZM30.5 34C30.5 29.5817 34.0817 26 38.5 26C42.9183 26 46.5 29.5817 46.5 34C46.5 38.4183 42.9183 42 38.5 42C34.0817 42 30.5 38.4183 30.5 34Z" fill="#F3BF56"/>
</svg>
